SplineFontDB: 3.2
FontName: SeriousShannsBoldItalic
FullName: Serious Shanns Bold Italic
FamilyName: Serious Shanns Bold Italic
Weight: Bold
Copyright: https://github.com/kaBeech/serious-shanns/blob/main/LICENSE
Version: 6.0.0
ItalicAngle: -12.5
UnderlinePosition: 0
UnderlineWidth: 0
Ascent: 800
Descent: 200
InvalidEm: 0
sfntRevision: 0x00003333
LayerCount: 2
Layer: 0 0 "Back" 1
Layer: 1 0 "Fore" 0
XUID: [1021 45 630387186 10904090]
StyleMap: 0x0040
FSType: 4
OS2Version: 3
OS2_WeightWidthSlopeOnly: 0
OS2_UseTypoMetrics: 0
CreationTime: 1532631502
ModificationTime: 315532800
PfmFamily: 81
TTFWeight: 700
TTFWidth: 5
LineGap: 0
VLineGap: 0
Panose: 0 0 0 0 0 0 0 0 0 0
OS2TypoAscent: 613
OS2TypoAOffset: 0
OS2TypoDescent: -188
OS2TypoDOffset: 0
OS2TypoLinegap: 98
OS2WinAscent: 778
OS2WinAOffset: 0
OS2WinDescent: 308
OS2WinDOffset: 0
HheadAscent: 796
HheadAOffset: 0
HheadDescent: -317
HheadDOffset: 0
OS2SubXSize: 317
OS2SubYSize: 293
OS2SubXOff: 0
OS2SubYOff: 37
OS2SupXSize: 317
OS2SupYSize: 293
OS2SupXOff: 0
OS2SupYOff: 171
OS2StrikeYSize: 0
OS2StrikeYPos: 132
OS2CapHeight: 576
OS2XHeight: 485
OS2Vendor: 'NONE'
OS2CodePages: 00000001.00000000
OS2UnicodeRanges: 00000001.00000000.00000000.00000000
MarkAttachClasses: 1
DEI: 91125
LangName: 1033 "" "" "Normal" "" "" "Version 0.2.0"
Encoding: UnicodeBmp
Compacted: 1
UnicodeInterp: none
NameList: AGL For New Fonts
DisplaySize: -48
AntiAlias: 1
FitToEm: 0
WinInfo: 0 17 8
BeginPrivate: 9
BlueValues 32 [-40 -6 499 523 706 718 765 769]
OtherBlues 11 [-297 -287]
BlueScale 9 0.0291667
BlueShift 1 0
StdHW 5 [111]
StdVW 5 [118]
StemSnapH 33 [100 106 110 111 114 116 119 179]
StemSnapV 5 [118]
ForceBold 4 true
EndPrivate
BeginChars: 65537 121

StartChar: .notdef
Encoding: 65536 -1 0
Width: 590
GlyphClass: 1
Flags: W
HStem: -280 78<55 331> 683 78<259 535>
LayerCount: 2
Fore
SplineSet
-36 -280 m 1
 205 761 l 1
 625 761 l 1
 385 -280 l 1
 -36 -280 l 1
259 683 m 1
 55 -202 l 1
 331 -202 l 1
 535 683 l 1
 259 683 l 1
EndSplineSet
Validated: 1
EndChar

StartChar: exclam
Encoding: 33 33 8
Width: 590
GlyphClass: 2
Flags: HMW
HStem: -36.998 179<188.002 264.335 199.002 264.335>
VStem: 140.002 309.998
LayerCount: 2
Fore
SplineSet
450 738 m 0
 448.666992188 732 439.001953125 694.668945312 421.001953125 626.001953125 c 0
 403.001953125 557.334960938 389.334960938 502.334960938 380.001953125 461.001953125 c 0
 375.334960938 441.668945312 370.834960938 421.501953125 366.501953125 400.501953125 c 0
 362.168945312 379.501953125 358.168945312 361.501953125 354.501953125 346.501953125 c 0
 350.834960938 331.501953125 348.001953125 321.168945312 346.001953125 315.501953125 c 0
 344.001953125 309.834960938 342.168945312 302.66796875 340.501953125 294.000976562 c 0
 338.834960938 285.333984375 337.001953125 277.333984375 335.001953125 270.000976562 c 0
 329.001953125 251.333984375 319.001953125 237.000976562 305.001953125 227.000976562 c 0
 291.668945312 217.66796875 277.668945312 212.66796875 263.001953125 212.000976562 c 2
 260.001953125 212.000976562 l 2
 244.668945312 212.000976562 233.3359375 217.66796875 226.002929688 229.000976562 c 0
 221.557617188 235.66796875 219.3359375 243.96484375 219.3359375 253.891601562 c 0
 219.3359375 258.854492188 219.890625 264.223632812 221.001953125 270.000976562 c 0
 223.001953125 278.000976562 226.501953125 288.500976562 231.501953125 301.500976562 c 0
 236.501953125 314.500976562 240.001953125 324.000976562 242.001953125 330.000976562 c 0
 244.001953125 336.000976562 246.834960938 346.16796875 250.501953125 360.500976562 c 0
 254.168945312 374.833984375 257.501953125 388.666992188 260.501953125 402 c 0
 263.501953125 415.333007812 267.668945312 435.666015625 273.001953125 462.999023438 c 0
 279.001953125 494.999023438 285.334960938 525.666015625 292.001953125 554.999023438 c 0
 298.668945312 584.33203125 304.168945312 607.33203125 308.501953125 623.999023438 c 0
 312.834960938 640.666015625 318.16796875 661.333007812 324.500976562 686 c 0
 330.833984375 710.666992188 335.000976562 727 337.000976562 735 c 0
 342.333984375 756.333007812 351.833984375 772.833007812 365.500976562 784.5 c 0
 379.16796875 796.166992188 393.66796875 802 409.000976562 802 c 2
 413.000976562 802 l 2
 427.66796875 802 438.66796875 796.666992188 446.000976562 786 c 0
 450.482421875 779.481445312 452.72265625 770.971679688 452.72265625 760.470703125 c 0
 452.72265625 753.787109375 451.815429688 746.296875 450 738 c 0
199.001953125 -36.998046875 m 2
 177.001953125 -36.998046875 160.668945312 -28.998046875 150.001953125 -12.998046875 c 0
 141.40625 -0.3310546875 137.109375 14.0234375 137.109375 30.06640625 c 0
 137.109375 37.666015625 138.073242188 45.64453125 140.001953125 54.001953125 c 0
 145.334960938 78.001953125 159.001953125 98.3349609375 181.001953125 115.001953125 c 0
 205.001953125 133.001953125 228.834960938 142.001953125 252.501953125 142.001953125 c 0
 276.168945312 142.001953125 293.668945312 134.001953125 305.001953125 118.001953125 c 0
 313.001953125 106.890625 317.001953125 93.927734375 317.001953125 79.11328125 c 0
 317.001953125 71.7060546875 316.001953125 63.8349609375 314.001953125 55.501953125 c 0
 308.001953125 30.501953125 295.501953125 9.6689453125 276.501953125 -6.998046875 c 0
 257.501953125 -23.6650390625 235.001953125 -33.6650390625 209.001953125 -36.998046875 c 2
 199.001953125 -36.998046875 l 2
EndSplineSet
Validated: 524289
EndChar

StartChar: quotedbl
Encoding: 34 34 9
Width: 590
GlyphClass: 2
Flags: W
LayerCount: 2
Fore
SplineSet
311 739 m 0
 309.666992188 730.333007812 306.6640625 716.333984375 301.997070312 697.000976562 c 0
 297.330078125 677.66796875 288.330078125 641.66796875 274.997070312 589.000976562 c 0
 260.997070312 533.66796875 249.997070312 495.000976562 241.997070312 473.000976562 c 0
 235.997070312 456.333984375 226.330078125 443.666992188 212.997070312 435 c 0
 200.997070312 427 189.330078125 423 177.997070312 423 c 0
 162.6640625 423 149.331054688 428 137.998046875 438 c 0
 131.46484375 444.533203125 128.198242188 452.700195312 128.198242188 462.5 c 0
 128.198242188 466.700195312 128.797851562 471.200195312 129.998046875 476 c 2
 131.998046875 482 l 2
 139.331054688 508 147.331054688 540 155.998046875 578 c 0
 158.665039062 588.666992188 160.998046875 600 162.998046875 612 c 0
 177.665039062 679.333007812 187.33203125 724.666015625 191.999023438 747.999023438 c 0
 193.999023438 756.666015625 197.666015625 764.333007812 202.999023438 771 c 0
 209.666015625 779 217.333007812 785 226 789 c 0
 236.499023438 793.083007812 246.744140625 795.125 256.732421875 795.125 c 0
 258.16015625 795.125 259.583007812 795.083007812 261 795 c 0
 270.333007812 795 277.833007812 794.166992188 283.5 792.5 c 0
 289.166992188 790.833007812 294.666992188 788 300 784 c 0
 305.333007812 780 309 774 311 766 c 0
 313 758 313 749 311 739 c 0
459.997070312 738.000976562 m 0
 458.6640625 731.333984375 457.330078125 725.001953125 455.997070312 719.001953125 c 0
 447.997070312 685.001953125 437.330078125 641.668945312 423.997070312 589.001953125 c 0
 409.997070312 533.668945312 399.330078125 495.001953125 391.997070312 473.001953125 c 0
 385.997070312 456.334960938 375.997070312 443.66796875 361.997070312 435.000976562 c 0
 349.997070312 427.000976562 337.997070312 423.000976562 325.997070312 423.000976562 c 0
 310.6640625 423.000976562 297.997070312 428.000976562 287.997070312 438.000976562 c 0
 281.120117188 444.877929688 277.681640625 453.565429688 277.681640625 464.0625 c 0
 277.681640625 467.811523438 278.120117188 471.791015625 278.997070312 476.000976562 c 2
 280.997070312 482.000976562 l 2
 287.6640625 504.66796875 294.6640625 532.000976562 301.997070312 564.000976562 c 0
 317.330078125 631.333984375 329.997070312 691.000976562 339.997070312 743.000976562 c 1
 339.997070312 746.000976562 l 2
 341.997070312 755.333984375 346.1640625 763.833984375 352.497070312 771.500976562 c 0
 358.830078125 779.16796875 366.330078125 785.000976562 374.997070312 789.000976562 c 0
 385.49609375 793.083984375 395.741210938 795.125976562 405.729492188 795.125976562 c 0
 407.157226562 795.125976562 408.580078125 795.083984375 409.997070312 795.000976562 c 0
 419.330078125 795.000976562 426.830078125 794.16796875 432.497070312 792.500976562 c 0
 438.1640625 790.833984375 443.6640625 788.333984375 448.997070312 785.000976562 c 0
 454.997070312 781.000976562 458.830078125 774.833984375 460.497070312 766.500976562 c 0
 462.1640625 758.16796875 461.997070312 748.66796875 459.997070312 738.000976562 c 0
EndSplineSet
Validated: 524289
EndChar

StartChar: numbersign
Encoding: 35 35 10
Width: 590
GlyphClass: 2
Flags: HMW
HStem: -14 21G<45.666 53> 178.501 108.501<227 227> 433.002 109.002<333.996 372.996 288.996 414.996>
LayerCount: 2
Fore
SplineSet
172 431 m 1
 154.666992188 430.333007812 144.99609375 430.334960938 142.99609375 431.001953125 c 0
 126.329101562 431.001953125 114.329101562 435.334960938 106.99609375 444.001953125 c 0
 101.348632812 451.060546875 98.525390625 459.448242188 98.525390625 469.165039062 c 0
 98.525390625 473.212890625 99.015625 477.4921875 99.99609375 482.001953125 c 2
 99.99609375 485.001953125 l 2
 103.329101562 499.001953125 111.162109375 511.334960938 123.495117188 522.001953125 c 0
 135.828125 532.668945312 151.328125 538.3359375 169.995117188 539.002929688 c 0
 180.662109375 539.669921875 195.995117188 540.002929688 215.995117188 540.002929688 c 1
 274.995117188 686.002929688 l 2
 285.662109375 706.669921875 298.329101562 721.002929688 312.99609375 729.002929688 c 0
 322.99609375 734.3359375 332.99609375 737.002929688 342.99609375 737.002929688 c 0
 346.99609375 737.002929688 351.329101562 736.3359375 355.99609375 735.002929688 c 0
 371.329101562 731.669921875 381.662109375 723.336914062 386.995117188 710.00390625 c 0
 389.395507812 704.404296875 390.595703125 698.204101562 390.595703125 691.404296875 c 0
 390.595703125 686.87109375 390.061523438 682.0703125 388.995117188 677.00390625 c 0
 387.662109375 671.00390625 385.329101562 665.00390625 381.99609375 659.00390625 c 2
 333.99609375 542.00390625 l 1
 414.99609375 542.00390625 l 1
 469.99609375 678.00390625 l 2
 480.663085938 699.336914062 493.330078125 714.00390625 507.997070312 722.00390625 c 0
 517.997070312 727.336914062 527.997070312 729.669921875 537.997070312 729.002929688 c 0
 542.6640625 729.002929688 547.331054688 728.669921875 551.998046875 728.002929688 c 0
 567.331054688 724.669921875 577.998046875 716.336914062 583.998046875 703.00390625 c 0
 586.3984375 697.803710938 587.598632812 692.00390625 587.598632812 685.603515625 c 0
 587.598632812 681.336914062 587.064453125 676.803710938 585.998046875 672.00390625 c 0
 584.665039062 665.336914062 581.998046875 658.336914062 577.998046875 651.00390625 c 0
 565.998046875 626.336914062 550.665039062 590.336914062 531.998046875 543.00390625 c 1
 548.665039062 542.336914062 561.33203125 537.00390625 569.999023438 527.00390625 c 0
 578.33203125 517.559570312 582.499023438 507.189453125 582.499023438 495.892578125 c 0
 582.499023438 493.633789062 582.33203125 491.336914062 581.999023438 489.00390625 c 0
 578.666015625 473.670898438 570.833007812 460.670898438 558.5 450.00390625 c 0
 546.166992188 439.336914062 531 433.669921875 513 433.002929688 c 2
 512 433.002929688 l 1
 488 433.002929688 l 1
 431 286.002929688 l 1
 456 286.002929688 l 2
 474 286.002929688 485.666992188 281.3359375 491 272.002929688 c 0
 494.5546875 265.78125 496.333007812 258.522460938 496.333007812 250.2265625 c 0
 496.333007812 246.078125 495.887695312 241.669921875 494.999023438 237.002929688 c 2
 494.999023438 236.002929688 l 2
 491.666015625 220.002929688 485.333007812 207.669921875 476 199.002929688 c 0
 464 186.3359375 449 180.002929688 431 180.002929688 c 2
 389 180.002929688 l 1
 361 109.3359375 341.333007812 60.6689453125 330 34.001953125 c 0
 319.333007812 16.6689453125 305.333007812 3.3359375 288 -5.9970703125 c 0
 277.80078125 -11.396484375 268.411132812 -14.0966796875 259.83203125 -14.0966796875 c 0
 258.877929688 -14.0966796875 257.934570312 -14.0634765625 257.000976562 -13.9970703125 c 0
 251.66796875 -13.9970703125 246.66796875 -13.330078125 242.000976562 -11.9970703125 c 0
 228.000976562 -8.6640625 219.000976562 1.6689453125 215.000976562 19.001953125 c 0
 213.000976562 28.3349609375 213.333984375 37.66796875 216.000976562 47.0009765625 c 0
 218.000976562 55.0009765625 221.000976562 63.333984375 225.000976562 72.0009765625 c 0
 236.333984375 96.0009765625 251.666992188 131.66796875 271 179.000976562 c 1
 259.666992188 179.000976562 245 178.833984375 227 178.500976562 c 0
 209 178.16796875 194.333007812 178.000976562 183 178.000976562 c 1
 145 88.0009765625 125.333007812 41.333984375 124 38.0009765625 c 0
 114.666992188 21.333984375 100.666992188 7.6669921875 82 -3 c 0
 69.3330078125 -10.3330078125 58 -14 48 -14 c 0
 43.3330078125 -14 38.3330078125 -13.3330078125 33 -12 c 0
 19 -8.6669921875 10.6669921875 2.3330078125 8 21 c 0
 6.6669921875 30.3330078125 7 39.5 9 48.5 c 0
 11 57.5 14.3330078125 66.6669921875 19 76 c 0
 27 92 42.3330078125 125.666992188 65 177 c 1
 51 177 l 2
 33 177 20 181 12 189 c 0
 5.740234375 195.259765625 2.6103515625 203.2578125 2.6103515625 212.995117188 c 0
 2.6103515625 216.739257812 3.0732421875 220.741210938 3.9990234375 225 c 2
 3.9990234375 229 l 2
 7.33203125 243 14.83203125 255 26.4990234375 265 c 0
 38.166015625 275 53.3330078125 280.666992188 72 282 c 0
 77.3330078125 282 84 282.166992188 92 282.5 c 0
 100 282.833007812 106 283 110 283 c 2
 172 431 l 1
372.99609375 433.001953125 m 1
 288.99609375 433.001953125 l 1
 227.99609375 287.001953125 l 1
 313.99609375 287.001953125 l 1
 333.99609375 334.334960938 353.663085938 383.001953125 372.99609375 433.001953125 c 1
EndSplineSet
Validated: 524289
EndChar

StartChar: dollar
Encoding: 36 36 11
Width: 590
GlyphClass: 2
Flags: HMW
HStem: 623.002 101
VStem: 420.01 117.492
LayerCount: 2
Fore
SplineSet
230.5 -130 m 0
 216.166992188 -140 200.67578125 -144.999023438 184.008789062 -144.999023438 c 2
 183.008789062 -144.999023438 l 2
 166.341796875 -144.999023438 155.008789062 -138.999023438 149.008789062 -126.999023438 c 0
 146.286132812 -121.943359375 144.924804688 -115.866210938 144.924804688 -108.767578125 c 0
 144.924804688 -103.698242188 145.619140625 -98.1083984375 147.0078125 -91.998046875 c 0
 147.674804688 -88.6650390625 149.174804688 -82.83203125 151.5078125 -74.4990234375 c 0
 153.840820312 -66.166015625 157.673828125 -51.9990234375 163.006835938 -31.9990234375 c 1
 141.006835938 -31.33203125 120.006835938 -27.9990234375 100.006835938 -21.9990234375 c 0
 81.33984375 -16.666015625 65.33984375 -8.666015625 52.0068359375 2.0009765625 c 0
 26.673828125 22.0009765625 10.673828125 46.0009765625 4.0068359375 74.0009765625 c 0
 2.482421875 82.3818359375 1.720703125 90.3271484375 1.720703125 97.8369140625 c 0
 1.720703125 103.469726562 2.1494140625 108.857421875 3.0068359375 114.000976562 c 0
 3.673828125 118.000976562 5.0068359375 121.66796875 7.0068359375 125.000976562 c 0
 13.673828125 139.66796875 24.673828125 150.66796875 40.0068359375 158.000976562 c 0
 48.673828125 162.000976562 55.5068359375 164.500976562 60.5068359375 165.500976562 c 0
 65.5068359375 166.500976562 69.5068359375 167.000976562 72.5068359375 167.000976562 c 2
 81.0068359375 167.000976562 l 2
 88.33984375 166.333984375 94.5068359375 163.000976562 99.5068359375 157.000976562 c 0
 104.506835938 151.000976562 109.006835938 143.333984375 113.006835938 134.000976562 c 0
 121.006835938 115.333984375 131.673828125 100.666992188 145.006835938 90 c 0
 156.33984375 81.3330078125 171.33984375 76.3330078125 190.006835938 75 c 1
 214.006835938 174.333007812 235.33984375 263.666015625 254.006835938 342.999023438 c 1
 252.006835938 342.999023438 248.33984375 343.666015625 243.006835938 344.999023438 c 0
 239.673828125 345.666015625 235.006835938 345.999023438 229.006835938 345.999023438 c 0
 203.673828125 348.666015625 182.006835938 355.333007812 164.006835938 366 c 0
 147.33984375 376.666992188 134.506835938 389.333984375 125.506835938 404.000976562 c 0
 116.506835938 418.66796875 110.673828125 434.500976562 108.006835938 451.500976562 c 0
 106.940429688 458.30078125 106.40625 465.07421875 106.40625 471.8203125 c 0
 106.40625 481.940429688 107.606445312 492.000976562 110.006835938 502.000976562 c 0
 116.006835938 526.66796875 125.173828125 550.334960938 137.506835938 573.001953125 c 0
 149.83984375 595.668945312 165.672851562 616.8359375 185.005859375 636.502929688 c 0
 204.338867188 656.169921875 228.005859375 673.002929688 256.005859375 687.002929688 c 0
 282.672851562 699.669921875 311.005859375 709.002929688 341.005859375 715.002929688 c 1
 344.338867188 728.3359375 348.338867188 744.002929688 353.005859375 762.002929688 c 0
 361.005859375 794.002929688 376.005859375 814.3359375 398.005859375 823.002929688 c 0
 405.338867188 825.669921875 414.005859375 827.002929688 424.005859375 827.002929688 c 0
 444.672851562 827.002929688 458.005859375 820.002929688 464.005859375 806.002929688 c 0
 466.518554688 800.259765625 467.775390625 793.645507812 467.775390625 786.163085938 c 0
 467.775390625 779.748046875 466.852539062 772.694335938 465.005859375 765.001953125 c 0
 460.338867188 745.001953125 457.005859375 731.334960938 455.005859375 724.001953125 c 1
 469.005859375 722.668945312 487.338867188 719.001953125 510.005859375 713.001953125 c 0
 532.005859375 707.668945312 549.005859375 702.668945312 561.005859375 698.001953125 c 0
 574.338867188 692.668945312 582.671875 683.668945312 586.004882812 671.001953125 c 0
 588.671875 661.668945312 589.004882812 652.001953125 587.004882812 642.001953125 c 0
 586.337890625 638.668945312 585.337890625 635.001953125 584.004882812 631.001953125 c 0
 580.671875 621.001953125 575.171875 613.001953125 567.504882812 607.001953125 c 0
 559.837890625 601.001953125 551.670898438 597.334960938 543.00390625 596.001953125 c 0
 539.00390625 595.334960938 535.336914062 595.001953125 532.00390625 595.001953125 c 0
 528.670898438 595.001953125 525.00390625 595.168945312 521.00390625 595.501953125 c 0
 517.00390625 595.834960938 512.336914062 597.001953125 507.00390625 599.001953125 c 0
 500.336914062 600.334960938 492.669921875 603.001953125 484.002929688 607.001953125 c 0
 468.002929688 615.668945312 450.3359375 621.001953125 431.002929688 623.001953125 c 1
 415.002929688 558.334960938 399.669921875 497.001953125 385.002929688 439.001953125 c 1
 411.669921875 434.334960938 436.002929688 427.334960938 458.002929688 418.001953125 c 0
 478.002929688 408.001953125 493.669921875 396.001953125 505.002929688 382.001953125 c 0
 516.3359375 368.001953125 524.668945312 352.168945312 530.001953125 334.501953125 c 0
 535.021484375 317.873046875 537.53125 301.245117188 537.53125 284.616210938 c 0
 537.53125 270.657226562 535.9453125 250.924804688 530.001953125 228.000976562 c 0
 522.668945312 196.66796875 510.668945312 167.000976562 494.001953125 139.000976562 c 0
 477.334960938 111.000976562 457.66796875 86.66796875 435.000976562 66.0009765625 c 0
 412.333984375 45.333984375 387.000976562 27.6669921875 359.000976562 13 c 0
 332.333984375 -0.3330078125 304.666992188 -11 276 -19 c 1
 268 -53 263.333007812 -76 262 -88 c 0
 255.333007812 -106 244.833007812 -120 230.5 -130 c 0
262.008789062 585.000976562 m 0
 243.341796875 569.66796875 231.341796875 551.666992188 226.008789062 531 c 0
 225.008789062 526.666992188 224.508789062 522.4375 224.508789062 518.3125 c 0
 224.508789062 505.9375 229.008789062 494.5 238.008789062 484 c 0
 248.008789062 472 262.008789062 463 280.008789062 457 c 1
 290.008789062 498.333007812 302.67578125 551.333007812 318.008789062 616 c 1
 296.67578125 608.666992188 278.008789062 598.333984375 262.008789062 585.000976562 c 0
371.008789062 137 m 0
 395.008789062 157.666992188 410.009765625 181.33203125 416.009765625 207.999023438 c 0
 418.676757812 219.999023438 420.009765625 230.33203125 420.009765625 238.999023438 c 0
 420.009765625 248.999023438 417.676757812 259.33203125 413.009765625 269.999023438 c 0
 405.676757812 288.666015625 386.676757812 304.333007812 356.009765625 317 c 1
 338.009765625 240.333007812 326.176757812 190.5 320.509765625 167.5 c 0
 314.842773438 144.5 308.67578125 119.666992188 302.008789062 93 c 1
 328.008789062 105 351.008789062 119.666992188 371.008789062 137 c 0
EndSplineSet
Validated: 524289
EndChar

StartChar: percent
Encoding: 37 37 12
Width: 590
GlyphClass: 2
Flags: HMW
HStem: -40.0059 100.999<334.007 381.007 347.007 381.007> 158.993 98<409.007 410.004> 420 98.9951<174.333 220.006> 607.994 97.0068<230.006 285.668>
VStem: 252.007 97.998<102.993 103.993 103.993 103.993> 269.007 101.995 431.005 96.002
LayerCount: 2
Fore
SplineSet
94.5 491.5 m 0xf6
 92.5576171875 500.612304688 91.5869140625 509.959960938 91.5869140625 519.541015625 c 0
 91.5869140625 531.338867188 93.05859375 543.4921875 96.001953125 556 c 0
 96.001953125 556.666992188 96.3349609375 557.333984375 97.001953125 558.000976562 c 0
 107.001953125 600.000976562 126.834960938 635.000976562 156.501953125 663.000976562 c 0
 186.168945312 691.000976562 223.001953125 705.000976562 267.001953125 705.000976562 c 0
 304.334960938 705.000976562 333.001953125 693.000976562 353.001953125 669.000976562 c 0
 363.668945312 656.333984375 369.668945312 640.000976562 371.001953125 620.000976562 c 0
 371.297851562 616.446289062 371.446289062 612.79296875 371.446289062 609.041015625 c 0
 371.446289062 595.904296875 369.630859375 581.557617188 366.000976562 566.000976562 c 0
 354.000976562 515.333984375 332.000976562 477.666992188 300.000976562 453 c 0
 271.333984375 431 233.666992188 420 187 420 c 0
 161.666992188 420 141 426.833007812 125 440.5 c 0
 109 454.166992188 98.8330078125 471.166992188 94.5 491.5 c 0xf6
3.001953125 -45 m 0
 -4.3310546875 -41 -9.994140625 -36.0048828125 -13.994140625 -30.0048828125 c 0
 -18.6611328125 -22.0048828125 -19.6611328125 -12.5048828125 -16.994140625 -1.5048828125 c 0
 -14.3271484375 9.4951171875 -8.3271484375 21.328125 1.005859375 33.9951171875 c 0
 20.3388671875 61.9951171875 64.671875 120.328125 134.004882812 208.995117188 c 0
 280.671875 387.662109375 354.004882812 477.329101562 354.004882812 477.99609375 c 0
 427.337890625 567.99609375 477.670898438 632.663085938 505.00390625 671.99609375 c 0
 518.336914062 685.99609375 533.336914062 694.99609375 550.00390625 698.99609375 c 2
 564.00390625 700.99609375 l 2
 574.00390625 700.99609375 582.670898438 698.329101562 590.00390625 692.99609375 c 0
 602.037109375 686.030273438 608.053710938 676.356445312 608.053710938 663.975585938 c 0
 608.053710938 659.627929688 607.573242188 656.840820312 607.00390625 653.997070312 c 0
 604.336914062 642.6640625 597.669921875 630.331054688 587.002929688 616.998046875 c 0
 555.002929688 577.665039062 474.002929688 477.33203125 344.002929688 315.999023438 c 0
 213.3359375 154.666015625 126.668945312 45.666015625 84.001953125 -11.0009765625 c 0
 63.8271484375 -37.6826171875 44.2880859375 -51.0234375 25.384765625 -51.0234375 c 0
 24.923828125 -51.0234375 24.462890625 -51.015625 24.001953125 -51 c 0
 16.6689453125 -51 9.6689453125 -49 3.001953125 -45 c 0
266.505859375 597.495117188 m 0
 260.838867188 604.495117188 250.672851562 607.994140625 236.005859375 607.994140625 c 0
 224.005859375 607.994140625 214.672851562 604.327148438 208.005859375 596.994140625 c 0
 199.338867188 588.327148438 192.338867188 576.327148438 187.005859375 560.994140625 c 0
 187.005859375 559.661132812 186.672851562 558.328125 186.005859375 556.995117188 c 0
 183.338867188 544.995117188 183.838867188 535.995117188 187.505859375 529.995117188 c 0
 191.172851562 523.995117188 201.672851562 520.328125 219.005859375 518.995117188 c 2
 220.005859375 518.995117188 l 2
 232.005859375 518.995117188 241.672851562 522.328125 249.005859375 528.995117188 c 0
 257.672851562 536.995117188 264.33984375 547.662109375 269.006835938 560.995117188 c 0
 269.006835938 561.662109375 269.33984375 562.662109375 270.006835938 563.995117188 c 0
 271.241210938 569.673828125 271.858398438 574.780273438 271.858398438 579.31640625 c 0
 271.858398438 587.02734375 270.07421875 593.087890625 266.505859375 597.495117188 c 0
250.506835938 33.994140625 m 0
 248.234375 43.69140625 247.09765625 53.6630859375 247.09765625 63.9111328125 c 0
 247.09765625 76.2080078125 248.734375 88.90234375 252.006835938 101.993164062 c 1
 252.006835938 103.993164062 l 1xfa
 262.006835938 147.993164062 283.006835938 184.493164062 315.006835938 213.493164062 c 0
 347.006835938 242.493164062 386.006835938 256.993164062 432.006835938 256.993164062 c 0
 467.33984375 256.993164062 494.006835938 244.66015625 512.006835938 219.993164062 c 0
 521.33984375 206.66015625 526.33984375 189.327148438 527.006835938 167.994140625 c 0
 527.08984375 165.993164062 527.131835938 163.966796875 527.131835938 161.9140625 c 0
 527.131835938 147.549804688 525.08984375 131.909179688 521.006835938 114.994140625 c 0
 519.673828125 108.327148438 518.006835938 101.66015625 516.006835938 94.9931640625 c 0
 504.006835938 51.66015625 484.506835938 18.3271484375 457.506835938 -5.005859375 c 0
 430.506835938 -28.3388671875 395.33984375 -40.005859375 352.006835938 -40.005859375 c 2
 347.006835938 -40.005859375 l 2
 321.006835938 -40.005859375 299.673828125 -33.005859375 283.006835938 -19.005859375 c 0
 266.33984375 -5.005859375 255.506835938 12.6611328125 250.506835938 33.994140625 c 0
381.006835938 60.9931640625 m 2
 384.00390625 60.9921875 l 2
 395.336914062 60.9921875 404.336914062 64.3251953125 411.00390625 70.9921875 c 0
 419.670898438 79.6591796875 426.337890625 91.326171875 431.004882812 105.993164062 c 1
 431.004882812 108.993164062 l 2
 432.856445312 117.880859375 433.782226562 125.53515625 433.782226562 131.954101562 c 0
 433.782226562 137.090820312 433.189453125 141.4375 432.00390625 144.993164062 c 0
 428.00390625 154.326171875 418.00390625 158.993164062 402.00390625 158.993164062 c 0
 390.00390625 158.993164062 380.00390625 154.66015625 372.00390625 145.993164062 c 0
 362.670898438 135.993164062 355.337890625 122.66015625 350.004882812 105.993164062 c 1
 350.004882812 102.993164062 l 2
 346.671875 89.66015625 346.838867188 79.4931640625 350.505859375 72.4931640625 c 0
 354.172851562 65.4931640625 364.33984375 61.66015625 381.006835938 60.9931640625 c 2
EndSplineSet
Validated: 524289
EndChar

StartChar: ampersand
Encoding: 38 38 13
Width: 590
GlyphClass: 2
Flags: HMW
HStem: -53.9971 117.999<160.334 214.001> 633.001 103.001<368.333 412.668>
LayerCount: 2
Fore
SplineSet
486 11 m 0
 485.333007812 7.6669921875 484.333007812 4.0009765625 483 0.0009765625 c 0
 475.666992188 -23.33203125 464.666992188 -38.6650390625 450 -45.998046875 c 0
 437.333007812 -50.6650390625 429.333007812 -52.998046875 426 -52.998046875 c 2
 425 -52.998046875 l 2
 417 -52.998046875 409 -50.3310546875 401 -44.998046875 c 0
 387 -36.3310546875 377 -21.3310546875 371 0.001953125 c 0
 370.333007812 3.3349609375 369.166015625 10.8349609375 367.499023438 22.501953125 c 2
 363.999023438 47.001953125 l 1
 355.999023438 38.3349609375 349.83203125 31.8349609375 345.499023438 27.501953125 c 0
 341.166015625 23.1689453125 334.333007812 16.8359375 325 8.5029296875 c 0
 315.666992188 0.169921875 307.833984375 -6.330078125 301.500976562 -10.9970703125 c 0
 295.16796875 -15.6640625 286.66796875 -21.1640625 276.000976562 -27.4970703125 c 0
 265.333984375 -33.830078125 255.333984375 -38.4970703125 246.000976562 -41.4970703125 c 0
 236.66796875 -44.4970703125 226.16796875 -47.330078125 214.500976562 -49.9970703125 c 0
 202.833984375 -52.6640625 191.000976562 -53.9970703125 179.000976562 -53.9970703125 c 0
 141.66796875 -53.9970703125 110.16796875 -43.830078125 84.5009765625 -23.4970703125 c 0
 58.833984375 -3.1640625 41.333984375 23.6689453125 32.0009765625 57.001953125 c 0
 27.162109375 74.28515625 24.7421875 92.28515625 24.7421875 111.002929688 c 0
 24.7421875 128.383789062 26.8291015625 146.383789062 31.001953125 165.001953125 c 0
 44.3349609375 223.001953125 66.001953125 272.668945312 96.001953125 314.001953125 c 0
 130.668945312 362.668945312 176.001953125 400.668945312 232.001953125 428.001953125 c 1
 222.001953125 455.501953125 l 2
 218.001953125 466.501953125 215.001953125 475.001953125 213.001953125 481.001953125 c 0
 211.001953125 487.001953125 208.834960938 494.834960938 206.501953125 504.501953125 c 0
 204.168945312 514.168945312 203.001953125 522.668945312 203.001953125 530.001953125 c 0
 203.001953125 550.001953125 205.334960938 569.668945312 210.001953125 589.001953125 c 0
 212.668945312 601.668945312 217.168945312 614.501953125 223.501953125 627.501953125 c 0
 229.834960938 640.501953125 238.501953125 653.668945312 249.501953125 667.001953125 c 0
 260.501953125 680.334960938 273.168945312 692.001953125 287.501953125 702.001953125 c 0
 301.834960938 712.001953125 319.001953125 720.168945312 339.001953125 726.501953125 c 0
 359.001953125 732.834960938 380.334960938 736.001953125 403.001953125 736.001953125 c 0
 422.334960938 736.001953125 440.501953125 732.668945312 457.501953125 726.001953125 c 0
 474.501953125 719.334960938 489.334960938 709.834960938 502.001953125 697.501953125 c 0
 514.668945312 685.168945312 523.168945312 668.668945312 527.501953125 648.001953125 c 0
 529.319335938 639.334960938 530.227539062 630.2578125 530.227539062 620.770507812 c 0
 530.227539062 607.633789062 528.485351562 593.7109375 525.001953125 579.001953125 c 0
 519.668945312 556.334960938 512.168945312 535.16796875 502.501953125 515.500976562 c 0
 492.834960938 495.833984375 482.334960938 479.333984375 471.001953125 466.000976562 c 0
 459.668945312 452.66796875 446.3359375 440.16796875 431.002929688 428.500976562 c 0
 415.669921875 416.833984375 402.836914062 408.000976562 392.50390625 402.000976562 c 0
 382.170898438 396.000976562 372.00390625 390.66796875 362.00390625 386.000976562 c 1
 368.670898438 366.000976562 378.670898438 340.833984375 392.00390625 310.500976562 c 0
 405.336914062 280.16796875 414.669921875 257.66796875 420.002929688 243.000976562 c 1
 422.669921875 247.000976562 426.669921875 253.16796875 432.002929688 261.500976562 c 0
 437.3359375 269.833984375 442.668945312 278.000976562 448.001953125 286.000976562 c 0
 453.334960938 294.000976562 457.66796875 300.000976562 461.000976562 304.000976562 c 0
 477.66796875 324.000976562 493.000976562 336.333984375 507.000976562 341.000976562 c 0
 512.333984375 343.000976562 517.666992188 344.000976562 523 344.000976562 c 0
 531.666992188 344.000976562 540 341.66796875 548 337.000976562 c 0
 559.4609375 330.366210938 565.19140625 319.091796875 565.19140625 303.178710938 c 0
 565.19140625 301.50390625 565.127929688 299.778320312 565.000976562 298.000976562 c 0
 565.000976562 294.000976562 564.333984375 290.000976562 563.000976562 286.000976562 c 0
 559.66796875 272.000976562 552.66796875 257.333984375 542.000976562 242.000976562 c 0
 537.333984375 235.333984375 525.333984375 222.166992188 506.000976562 202.5 c 0
 486.66796875 182.833007812 470.66796875 165.333007812 458.000976562 150 c 1
 462.000976562 138 467.16796875 121.166992188 473.500976562 99.5 c 0
 479.833984375 77.8330078125 483.666992188 65 485 61 c 0
 487.512695312 52.384765625 488.76953125 43.576171875 488.76953125 34.57421875 c 0
 488.76953125 26.8583984375 487.846679688 19 486 11 c 0
317 572.000976562 m 0
 315.333984375 564.66796875 314.5 557.000976562 314.5 549.000976562 c 0
 314.5 541.001953125 315.333984375 532.668945312 317 524.001953125 c 0
 320.333007812 506.668945312 325 491.668945312 331 479.001953125 c 1
 342.333007812 482.334960938 352.333007812 486.16796875 361 490.500976562 c 0
 369.666992188 494.833984375 378.5 500.333984375 387.5 507.000976562 c 0
 396.5 513.66796875 403.833007812 522.000976562 409.5 532.000976562 c 0
 415.166992188 542.000976562 419.666992188 554.333984375 423 569.000976562 c 0
 424.59375 576.057617188 425.390625 582.551757812 425.390625 588.481445312 c 0
 425.390625 599.916992188 422.426757812 609.256835938 416.5 616.500976562 c 0
 407.5 627.500976562 394.333007812 633.000976562 377 633.000976562 c 0
 359.666992188 633.000976562 346 627.333984375 336 616.000976562 c 0
 328 606.000976562 321.666992188 591.333984375 317 572.000976562 c 0
149 174.001953125 m 0
 146.067382812 161.203125 144.600585938 149.310546875 144.600585938 138.32421875 c 0
 144.600585938 121.842773438 147.900390625 107.40234375 154.500976562 95.001953125 c 0
 165.500976562 74.3349609375 183.000976562 64.001953125 207.000976562 64.001953125 c 0
 221.000976562 64.001953125 236.000976562 66.6689453125 252.000976562 72.001953125 c 0
 257.333984375 73.3349609375 263.500976562 76.3349609375 270.500976562 81.001953125 c 2
 287.000976562 92.001953125 l 2
 291.000976562 94.6689453125 296.000976562 99.001953125 302.000976562 105.001953125 c 0
 308.000976562 111.001953125 312.333984375 115.168945312 315.000976562 117.501953125 c 0
 317.66796875 119.834960938 321.000976562 123.501953125 325.000976562 128.501953125 c 0
 329.000976562 133.501953125 331.66796875 136.668945312 333.000976562 138.001953125 c 0
 329.000976562 158.001953125 325.000976562 176.001953125 321.000976562 192.001953125 c 0
 317.000976562 207.334960938 308.500976562 230.834960938 295.500976562 262.501953125 c 0
 282.500976562 294.168945312 273.000976562 318.001953125 267.000976562 334.001953125 c 1
 251.66796875 326.668945312 237.66796875 318.001953125 225.000976562 308.001953125 c 0
 210.333984375 296.001953125 198.166992188 283.001953125 188.5 269.001953125 c 0
 178.833007812 255.001953125 170.833007812 240.334960938 164.5 225.001953125 c 0
 158.166992188 209.668945312 153 192.668945312 149 174.001953125 c 0
EndSplineSet
Validated: 524289
EndChar

StartChar: quotesingle
Encoding: 39 39 14
Width: 590
GlyphClass: 2
Flags: W
LayerCount: 2
Fore
SplineSet
383 728 m 0
 381 719.333007812 378 705.833007812 374 687.5 c 0
 370 669.166992188 363.333007812 641.333984375 354 604.000976562 c 0
 339.333007812 546.000976562 328 506.000976562 320 484.000976562 c 0
 314 466.66796875 304 453.66796875 290 445.000976562 c 0
 278 437.66796875 266.333007812 434.000976562 255 434.000976562 c 0
 239 434.000976562 225.666992188 439.000976562 215 449.000976562 c 0
 208.466796875 455.534179688 205.200195312 463.701171875 205.200195312 473.500976562 c 0
 205.200195312 477.701171875 205.799804688 482.201171875 207 487.000976562 c 0
 207 489.000976562 207.666992188 491.000976562 209 493.000976562 c 0
 217 519.66796875 224.333007812 549.66796875 231 583.000976562 c 0
 241.666992188 630.333984375 252.333984375 680.000976562 263.000976562 732.000976562 c 1
 263.000976562 735.000976562 l 2
 265.000976562 744.333984375 269.000976562 752.666992188 275.000976562 760 c 0
 281.66796875 768.666992188 289.334960938 774.666992188 298.001953125 778 c 0
 310.001953125 782.666992188 322.001953125 785 334.001953125 785 c 0
 343.334960938 785 350.66796875 784 356.000976562 782 c 0
 361.333984375 780 366.666992188 777.333007812 372 774 c 0
 378 770 381.833007812 763.833007812 383.5 755.5 c 0
 385.166992188 747.166992188 385 738 383 728 c 0
EndSplineSet
Validated: 524289
EndChar

StartChar: parenleft
Encoding: 40 40 15
Width: 590
GlyphClass: 2
Flags: HMW
HStem: -144 109<225.005 279.668> 721 105<438.672 479.671>
LayerCount: 2
Fore
SplineSet
307 -93 m 0
 303.666992188 -107.666992188 295.671875 -119.833007812 283.004882812 -129.5 c 0
 270.337890625 -139.166992188 258.337890625 -144 247.004882812 -144 c 0
 203.004882812 -144 167.004882812 -127 139.004882812 -93 c 0
 111.004882812 -59 92.837890625 -13 84.5048828125 45 c 0
 80.8505859375 70.4375 79.0224609375 97.5419921875 79.0224609375 126.314453125 c 0
 79.0224609375 163.14453125 82.017578125 202.706054688 88.005859375 245 c 0
 90.6728515625 265.666992188 95.6728515625 291.5 103.005859375 322.5 c 0
 110.338867188 354.166992188 121.005859375 392.666992188 135.005859375 438 c 0
 159.672851562 517.333007812 187.005859375 582.333007812 217.005859375 633 c 0
 230.338867188 656.333007812 246.671875 679 266.004882812 701 c 0
 285.337890625 723 306.004882812 743.5 328.004882812 762.5 c 0
 350.004882812 781.5 373.837890625 796.833007812 399.504882812 808.5 c 0
 425.171875 820.166992188 449.004882812 826 471.004882812 826 c 0
 488.337890625 826 500.004882812 820.333007812 506.004882812 809 c 0
 508.727539062 803.944335938 510.088867188 797.75390625 510.088867188 790.428710938 c 0
 510.088867188 785.197265625 509.39453125 779.387695312 508.005859375 773 c 0
 504.005859375 755 495.672851562 741.666992188 483.005859375 733 c 0
 471.672851562 725 459.172851562 721 445.505859375 721 c 0
 431.838867188 721 417.671875 716.5 403.004882812 707.5 c 0
 388.337890625 698.5 374.337890625 685.666992188 361.004882812 669 c 0
 333.671875 637 309.671875 597.333007812 289.004882812 550 c 0
 273.004882812 514.666992188 256.671875 468 240.004882812 410 c 0
 231.337890625 379.333007812 224.170898438 351.833007812 218.50390625 327.5 c 0
 212.836914062 303.166992188 208.669921875 281.666992188 206.002929688 263 c 0
 200.860351562 228.713867188 198.2890625 195.286132812 198.2890625 162.71484375 c 0
 198.2890625 157.286132812 198.360351562 151.880859375 198.502929688 146.5 c 0
 199.502929688 108.833007812 203.669921875 76.8330078125 211.002929688 50.5 c 0
 218.3359375 24.1669921875 227.668945312 3 239.001953125 -13 c 0
 249.668945312 -27 260.668945312 -34.3330078125 272.001953125 -35 c 0
 287.334960938 -35 298.16796875 -39.3330078125 304.500976562 -48 c 0
 308.147460938 -52.990234375 309.969726562 -60.0791015625 309.969726562 -69.2666015625 c 0
 309.969726562 -76.0380859375 308.98046875 -83.94921875 307 -93 c 0
EndSplineSet
Validated: 524289
EndChar

StartChar: parenright
Encoding: 41 41 16
Width: 590
GlyphClass: 2
Flags: HMW
HStem: -144 108.998<136.333 141> 721 105<312.667 353.333>
VStem: 398 108.999
LayerCount: 2
Fore
SplineSet
119 -144 m 0
 107.666992188 -144 97.66796875 -139.169921875 89.0009765625 -129.502929688 c 0
 82.7412109375 -122.520507812 79.611328125 -114.234375 79.611328125 -104.64453125 c 0
 79.611328125 -100.95703125 80.07421875 -97.076171875 81 -93.001953125 c 0
 85.6669921875 -71.6689453125 93.5 -56.6689453125 104.5 -48.001953125 c 0
 115.5 -39.3349609375 128.666992188 -35.001953125 144 -35.001953125 c 0
 155.333007812 -35.001953125 169.666015625 -27.6689453125 186.999023438 -13.001953125 c 0
 205.666015625 2.998046875 224.666015625 24.1650390625 243.999023438 50.498046875 c 0
 263.33203125 76.8310546875 282.33203125 108.998046875 300.999023438 146.998046875 c 0
 319.666015625 184.998046875 335.333007812 223.665039062 348 262.998046875 c 0
 354 282.998046875 359.666992188 304.831054688 365 328.498046875 c 0
 370.333007812 352.165039062 376 379.33203125 382 409.999023438 c 0
 392.666992188 468.666015625 398 515.333007812 398 550 c 0
 398.033203125 552.333984375 398.049804688 554.65234375 398.049804688 556.953125 c 0
 398.049804688 600.65234375 392.033203125 638.333984375 380 670 c 0
 374 686 365.833007812 698.5 355.5 707.5 c 0
 345.166992188 716.5 333.166992188 721 319.5 721 c 0
 305.833007812 721 295 725 287 733 c 0
 281.0703125 738.9296875 278.10546875 747.043945312 278.10546875 757.342773438 c 0
 278.10546875 762.096679688 278.736328125 767.315429688 280 773 c 0
 282 783 285.666992188 792 291 800 c 0
 296.333007812 808 302.666015625 814 309.999023438 818 c 0
 319.999023438 823.333007812 330.666015625 826 341.999023438 826 c 0
 364.666015625 826 385.999023438 820.166992188 405.999023438 808.5 c 0
 425.999023438 796.833007812 442.666015625 781.5 455.999023438 762.5 c 0
 469.33203125 743.5 480.499023438 723 489.499023438 701 c 0
 498.499023438 679 504.33203125 656.333007812 506.999023438 633 c 0
 509.076171875 615.231445312 510.114257812 595.825195312 510.114257812 574.78125 c 0
 510.114257812 535.030273438 506.409179688 489.436523438 498.999023438 438 c 0
 492.33203125 392 485.33203125 353.5 477.999023438 322.5 c 0
 470.666015625 291.5 463.666015625 265.666992188 456.999023438 245 c 0
 432.999023438 169.666992188 403.33203125 103 367.999023438 45 c 0
 332.666015625 -13 293.333007812 -59 250 -93 c 0
 206.666992188 -127 163 -144 119 -144 c 0
EndSplineSet
Validated: 524289
EndChar

StartChar: asterisk
Encoding: 42 42 17
Width: 590
GlyphClass: 2
Flags: HMW
HStem: 281.001 127.999<85 121.001> 289 119.001<479.333 508.999> 294 101.001
LayerCount: 2
Fore
SplineSet
157 102 m 2x20
 147.999023438 102.000976562 l 2
 143.999023438 102.000976562 138.83203125 102.66796875 132.499023438 104.000976562 c 0
 126.166015625 105.333984375 120.333007812 108.166992188 115 112.5 c 0
 109.666992188 116.833007812 105.333984375 122.833007812 102.000976562 130.5 c 0
 98.66796875 138.166992188 97.66796875 147.333984375 99.0009765625 158.000976562 c 0
 99.0009765625 160.000976562 99.333984375 162.66796875 100.000976562 166.000976562 c 0
 102.000976562 176.66796875 107.000976562 186.66796875 115.000976562 196.000976562 c 2
 186.000976562 285.000976562 l 1
 145.333984375 282.333984375 114.666992188 281.000976562 94 281.000976562 c 0
 76 281.000976562 63 287.66796875 55 301.000976562 c 0
 50.23828125 309.572265625 47.857421875 319.1640625 47.857421875 329.775390625 c 0
 47.857421875 334.020507812 48.23828125 338.4296875 49 343.000976562 c 2
 49 346.000976562 l 2
 51.6669921875 359.333984375 58.333984375 372.666992188 69.0009765625 386 c 0
 75.0009765625 394 83.0009765625 400 93.0009765625 404 c 0
 100.333984375 407.333007812 108.333984375 409 117.000976562 409 c 2
 121.000976562 409 l 1
 122.000976562 409 l 2x80
 146.66796875 407 180.66796875 404.333007812 224.000976562 401 c 1
 211.333984375 439.666992188 200.333984375 470 191.000976562 492 c 0
 187.71875 501.026367188 186.078125 510.177734375 186.078125 519.456054688 c 0
 186.078125 525.254882812 186.71875 531.102539062 188.000976562 537 c 0
 188.66796875 539.666992188 189.66796875 542.333984375 191.000976562 545.000976562 c 0
 197.66796875 563.66796875 208.000976562 576.66796875 222.000976562 584.000976562 c 0
 231.333984375 589.333984375 241.166992188 592.000976562 251.5 592.000976562 c 0
 261.833007812 592.000976562 271.333007812 589.000976562 280 583.000976562 c 0
 289.333007812 576.333984375 295.333007812 566.333984375 298 553.000976562 c 0
 300.666992188 539.000976562 308.333984375 507.333984375 321.000976562 458.000976562 c 1
 347.66796875 492.66796875 370.000976562 524.000976562 388.000976562 552.000976562 c 0
 396.66796875 564.66796875 406.66796875 574.16796875 418.000976562 580.500976562 c 0
 429.333984375 586.833984375 439.666992188 590.000976562 449 590.000976562 c 0
 459 590.000976562 467.333007812 587.333984375 474 582.000976562 c 0
 480.666992188 578.000976562 485.5 571.333984375 488.5 562.000976562 c 0
 490.087890625 557.059570312 490.8828125 551.745117188 490.8828125 546.055664062 c 0
 490.8828125 541 490.254882812 535.647460938 489 530.000976562 c 0
 486.333007812 516.66796875 479.666015625 504.334960938 468.999023438 493.001953125 c 0
 445.666015625 466.334960938 419.999023438 433.66796875 391.999023438 395.000976562 c 1x20
 435.33203125 395.66796875 466.665039062 399.000976562 485.998046875 405.000976562 c 0
 494.665039062 407.000976562 500.33203125 408.000976562 502.999023438 408.000976562 c 0x40
 514.999023438 408.000976562 524.33203125 403.66796875 530.999023438 395.000976562 c 0x20
 538.499023438 385.500976562 542.249023438 375.4375 542.249023438 364.8125 c 0
 542.249023438 361.270507812 541.83203125 357.666992188 540.999023438 354 c 0
 537.666015625 339.333007812 530.999023438 325.333007812 520.999023438 312 c 0
 514.999023438 304 507.666015625 297.666992188 498.999023438 293 c 0
 492.999023438 290.333007812 486.999023438 289 480.999023438 289 c 0x40
 477.666015625 289 474.333007812 289.333007812 471 290 c 0
 456.333007812 292.666992188 429.333007812 294 390 294 c 2
 369 294 l 1
 400 196 l 2
 401.8515625 187.852539062 402.77734375 180.116210938 402.77734375 172.791992188 c 0
 402.77734375 166.931640625 402.184570312 161.333984375 400.999023438 156 c 0
 400.33203125 153.333007812 399.33203125 150.666015625 397.999023438 147.999023438 c 0
 392.666015625 132.666015625 383.666015625 121.333007812 370.999023438 114 c 0
 360.33203125 108 348.665039062 105 335.998046875 105 c 0
 325.998046875 105 316.665039062 107.333007812 307.998046875 112 c 0
 296.665039062 118 290.665039062 128 289.998046875 142 c 0
 288.665039062 164 282.998046875 194.666992188 272.998046875 234 c 1
 238.998046875 184.666992188 216.998046875 151.666992188 206.998046875 135 c 0
 201.665039062 124.333007812 194.33203125 116.333007812 184.999023438 111 c 0
 175.666015625 105.666992188 166.333007812 102.666992188 157 102 c 2x20
EndSplineSet
Validated: 524289
EndChar

StartChar: plus
Encoding: 43 43 18
Width: 590
GlyphClass: 2
Flags: HMW
HStem: 346 106<419.999 425.999 419.999 419.999>
LayerCount: 2
Fore
SplineSet
330 348 m 1
 308.002929688 250 l 2
 303.3359375 230.666992188 295.8359375 217 285.502929688 209 c 0
 275.169921875 201 263.336914062 196.333007812 250.00390625 195 c 2
 249.00390625 195 l 2
 234.336914062 195 223.336914062 199 216.00390625 207 c 0
 210.064453125 212.939453125 207.094726562 220.903320312 207.094726562 230.892578125 c 0
 207.094726562 236.599609375 208.064453125 242.96875 210.00390625 249.999023438 c 2
 232.00390625 344.999023438 l 1
 149.00390625 343.999023438 l 2
 130.336914062 343.999023438 117.50390625 349.33203125 110.50390625 359.999023438 c 0
 105.76171875 367.224609375 103.391601562 375.369140625 103.391601562 384.430664062 c 0
 103.391601562 388.745117188 103.928710938 393.268554688 105.00390625 398 c 0
 105.00390625 398.666992188 105.336914062 400 106.00390625 402 c 0
 109.336914062 416 116.669921875 428.333007812 128.002929688 439 c 0
 139.3359375 449.666992188 153.668945312 455 171.001953125 455 c 0
 172.334960938 455 182.16796875 454.833007812 200.500976562 454.5 c 0
 218.833984375 454.166992188 237.666992188 453.666992188 257 453 c 1
 265.666992188 492.333007812 272.333984375 525.666015625 277.000976562 552.999023438 c 0
 281.000976562 571.666015625 290.000976562 585.333007812 304.000976562 594 c 0
 314.000976562 600.666992188 326.000976562 604 340.000976562 604 c 2
 344.000976562 604 l 2
 357.333984375 604 367.666992188 600.666992188 375 594 c 0
 380.633789062 588.799804688 383.450195312 581.487304688 383.450195312 572.0625 c 0
 383.450195312 566.987304688 382.633789062 561.299804688 381 555 c 0
 381 553 380.666992188 551 380 549 c 0
 370 515 361.666992188 482.666992188 355 452 c 1
 446 452 l 2
 464 452 475.666992188 447.333007812 481 438 c 0
 484.5546875 431.778320312 486.333007812 424.51953125 486.333007812 416.223632812 c 0
 486.333007812 412.075195312 485.887695312 407.666992188 484.999023438 403 c 2
 484.999023438 402 l 2
 483.666015625 394.666992188 481.666015625 388.166992188 478.999023438 382.5 c 0
 476.33203125 376.833007812 472.665039062 371 467.998046875 365 c 0
 462.665039062 357.666992188 455.33203125 352.666992188 445.999023438 350 c 0
 439.999023438 348 433.33203125 346.666992188 425.999023438 346 c 2
 419.999023438 346 l 2
 410.666015625 346.666992188 397.333007812 347.166992188 380 347.5 c 0
 362.666992188 347.833007812 346 348 330 348 c 1
EndSplineSet
Validated: 524289
EndChar

StartChar: comma
Encoding: 44 44 19
Width: 590
GlyphClass: 2
Flags: HMW
VStem: 154.004 279.998
LayerCount: 2
Fore
SplineSet
225 -223 m 0
 213.666992188 -227 204.336914062 -228.999023438 197.00390625 -228.999023438 c 0
 189.670898438 -228.999023438 183.670898438 -227.999023438 179.00390625 -225.999023438 c 0
 171.670898438 -223.33203125 165.50390625 -218.165039062 160.50390625 -210.498046875 c 0
 155.50390625 -202.831054688 153.336914062 -193.331054688 154.00390625 -181.998046875 c 0
 154.00390625 -179.998046875 154.336914062 -177.998046875 155.00390625 -175.998046875 c 0
 157.00390625 -165.998046875 162.670898438 -155.998046875 172.00390625 -145.998046875 c 0
 188.670898438 -127.331054688 216.00390625 -84.3310546875 254.00390625 -16.998046875 c 0
 292.00390625 49.6689453125 316.336914062 96.6689453125 327.00390625 124.001953125 c 0
 332.336914062 136.001953125 340.336914062 145.501953125 351.00390625 152.501953125 c 0
 361.670898438 159.501953125 372.00390625 163.001953125 382.00390625 163.001953125 c 0
 382.670898438 163.001953125 383.670898438 163.334960938 385.00390625 164.001953125 c 0
 392.336914062 164.001953125 399.669921875 163.001953125 407.002929688 161.001953125 c 0
 418.3359375 157.001953125 426.668945312 149.334960938 432.001953125 138.001953125 c 0
 434.40234375 132.40234375 435.602539062 126.202148438 435.602539062 119.40234375 c 0
 435.602539062 114.869140625 435.068359375 110.068359375 434.001953125 105.001953125 c 0
 433.334960938 100.334960938 432.001953125 96.66796875 430.001953125 94.0009765625 c 0
 416.001953125 61.333984375 391.001953125 10.333984375 355.001953125 -58.9990234375 c 0
 318.334960938 -128.33203125 292.16796875 -171.33203125 276.500976562 -187.999023438 c 0
 260.833984375 -204.666015625 243.666992188 -216.333007812 225 -223 c 0
EndSplineSet
Validated: 524289
EndChar

StartChar: hyphen
Encoding: 45 45 20
Width: 590
GlyphClass: 2
Flags: HMW
HStem: 230.001 111.999<170.667 219.667> 234.501 109
VStem: 139 313.001<285 296.001>
LayerCount: 2
Fore
SplineSet
202 342 m 0xa0
 237.333007812 342 279.500976562 342.500976562 328.500976562 343.500976562 c 0
 377.500976562 344.500976562 405.333984375 345.000976562 412.000976562 345.000976562 c 0
 430.000976562 345.000976562 441.833984375 340.333984375 447.500976562 331.000976562 c 0
 451.354492188 324.654296875 453.28125 317.229492188 453.28125 308.724609375 c 0
 453.28125 304.72265625 452.854492188 300.481445312 452.000976562 296.000976562 c 1
 451.000976562 295.000976562 l 1
 447.66796875 279.000976562 441.66796875 266.66796875 433.000976562 258.000976562 c 0
 421.000976562 245.333984375 406.000976562 239.000976562 388.000976562 239.000976562 c 0
 380.000976562 239.000976562 348.500976562 237.500976562 293.500976562 234.500976562 c 0x60
 238.500976562 231.500976562 200.000976562 230.000976562 178.000976562 230.000976562 c 0
 163.333984375 230.000976562 152.666992188 234.000976562 146 242.000976562 c 0
 140.0703125 248.38671875 137.10546875 257.11328125 137.10546875 268.1796875 c 0
 137.10546875 273.288085938 137.736328125 278.89453125 139 285 c 0
 139 286.333007812 139.333007812 288 140 290 c 0
 144 308.666992188 152.666992188 322.666992188 166 332 c 0
 176 338.666992188 188 342 202 342 c 0xa0
EndSplineSet
Validated: 524289
EndChar

StartChar: period
Encoding: 46 46 21
Width: 590
GlyphClass: 2
Flags: HMW
HStem: -26 178.002<256 332.333 267 332.333>
VStem: 207 175.5
LayerCount: 2
Fore
SplineSet
267 -26 m 2
 245 -26 228.333007812 -18 217 -2 c 0
 208.404296875 10.6669921875 204.107421875 24.71484375 204.107421875 40.14453125 c 0
 204.107421875 47.453125 205.071289062 55.072265625 207 63.0009765625 c 0
 213 87.66796875 227 108.334960938 249 125.001953125 c 0
 273 143.001953125 296.833007812 152.001953125 320.5 152.001953125 c 0
 344.166992188 152.001953125 361.666992188 144.001953125 373 128.001953125 c 0
 381.151367188 116.680664062 385.2265625 103.514648438 385.2265625 88.5029296875 c 0
 385.2265625 81.4130859375 384.317382812 73.9130859375 382.5 66.0009765625 c 0
 376.833007812 41.333984375 364.333007812 20.6669921875 345 4 c 0
 325.666992188 -12.6669921875 303 -22.6669921875 277 -26 c 2
 267 -26 l 2
EndSplineSet
Validated: 524289
EndChar

StartChar: slash
Encoding: 47 47 22
Width: 590
GlyphClass: 2
Flags: HMW
HStem: 746 20G<571.001 581.001>
LayerCount: 2
Fore
SplineSet
29 -67 m 0
 19 -71 9.6689453125 -73.16796875 1.001953125 -73.5009765625 c 0
 -7.6650390625 -73.833984375 -14.998046875 -71.333984375 -20.998046875 -66.0009765625 c 0
 -29.53125 -59.6015625 -33.7978515625 -48.5078125 -33.7978515625 -32.7216796875 c 0
 -33.7978515625 -28.775390625 -33.53125 -24.53515625 -32.998046875 -20.0009765625 c 0
 -32.998046875 -16.66796875 -32.3310546875 -13.0009765625 -30.998046875 -9.0009765625 c 0
 -26.998046875 8.33203125 -18.998046875 24.9990234375 -6.998046875 40.9990234375 c 0
 120.334960938 200.999023438 230.66796875 342.999023438 324.000976562 466.999023438 c 0
 382.000976562 542.999023438 444.66796875 629.666015625 512.000976562 726.999023438 c 0
 520.66796875 739.666015625 531.000976562 749.333007812 543.000976562 756 c 0
 555.000976562 762.666992188 566.000976562 766 576.000976562 766 c 0
 586.000976562 766 595.333984375 763.666992188 604.000976562 759 c 0
 616.66796875 751 623.334960938 739 624.001953125 723 c 0
 624.001953125 718.333007812 623.334960938 713.333007812 622.001953125 708 c 0
 619.334960938 696.666992188 613.66796875 684.333984375 605.000976562 671.000976562 c 0
 581.000976562 636.333984375 516.333984375 552.500976562 411.000976562 419.500976562 c 0
 305.66796875 286.500976562 241.000976562 204.000976562 217.000976562 172.000976562 c 0
 202.333984375 151.333984375 178.166992188 116.333984375 144.5 67.0009765625 c 0
 110.833007812 17.66796875 90 -12.33203125 82 -22.9990234375 c 0
 66 -43.666015625 48.3330078125 -58.3330078125 29 -67 c 0
EndSplineSet
Validated: 524289
EndChar

StartChar: zero
Encoding: 48 48 23
Width: 590
GlyphClass: 2
Flags: HMW
HStem: -24 107.996<173.331 223.999> 611.997 106.003<345.666 418.333>
LayerCount: 2
Fore
SplineSet
568 491 m 0
 567.333007812 488.333007812 567.33203125 487.999023438 567.999023438 489.999023438 c 1
 561.999023438 450.666015625 554.33203125 410.666015625 544.999023438 369.999023438 c 0
 535.666015625 329.33203125 525.166015625 289.33203125 513.499023438 249.999023438 c 0
 501.83203125 210.666015625 490.665039062 179.666015625 479.998046875 156.999023438 c 0
 459.331054688 114.33203125 437.331054688 79.6650390625 413.998046875 52.998046875 c 0
 402.665039062 39.6650390625 390.33203125 28.33203125 376.999023438 18.9990234375 c 0
 363.666015625 9.666015625 350.666015625 2.3330078125 337.999023438 -3 c 0
 324.666015625 -8.3330078125 309.666015625 -13 292.999023438 -17 c 0
 276.33203125 -20.3330078125 260.165039062 -22.3330078125 244.498046875 -23 c 0
 228.831054688 -23.6669921875 210.6640625 -24 189.997070312 -24 c 0
 156.6640625 -24 126.997070312 -18.3330078125 100.997070312 -7 c 0
 76.9970703125 4.3330078125 57.9970703125 20.5 43.9970703125 41.5 c 0
 29.9970703125 62.5 21.4970703125 87.6669921875 18.4970703125 117 c 0
 17.6787109375 125 17.26953125 133.173828125 17.26953125 141.520507812 c 0
 17.26953125 163.779296875 20.1787109375 187.272460938 25.9970703125 212 c 0
 25.9970703125 214 26.330078125 216 26.9970703125 218 c 0
 34.330078125 250 41.330078125 280.666992188 47.9970703125 310 c 0
 52.6640625 330.666992188 58.8310546875 356 66.498046875 386 c 0
 74.1650390625 416 81.33203125 440.833007812 87.9990234375 460.5 c 0
 94.666015625 480.166992188 102.999023438 501.333984375 112.999023438 524.000976562 c 0
 122.999023438 547.333984375 132.999023438 567.666992188 142.999023438 585 c 0
 168.999023438 628.333007812 203.666015625 661.333007812 246.999023438 684 c 0
 293.666015625 706.666992188 345.999023438 718 403.999023438 718 c 0
 432.666015625 718 458.666015625 713.333007812 481.999023438 704 c 0
 504.666015625 694.666992188 523.333007812 680.666992188 538 662 c 0
 552.666992188 643.333007812 562.666992188 619.5 568 590.5 c 0
 570.666015625 576 572 560.458007812 572 543.875 c 0
 572 527.291015625 570.666015625 509.666015625 568 491 c 0
412.999023438 599.999023438 m 0
 400 608.046875 384.701171875 612.068359375 367.104492188 612.068359375 c 0
 365.749023438 612.068359375 364.380859375 612.044921875 362.999023438 611.997070312 c 0
 328.33203125 611.997070312 299.499023438 602.830078125 276.499023438 584.497070312 c 0
 253.499023438 566.1640625 231.666015625 534.997070312 210.999023438 490.997070312 c 0
 202.999023438 473.6640625 195.666015625 455.331054688 188.999023438 435.998046875 c 0
 182.999023438 416.665039062 177.33203125 393.998046875 171.999023438 367.998046875 c 0
 162.666015625 327.998046875 152.666015625 281.665039062 141.999023438 228.998046875 c 1
 248.666015625 339.665039062 348.666015625 453.33203125 441.999023438 569.999023438 c 1
 434.666015625 582.666015625 424.999023438 592.666015625 412.999023438 599.999023438 c 0
452.999023438 457.997070312 m 1
 355.666015625 330.6640625 252.666015625 221.99609375 143.999023438 131.99609375 c 1
 153.33203125 100.663085938 176.999023438 84.6630859375 214.999023438 83.99609375 c 0
 232.999023438 83.99609375 248.83203125 85.49609375 262.499023438 88.49609375 c 0
 276.166015625 91.49609375 289.666015625 96.3291015625 302.999023438 102.99609375 c 0
 329.666015625 116.99609375 353.666015625 143.99609375 374.999023438 183.99609375 c 0
 378.999023438 191.99609375 386.666015625 213.329101562 397.999023438 247.99609375 c 0
 409.33203125 282.663085938 420.999023438 323.330078125 432.999023438 369.997070312 c 0
 440.999023438 400.6640625 447.666015625 429.997070312 452.999023438 457.997070312 c 1
EndSplineSet
Validated: 524289
EndChar

StartChar: one
Encoding: 49 49 24
Width: 590
GlyphClass: 2
Flags: HMW
HStem: -9 111 -5 114<75.33 125.329>
LayerCount: 2
Fore
SplineSet
44 33 m 0x40
 44 38 45 43 46 49 c 0
 46 50 46 52 47 53 c 0
 50 68 57 80 66 91 c 0
 78 103 93 109 112 109 c 0x40
 139 109 185 108 250 107 c 1
 255 126 258 143 260 157 c 0
 261 163 264 180 271 208 c 0
 277 233 282 254 287 271 c 2
 315 379 l 2
 342 480 358 539 363 556 c 1
 316 526 282 507 259 499 c 0
 251 497 246 496 243 496 c 0
 232 496 221 501 212 511 c 0
 203 521 198 532 198 542 c 0
 198 545 199 548 200 552 c 0
 203 565 208 577 216 587 c 0
 224 597 235 607 249 616 c 0
 270 630 297 649 332 672 c 1
 344 674 358 683 373 699 c 0
 385 707 398 714 411 721 c 0
 423 727 433 730 442 730 c 2
 445 730 l 2
 462 730 478 723 493 710 c 0
 501 703 506 696 509 690 c 0
 510 688 511 686 511 683 c 0
 511 672 503 643 468 514 c 0
 444 424 430 371 426 356 c 0
 411 294 400 242 391 200 c 2
 391 200 390 198 390 195 c 0
 385 173 379 142 371 103 c 1
 404 102 425 102 434 102 c 2
 469 102 l 2
 484 102 493 101 497 101 c 0
 518 101 531 97 538 87 c 0
 543 80 545 71 545 62 c 0
 545 58 545 54 544 50 c 0
 544 49 544 48 543 47 c 0
 540 32 532 19 521 8 c 0
 509 -3 492 -9 471 -9 c 0x80
 236 -7 107 -6 84 -5 c 0
 67 -5 55 0 49 11 c 0
 46 18 44 25 44 33 c 0x40
EndSplineSet
Validated: 1
EndChar

StartChar: two
Encoding: 50 50 25
Width: 590
GlyphClass: 2
Flags: HMW
HStem: -20.0059 113.005 -12.0059 113.006<426 426 426 431.994> 506.997 21G<177.659 180.992> 612.996 109.001<384.662 393.994>
LayerCount: 2
Fore
SplineSet
426 101 m 1x70
 426.993164062 100.993164062 l 1
 435.66015625 109.66015625 441.993164062 109.993164062 445.993164062 101.993164062 c 0
 447.993164062 101.993164062 451.66015625 101.826171875 456.993164062 101.493164062 c 0
 462.326171875 101.16015625 466.326171875 100.16015625 468.993164062 98.4931640625 c 0
 471.66015625 96.826171875 474.327148438 94.9931640625 476.994140625 92.9931640625 c 0
 480.994140625 90.326171875 483.661132812 86.326171875 484.994140625 80.9931640625 c 0
 486.327148438 72.9931640625 485.994140625 63.66015625 483.994140625 52.9931640625 c 0
 479.327148438 33.66015625 470.994140625 17.3271484375 458.994140625 3.994140625 c 0
 448.994140625 -6.6728515625 437.994140625 -12.005859375 425.994140625 -12.005859375 c 0x70
 382.661132812 -12.005859375 311.661132812 -14.005859375 212.994140625 -18.005859375 c 0
 179.661132812 -19.3388671875 145.661132812 -20.005859375 110.994140625 -20.005859375 c 0
 78.994140625 -20.005859375 53.994140625 -18.6728515625 35.994140625 -16.005859375 c 0
 25.994140625 -14.6728515625 18.3271484375 -10.33984375 12.994140625 -3.0068359375 c 0
 8.994140625 2.326171875 6.3271484375 9.326171875 4.994140625 17.9931640625 c 0
 4.5498046875 21.8447265625 4.3271484375 26.0263671875 4.3271484375 30.5361328125 c 0
 4.3271484375 46.322265625 7.0498046875 66.140625 12.494140625 89.9931640625 c 0
 19.494140625 120.66015625 32.6611328125 151.493164062 51.994140625 182.493164062 c 0
 71.3271484375 213.493164062 95.994140625 243.66015625 125.994140625 272.993164062 c 0
 155.994140625 302.326171875 189.661132812 325.993164062 226.994140625 343.993164062 c 0
 308.327148438 382.66015625 360.994140625 409.327148438 384.994140625 423.994140625 c 0
 414.994140625 442.661132812 435.661132812 462.328125 446.994140625 482.995117188 c 0
 453.661132812 495.662109375 458.994140625 511.329101562 462.994140625 529.99609375 c 0
 465.14453125 539.458007812 466.219726562 548.053710938 466.219726562 555.78125 c 0
 466.219726562 572.010742188 461.477539062 584.415039062 451.994140625 592.99609375 c 0
 437.327148438 606.329101562 411.994140625 612.99609375 375.994140625 612.99609375 c 0
 351.994140625 612.99609375 327.161132812 605.663085938 301.494140625 590.99609375 c 0
 275.827148438 576.329101562 254.66015625 559.99609375 237.993164062 541.99609375 c 0
 229.326171875 532.663085938 221.159179688 524.830078125 213.4921875 518.497070312 c 0
 205.825195312 512.1640625 197.9921875 508.6640625 189.9921875 507.997070312 c 0
 187.9921875 507.997070312 184.9921875 507.6640625 180.9921875 506.997070312 c 0
 174.325195312 506.997070312 165.325195312 510.330078125 153.9921875 516.997070312 c 0
 141.9921875 524.997070312 135.659179688 536.330078125 134.9921875 550.997070312 c 0
 134.9921875 554.330078125 135.325195312 557.997070312 135.9921875 561.997070312 c 0
 138.659179688 573.997070312 145.326171875 587.6640625 155.993164062 602.997070312 c 0
 165.993164062 616.997070312 178.993164062 630.830078125 194.993164062 644.497070312 c 0
 210.993164062 658.1640625 228.993164062 670.997070312 248.993164062 682.997070312 c 0
 269.66015625 694.997070312 293.327148438 704.497070312 319.994140625 711.497070312 c 0
 346.661132812 718.497070312 372.328125 721.997070312 396.995117188 721.997070312 c 0
 473.662109375 721.997070312 526.995117188 704.997070312 556.995117188 670.997070312 c 0
 575.975585938 648.997070312 585.465820312 619.87890625 585.465820312 583.643554688 c 0
 585.465820312 563.87890625 582.642578125 541.997070312 576.995117188 517.997070312 c 0
 563.662109375 462.6640625 539.329101562 417.331054688 503.99609375 381.998046875 c 0
 477.99609375 357.331054688 434.663085938 330.331054688 373.99609375 300.998046875 c 0
 358.663085938 293.665039062 332.330078125 281.665039062 294.997070312 264.998046875 c 0
 263.6640625 250.998046875 236.331054688 233.831054688 212.998046875 213.498046875 c 0
 189.665039062 193.165039062 171.33203125 172.33203125 157.999023438 150.999023438 c 0
 146.666015625 132.999023438 137.666015625 113.666015625 130.999023438 92.9990234375 c 1xb0
 166.999023438 91.666015625 201.33203125 90.8330078125 233.999023438 90.5 c 0
 240.528320312 90.43359375 246.778320312 90.400390625 252.749023438 90.400390625 c 0
 276.647460938 90.400390625 296.064453125 90.93359375 311 92 c 0
 329 93.3330078125 367.333007812 96.3330078125 426 101 c 1x70
EndSplineSet
Validated: 524289
EndChar

StartChar: three
Encoding: 51 51 26
Width: 590
GlyphClass: 2
Flags: HMW
HStem: -23.998 107.998<195.331 255.667> 306 125<243 248.666> 521.001 21G<178.334 185.001> 613 109.001<342.002 410.001>
VStem: 446.001 115<522.002 538.333>
LayerCount: 2
Fore
SplineSet
515 279.5 m 0
 515.4609375 274.501953125 515.692382812 269.318359375 515.692382812 263.948242188 c 0
 515.692382812 246.037109375 513.125976562 226.055664062 507.997070312 204.000976562 c 0
 491.997070312 134.000976562 458.330078125 78.333984375 406.997070312 37.0009765625 c 0
 355.823242188 -3.67578125 290.767578125 -24.013671875 211.829101562 -24.013671875 c 0
 210.555664062 -24.013671875 209.278320312 -24.0087890625 207.997070312 -23.998046875 c 0
 182.6640625 -23.998046875 158.331054688 -20.3310546875 134.998046875 -12.998046875 c 0
 111.665039062 -5.6650390625 92.83203125 3.66796875 78.4990234375 15.0009765625 c 0
 64.166015625 26.333984375 52.3330078125 39.0009765625 43 53.0009765625 c 0
 33 67.0009765625 26.3330078125 80.833984375 23 94.5009765625 c 0
 21.1484375 102.092773438 20.22265625 109.427734375 20.22265625 116.504882812 c 0
 20.22265625 122.16796875 20.8154296875 127.666992188 22.0009765625 133.000976562 c 0
 22.66796875 137.000976562 24.0009765625 141.000976562 26.0009765625 145.000976562 c 0
 32.66796875 161.000976562 43.66796875 172.66796875 59.0009765625 180.000976562 c 0
 70.333984375 185.333984375 80.333984375 188 89.0009765625 188 c 0
 107.66796875 188 122.000976562 177.333984375 132.000976562 156.000976562 c 0
 141.333984375 137.333984375 155.166992188 120.666992188 173.5 106 c 0
 191.833007812 91.3330078125 213 84 237 84 c 0
 274.333007812 84 307.166015625 93.8330078125 335.499023438 113.5 c 0
 363.83203125 133.166992188 381.665039062 158 388.998046875 188 c 0
 391.720703125 199.278320312 393.08203125 209.592773438 393.08203125 218.942382812 c 0
 393.08203125 225.620117188 392.387695312 231.805664062 390.999023438 237.5 c 0
 387.666015625 251.166992188 380.499023438 263.166992188 369.499023438 273.5 c 0
 358.499023438 283.833007812 341.499023438 291.833007812 318.499023438 297.5 c 0
 295.499023438 303.166992188 266.33203125 306 230.999023438 306 c 0
 213.666015625 306 200.333007812 312.666992188 191 326 c 0
 184.466796875 335.333007812 181.200195312 345.483398438 181.200195312 356.450195312 c 0
 181.200195312 361.150390625 181.799804688 366 183 371 c 0
 187 387.666992188 194.666992188 401.666992188 206 413 c 0
 218.666992188 425 234 431 252 431 c 0
 306.666992188 431 351.333984375 440.666992188 386.000976562 460 c 0
 418.000976562 478 438.000976562 504 446.000976562 538 c 0
 446.000976562 538.609375 446.278320312 539.495117188 446.834960938 540.66015625 c 0
 446.884765625 541.064453125 446.939453125 541.510742188 447.000976562 541.999023438 c 0
 447.000976562 543.33203125 447.333984375 544.33203125 448.000976562 544.999023438 c 0
 449.376953125 550.848632812 450.065429688 556.297851562 450.065429688 561.348632812 c 0
 450.065429688 575.868164062 444.376953125 587.0859375 433.000976562 595 c 0
 416.53515625 607.033203125 390.141601562 613.049804688 353.822265625 613.049804688 c 0
 351.909179688 613.049804688 349.969726562 613.033203125 348.001953125 613 c 0
 336.001953125 613 323.001953125 611 309.001953125 607 c 0
 305.001953125 605.666992188 300.001953125 603.166992188 294.001953125 599.5 c 0
 288.001953125 595.833007812 283.334960938 592.833007812 280.001953125 590.5 c 0
 276.668945312 588.166992188 272.001953125 584.333984375 266.001953125 579.000976562 c 0
 260.001953125 573.66796875 256.001953125 569.66796875 254.001953125 567.000976562 c 0
 247.334960938 553.66796875 242.66796875 549.000976562 240.000976562 553.000976562 c 1
 224.000976562 536.333984375 209.000976562 526.000976562 195.000976562 522.000976562 c 0
 191.000976562 521.333984375 187 521.000976562 183 521.000976562 c 0
 173.666992188 521.000976562 164.334960938 523.66796875 155.001953125 529.000976562 c 0
 144.202148438 535.600585938 138.801757812 545.7109375 138.801757812 559.33203125 c 0
 138.801757812 559.499023438 138.856445312 569.130859375 140.001953125 576.000976562 c 0
 142.668945312 588.000976562 149.001953125 601.000976562 159.001953125 615.000976562 c 0
 179.001953125 643.000976562 204.668945312 667.333984375 236.001953125 688.000976562 c 0
 252.668945312 698.66796875 272.668945312 707.000976562 296.001953125 713.000976562 c 0
 319.334960938 719.000976562 343.66796875 722.000976562 369.000976562 722.000976562 c 0
 451.000976562 722.000976562 507.66796875 705.66796875 539.000976562 673.000976562 c 0
 559.455078125 650.728515625 569.682617188 621.482421875 569.682617188 585.262695312 c 0
 569.682617188 568.360351562 567.455078125 549.939453125 563.000976562 530 c 0
 563.000976562 528.666992188 562.66796875 527.333984375 562.000976562 526.000976562 c 0
 561.333984375 524.66796875 561.000976562 523.333984375 561.000976562 522.000976562 c 0
 557.000976562 503.333984375 550.500976562 486.001953125 541.500976562 470.001953125 c 0
 532.500976562 454.001953125 522.16796875 440.334960938 510.500976562 429.001953125 c 0
 498.833984375 417.668945312 485.833984375 407.668945312 471.500976562 399.001953125 c 0
 457.16796875 390.334960938 442.66796875 383.66796875 428.000976562 379.000976562 c 1
 437.333984375 375.66796875 445.666992188 372.334960938 453 369.001953125 c 0
 469.666992188 360.334960938 483.666992188 348.66796875 495 334.000976562 c 0
 506.333007812 319.333984375 513 301.166992188 515 279.5 c 0
EndSplineSet
Validated: 524289
EndChar

StartChar: four
Encoding: 52 52 27
Width: 590
GlyphClass: 2
Flags: HMW
HStem: -23.001 21G<344.334 359.001> 218.998 90.002<306 307.001 307.001 349.001>
LayerCount: 2
Fore
SplineSet
306 309 m 2
 368.999023438 309 l 1
 395.666015625 424.333007812 415.333007812 517.666015625 428 588.999023438 c 1
 312.666992188 469.666015625 230 375.333007812 180 306 c 1
 214.666992188 308 256.666992188 309 306 309 c 2
410.999023438 60 m 0
 410.999023438 52 410.000976562 44.33203125 408.000976562 36.9990234375 c 0
 405.333984375 23.666015625 400.333984375 11.9990234375 393.000976562 1.9990234375 c 0
 381.000976562 -14.66796875 367.000976562 -23.0009765625 351.000976562 -23.0009765625 c 0
 337.66796875 -23.0009765625 326.000976562 -17.833984375 316.000976562 -7.5009765625 c 0
 307.66796875 1.109375 303.500976562 10.068359375 303.500976562 19.373046875 c 0
 303.500976562 21.234375 303.66796875 23.109375 304.000976562 24.998046875 c 0
 305.333984375 32.998046875 308.000976562 45.6650390625 312.000976562 62.998046875 c 2
 330.000976562 138.998046875 l 2
 336.66796875 166.331054688 343.000976562 192.998046875 349.000976562 218.998046875 c 1
 307.000976562 218.998046875 l 2
 215.000976562 218.998046875 149.000976562 214.665039062 109.000976562 205.998046875 c 0
 104.333984375 205.331054688 99.5009765625 204.998046875 94.5009765625 204.998046875 c 0
 89.5009765625 204.998046875 85.0009765625 205.998046875 81.0009765625 207.998046875 c 0
 73.0009765625 211.331054688 67.16796875 216.331054688 63.5009765625 222.998046875 c 0
 59.833984375 229.665039062 57.6669921875 237.498046875 57 246.498046875 c 0
 56.3330078125 255.498046875 57 264.665039062 59 273.998046875 c 0
 61.6669921875 284.665039062 65.6669921875 294.665039062 71 303.998046875 c 0
 81.6669921875 323.331054688 105.5 353.831054688 142.5 395.498046875 c 0
 179.5 437.165039062 227.333007812 488.998046875 286 550.998046875 c 0
 338 605.665039062 380 650.665039062 412 685.998046875 c 0
 424 698.665039062 436.333007812 708.33203125 449 714.999023438 c 0
 461.666992188 721.666015625 473 724.999023438 483 724.999023438 c 0
 486.333007812 724.999023438 488.666015625 725.33203125 489.999023438 725.999023438 c 0
 501.33203125 725.999023438 510.999023438 723.33203125 518.999023438 717.999023438 c 0
 528.374023438 711.749023438 533.061523438 701.397460938 533.061523438 686.9453125 c 0
 533.061523438 682.481445312 532.088867188 654.850585938 517.499023438 576.5 c 0
 508.499023438 528.166992188 500.33203125 487.666992188 492.999023438 455 c 0
 482.33203125 405.666992188 471.999023438 356.666992188 461.999023438 308 c 1
 471.33203125 308 481.665039062 307.666992188 492.998046875 307 c 0
 508.998046875 307 519.331054688 303.166992188 523.998046875 295.5 c 0
 528.665039062 287.833007812 529.665039062 278 526.998046875 266 c 0
 523.665039062 252 518.33203125 240.666992188 510.999023438 232 c 0
 500.999023438 222 487.999023438 217 471.999023438 217 c 0
 461.33203125 217 451.33203125 217.333007812 441.999023438 218 c 1
 421.33203125 126 410.999023438 73.3330078125 410.999023438 60 c 0
EndSplineSet
Validated: 524289
EndChar

StartChar: five
Encoding: 53 53 28
Width: 590
GlyphClass: 2
Flags: HMW
HStem: -18.002 109.001<180.999 209> 407.998 112.999<322 397.999> 594.998 112.999<531.331 570.994> 605.998 103.999
LayerCount: 2
Fore
SplineSet
109 561 m 0xd0
 115 581.666992188 119.328125 596.997070312 121.995117188 606.997070312 c 1
 119.995117188 612.997070312 118.995117188 619.497070312 118.995117188 626.497070312 c 0
 118.995117188 633.497070312 119.995117188 640.997070312 121.995117188 648.997070312 c 0
 126.662109375 670.330078125 136.662109375 686.997070312 151.995117188 698.997070312 c 0
 162.662109375 707.6640625 173.995117188 711.997070312 185.995117188 711.997070312 c 0
 209.328125 711.997070312 266.661132812 711.330078125 357.994140625 709.997070312 c 0xd0
 451.327148438 708.6640625 520.327148438 707.997070312 564.994140625 707.997070312 c 0
 576.994140625 707.997070312 585.327148438 702.6640625 589.994140625 691.997070312 c 0
 593.369140625 684.497070312 595.056640625 676.047851562 595.056640625 666.649414062 c 0
 595.056640625 659.33984375 594.036132812 651.456054688 591.994140625 642.998046875 c 0
 587.327148438 623.665039062 578.994140625 610.665039062 566.994140625 603.998046875 c 0
 563.661132812 601.998046875 560.328125 600.165039062 556.995117188 598.498046875 c 0
 553.662109375 596.831054688 549.329101562 595.831054688 543.99609375 595.498046875 c 0
 538.663085938 595.165039062 534.830078125 594.998046875 532.497070312 594.998046875 c 0xe0
 530.1640625 594.998046875 526.831054688 595.165039062 522.498046875 595.498046875 c 0
 518.165039062 595.831054688 515.33203125 595.998046875 513.999023438 595.998046875 c 0
 505.33203125 595.998046875 489.33203125 597.331054688 465.999023438 599.998046875 c 0
 441.999023438 601.998046875 420.666015625 603.498046875 401.999023438 604.498046875 c 0
 383.33203125 605.498046875 357.999023438 605.998046875 325.999023438 605.998046875 c 0
 293.999023438 605.998046875 261.666015625 604.998046875 228.999023438 602.998046875 c 1
 214.999023438 552.998046875 206.666015625 522.998046875 203.999023438 512.998046875 c 0
 201.33203125 500.998046875 199.33203125 492.331054688 197.999023438 486.998046875 c 0
 196.666015625 481.665039062 194.999023438 474.665039062 192.999023438 465.998046875 c 1
 212.999023438 479.331054688 235.999023438 490.6640625 261.999023438 499.997070312 c 0
 299.33203125 513.997070312 339.33203125 520.997070312 381.999023438 520.997070312 c 0
 413.999023438 520.997070312 441.33203125 515.330078125 463.999023438 503.997070312 c 0
 484.666015625 491.997070312 500.499023438 475.997070312 511.499023438 455.997070312 c 0
 522.499023438 435.997070312 528.999023438 412.830078125 530.999023438 386.497070312 c 0
 531.427734375 380.854492188 531.641601562 375.112304688 531.641601562 369.271484375 c 0
 531.641601562 347.850585938 528.760742188 325.092773438 522.999023438 300.997070312 c 0
 511.666015625 251.6640625 495.333007812 206.831054688 474 166.498046875 c 0
 452.666992188 126.165039062 428 92.498046875 400 65.498046875 c 0
 372 38.498046875 340 17.6650390625 304 2.998046875 c 0
 267.333007812 -11.001953125 229 -18.001953125 189 -18.001953125 c 0
 158.333007812 -18.001953125 130.666015625 -14.6689453125 105.999023438 -8.001953125 c 0
 81.33203125 -1.3349609375 61.9990234375 7.33203125 47.9990234375 17.9990234375 c 0
 33.9990234375 28.666015625 22.9990234375 40.3330078125 14.9990234375 53 c 0
 6.9990234375 65.6669921875 0.9990234375 79 -3.0009765625 93 c 0
 -4.333984375 100.666015625 -5.0009765625 107.916015625 -5.0009765625 114.75 c 0
 -5.0009765625 121.583007812 -4.333984375 128 -3.0009765625 134 c 0
 -2.333984375 138 -1.333984375 142 -0.0009765625 146 c 0
 6.666015625 160.666992188 17.9990234375 172 33.9990234375 180 c 0
 42.666015625 183.333007812 49.4990234375 185.666015625 54.4990234375 186.999023438 c 0
 59.4990234375 188.33203125 63.4990234375 188.999023438 66.4990234375 188.999023438 c 0
 69.4990234375 188.999023438 72.33203125 188.666015625 74.9990234375 187.999023438 c 0
 82.9990234375 187.33203125 89.33203125 183.665039062 93.9990234375 176.998046875 c 0
 97.9990234375 171.665039062 102.33203125 164.33203125 106.999023438 154.999023438 c 0
 124.999023438 112.33203125 157.499023438 90.9990234375 204.499023438 90.9990234375 c 0
 251.499023438 90.9990234375 292.666015625 108.33203125 327.999023438 142.999023438 c 0
 364.666015625 178.999023438 390.333007812 227.666015625 405 288.999023438 c 0
 408.520507812 304.166015625 410.28125 318.01171875 410.28125 330.538085938 c 0
 410.28125 348.844726562 406.520507812 364.33203125 399 376.998046875 c 0
 387 397.665039062 364 407.998046875 330 407.998046875 c 0
 314 407.998046875 296.666992188 405.998046875 278 401.998046875 c 0
 268.666992188 399.998046875 255.333984375 395.331054688 238.000976562 387.998046875 c 0
 234.000976562 386.665039062 228.500976562 383.498046875 221.500976562 378.498046875 c 0
 214.500976562 373.498046875 209.66796875 369.998046875 207.000976562 367.998046875 c 0
 194.333984375 358.665039062 184.000976562 350.665039062 176.000976562 343.998046875 c 0
 158.66796875 331.331054688 140.66796875 323.998046875 122.000976562 321.998046875 c 2
 115.000976562 321.998046875 l 2
 106.333984375 321.998046875 98.0009765625 323.998046875 90.0009765625 327.998046875 c 0
 78.0009765625 333.998046875 71.333984375 346.665039062 70.0009765625 365.998046875 c 0
 69.66796875 370.165039062 69.5009765625 374.581054688 69.5009765625 379.248046875 c 0
 69.5009765625 393.248046875 71.0009765625 409.498046875 74.0009765625 427.999023438 c 0
 76.0009765625 438.666015625 78.333984375 449.333007812 81.0009765625 460 c 0
 86.333984375 483.333007812 95.6669921875 517 109 561 c 0xd0
EndSplineSet
Validated: 524289
EndChar

StartChar: six
Encoding: 54 54 29
Width: 590
GlyphClass: 2
Flags: HMW
HStem: -22.0029 108<202.333 250> 379.997 114.001<315.999 401.333>
LayerCount: 2
Fore
SplineSet
545 361 m 0
 545.352539062 355.471679688 545.529296875 349.787109375 545.529296875 343.948242188 c 0
 545.529296875 316.689453125 541.685546875 286.038085938 533.999023438 251.998046875 c 0
 525.33203125 213.998046875 510.999023438 178.331054688 490.999023438 144.998046875 c 0
 450.999023438 76.3310546875 397.666015625 27.6640625 330.999023438 -1.0029296875 c 0
 295.666015625 -15.0029296875 259.999023438 -22.0029296875 223.999023438 -22.0029296875 c 0
 180.666015625 -22.0029296875 144.333007812 -14.0029296875 115 1.9970703125 c 0
 87 17.9970703125 67 41.1640625 55 71.4970703125 c 0
 43.32421875 101.010742188 37.486328125 134.943359375 37.486328125 173.293945312 c 0
 37.486328125 204.677734375 40.916015625 248.9375 54 306.997070312 c 0
 68 366.997070312 85.6669921875 420.497070312 107 467.497070312 c 0
 128.333007812 514.497070312 152 553.830078125 178 585.497070312 c 0
 204 617.1640625 233.333007812 643.997070312 266 665.997070312 c 0
 300.666992188 687.997070312 336.166992188 704.497070312 372.5 715.497070312 c 0
 408.833007812 726.497070312 448 733.6640625 490 736.997070312 c 2
 500 736.997070312 l 2
 514 736.997070312 525.666992188 734.330078125 535 728.997070312 c 0
 546.4609375 722.362304688 552.19140625 712.1796875 552.19140625 698.44921875 c 0
 552.19140625 695.75390625 552.19140625 692.376953125 551.000976562 689.998046875 c 0
 549.000976562 679.998046875 542.000976562 669.665039062 530.000976562 658.998046875 c 0
 517.333984375 648.331054688 504.333984375 641.331054688 491.000976562 637.998046875 c 0
 483.000976562 635.998046875 470.833984375 633.331054688 454.500976562 629.998046875 c 0
 438.16796875 626.665039062 424.500976562 623.665039062 413.500976562 620.998046875 c 0
 402.500976562 618.331054688 389.333984375 614.331054688 374.000976562 608.998046875 c 0
 344.66796875 598.331054688 312.66796875 577.998046875 278.000976562 547.998046875 c 0
 260.66796875 531.998046875 242.334960938 510.331054688 223.001953125 482.998046875 c 0
 214.334960938 468.998046875 206.66796875 455.998046875 200.000976562 443.998046875 c 1
 219.333984375 456.665039062 240.666992188 466.665039062 264 473.998046875 c 0
 302 487.331054688 342.333007812 493.998046875 385 493.998046875 c 0
 417.666992188 493.998046875 446 489.331054688 470 479.998046875 c 0
 492 470.665039062 509.5 456.33203125 522.5 436.999023438 c 0
 535.5 417.666015625 543 392.333007812 545 361 c 0
204.999023438 94.9970703125 m 0
 217.666015625 88.9970703125 232 85.9970703125 248 85.9970703125 c 2
 250 85.9970703125 l 1
 251 85.9970703125 l 2
 273 85.9970703125 296 93.6640625 320 108.997070312 c 0
 344 124.330078125 364.833007812 143.997070312 382.5 167.997070312 c 0
 400.166992188 191.997070312 411.666992188 215.997070312 417 239.997070312 c 0
 422.92578125 265.181640625 425.888671875 286.6796875 425.888671875 304.490234375 c 0
 425.888671875 326.75390625 421.258789062 343.255859375 411.999023438 353.997070312 c 0
 403.999023438 363.997070312 393.83203125 370.830078125 381.499023438 374.497070312 c 0
 369.166015625 378.1640625 352.666015625 379.997070312 331.999023438 379.997070312 c 0
 299.999023438 379.997070312 268.666015625 372.330078125 237.999023438 356.997070312 c 0
 207.33203125 341.6640625 180.999023438 322.6640625 158.999023438 299.997070312 c 1
 152.999023438 274.6640625 148.666015625 253.6640625 145.999023438 236.997070312 c 0
 144.798828125 228.59765625 144.19921875 220.2578125 144.19921875 211.977539062 c 0
 144.19921875 192.657226562 147.465820312 173.6640625 153.999023438 154.997070312 c 0
 158.666015625 140.997070312 165.166015625 128.997070312 173.499023438 118.997070312 c 0
 181.83203125 108.997070312 192.33203125 100.997070312 204.999023438 94.9970703125 c 0
EndSplineSet
Validated: 524289
EndChar

StartChar: seven
Encoding: 55 55 30
Width: 590
GlyphClass: 2
Flags: HMW
HStem: -22.999 21G<31.3335 38.6665> 601 113.002<297.666 353.333 297.666 445>
LayerCount: 2
Fore
SplineSet
271 601 m 0
 209.666992188 599.666992188 169.66796875 596.670898438 151.000976562 592.00390625 c 0
 147.000976562 591.336914062 142.66796875 590.836914062 138.000976562 590.50390625 c 0
 133.333984375 590.170898438 128.666992188 591.00390625 124 593.00390625 c 0
 116.666992188 596.336914062 111.666992188 601.336914062 109 608.00390625 c 0
 105.12109375 616.731445312 103.181640625 626.340820312 103.181640625 636.831054688 c 0
 103.181640625 640.764648438 103.454101562 644.822265625 104 649.00390625 c 1
 102.666992188 642.336914062 102.666992188 642.669921875 104 650.002929688 c 0
 107.333007812 664.002929688 113.666015625 675.669921875 122.999023438 685.002929688 c 0
 132.999023438 694.3359375 147.33203125 700.668945312 165.999023438 704.001953125 c 0
 201.33203125 710.668945312 258.33203125 714.001953125 336.999023438 714.001953125 c 0
 369.666015625 714.001953125 413.666015625 712.668945312 468.999023438 710.001953125 c 0
 521.666015625 708.001953125 548.999023438 707.001953125 550.999023438 707.001953125 c 0
 558.999023438 707.001953125 566.666015625 705.168945312 573.999023438 701.501953125 c 0
 581.33203125 697.834960938 587.33203125 692.001953125 591.999023438 684.001953125 c 0
 595.28125 678.66796875 596.921875 672.325195312 596.921875 664.971679688 c 0
 596.921875 660.375976562 596.28125 655.38671875 594.999023438 650.001953125 c 0
 592.33203125 638.001953125 585.999023438 624.668945312 575.999023438 610.001953125 c 0
 561.999023438 590.001953125 539.166015625 560.501953125 507.499023438 521.501953125 c 0
 475.83203125 482.501953125 442.665039062 442.668945312 407.998046875 402.001953125 c 0
 371.998046875 361.334960938 326.998046875 307.16796875 272.998046875 239.500976562 c 0
 218.998046875 171.833984375 166.665039062 102.666992188 115.998046875 32 c 0
 102.665039062 12.6669921875 87.33203125 -1.666015625 69.9990234375 -10.9990234375 c 0
 56.666015625 -18.9990234375 44.3330078125 -22.9990234375 33 -22.9990234375 c 0
 29.6669921875 -22.9990234375 26.333984375 -22.666015625 23.0009765625 -21.9990234375 c 0
 7.0009765625 -17.9990234375 -2.666015625 -7.9990234375 -5.9990234375 8.0009765625 c 0
 -7.33203125 15.333984375 -6.9990234375 23.1669921875 -4.9990234375 31.5 c 0
 -2.9990234375 39.8330078125 1.0009765625 49 7.0009765625 59 c 0
 54.333984375 125.666992188 104.666992188 192 158 258 c 0
 212.666992188 324 257.5 376.5 292.5 415.5 c 0
 327.5 454.5 358.5 490.166992188 385.5 522.5 c 0
 412.5 554.833007812 432.333007812 581 445 601 c 1
 418.666015625 601.666015625 391 602 362 602 c 0
 333 602 302.666015625 601.666015625 271 601 c 0
EndSplineSet
Validated: 524289
EndChar

StartChar: eight
Encoding: 56 56 31
Width: 590
GlyphClass: 2
Flags: HMW
HStem: -28.0039 110.002<232.672 233.005> 621.996 96.0029<352.672 402.337 367.006 402.337>
VStem: 421.007 111.998
LayerCount: 2
Fore
SplineSet
538 246 m 0
 537.333007812 234 535.671875 221.329101562 533.004882812 207.99609375 c 0
 528.337890625 185.99609375 520.504882812 164.329101562 509.504882812 142.99609375 c 0
 498.504882812 121.663085938 484.004882812 100.49609375 466.004882812 79.49609375 c 0
 448.004882812 58.49609375 428.004882812 40.3291015625 406.004882812 24.99609375 c 0
 383.337890625 9.6630859375 355.004882812 -3.00390625 321.004882812 -13.00390625 c 0
 287.004882812 -23.00390625 251.504882812 -28.00390625 214.504882812 -28.00390625 c 0
 177.504882812 -28.00390625 145.671875 -23.3369140625 119.004882812 -14.00390625 c 0
 93.0048828125 -4.6708984375 73.171875 7.49609375 59.5048828125 22.49609375 c 0
 45.837890625 37.49609375 35.6708984375 55.1630859375 29.00390625 75.49609375 c 0
 22.654296875 94.861328125 19.4794921875 114.37890625 19.4794921875 134.047851562 c 0
 19.4794921875 151.06640625 21.50390625 174.37890625 28.001953125 201.997070312 c 0
 33.3349609375 224.6640625 44.66796875 249.1640625 62.0009765625 275.497070312 c 0
 79.333984375 301.830078125 101.000976562 326.330078125 127.000976562 348.997070312 c 0
 145.66796875 364.997070312 165.000976562 377.6640625 185.000976562 386.997070312 c 1
 163.66796875 401.6640625 148.000976562 419.997070312 138.000976562 441.997070312 c 0
 129.112304688 460.663085938 124.66796875 479.625976562 124.66796875 498.884765625 c 0
 124.66796875 508.514648438 125.779296875 518.21875 128.001953125 527.997070312 c 0
 130.001953125 536.6640625 132.834960938 545.6640625 136.501953125 554.997070312 c 0
 140.168945312 564.330078125 145.3359375 575.330078125 152.002929688 587.997070312 c 0
 158.669921875 600.6640625 166.336914062 612.831054688 175.00390625 624.498046875 c 0
 183.670898438 636.165039062 194.837890625 647.83203125 208.504882812 659.499023438 c 0
 222.171875 671.166015625 237.004882812 680.999023438 253.004882812 688.999023438 c 0
 270.337890625 697.666015625 290.670898438 704.666015625 314.00390625 709.999023438 c 0
 337.336914062 715.33203125 362.336914062 717.999023438 389.00390625 717.999023438 c 0
 415.670898438 717.999023438 439.670898438 715.33203125 461.00390625 709.999023438 c 0
 482.336914062 704.666015625 499.669921875 697.666015625 513.002929688 688.999023438 c 0
 526.3359375 680.33203125 537.168945312 670.33203125 545.501953125 658.999023438 c 0
 553.834960938 647.666015625 559.66796875 636.166015625 563.000976562 624.499023438 c 0
 566.333984375 612.83203125 568.500976562 600.499023438 569.500976562 587.499023438 c 0
 570.000976562 580.999023438 570.250976562 574.916015625 570.250976562 569.249023438 c 0
 570.250976562 563.58203125 570.000976562 558.33203125 569.500976562 553.499023438 c 0
 568.500976562 543.83203125 566.833984375 534.33203125 564.500976562 524.999023438 c 0
 562.16796875 515.666015625 559.000976562 506.833007812 555.000976562 498.5 c 0
 551.000976562 490.166992188 546.66796875 482.666992188 542.000976562 476 c 0
 537.333984375 469.333007812 531.500976562 462.5 524.500976562 455.5 c 0
 517.500976562 448.5 511.16796875 442.666992188 505.500976562 438 c 0
 499.833984375 433.333007812 492.666992188 428 484 422 c 0
 475.333007812 416 468.333007812 411.666992188 463 409 c 0
 457.666992188 406.333007812 451.333984375 402.333007812 444.000976562 397 c 1
 459.333984375 389 472.333984375 380 483.000976562 370 c 0
 497.66796875 356 509.000976562 342.5 517.000976562 329.5 c 0
 525.000976562 316.5 530.66796875 302.333007812 534.000976562 287 c 0
 536.778320312 274.223632812 538.166992188 262.604492188 538.166992188 252.141601562 c 0
 538.166992188 250.047851562 538.111328125 248.000976562 538 246 c 0
286.005859375 591.99609375 m 0
 260.672851562 571.99609375 245.340820312 549.99609375 240.0078125 525.99609375 c 0
 239.119140625 521.99609375 238.674804688 518.078125 238.674804688 514.243164062 c 0
 238.674804688 500.819335938 244.119140625 488.403320312 255.0078125 476.99609375 c 0
 270.340820312 461.663085938 298.0078125 445.663085938 338.0078125 428.99609375 c 1
 365.340820312 439.663085938 390.673828125 453.663085938 414.006835938 470.99609375 c 0
 437.33984375 488.329101562 450.672851562 503.329101562 454.005859375 515.99609375 c 0
 455.5546875 522.189453125 456.328125 528.408203125 456.328125 534.651367188 c 0
 456.328125 544.537109375 454.387695312 554.485351562 450.505859375 564.49609375 c 0
 444.172851562 580.829101562 433.672851562 594.49609375 419.005859375 605.49609375 c 0
 404.338867188 616.49609375 387.338867188 621.99609375 368.005859375 621.99609375 c 2
 367.005859375 621.99609375 l 2
 338.338867188 621.99609375 311.338867188 611.99609375 286.005859375 591.99609375 c 0
179.006835938 96.99609375 m 0
 198.33984375 86.99609375 220.338867188 81.998046875 245.005859375 81.998046875 c 0
 262.338867188 81.998046875 280.505859375 84.6650390625 299.505859375 89.998046875 c 0
 318.505859375 95.3310546875 336.338867188 102.998046875 353.005859375 112.998046875 c 0
 369.672851562 122.998046875 384.33984375 135.665039062 397.006835938 150.998046875 c 0
 409.006835938 166.331054688 417.006835938 182.998046875 421.006835938 200.998046875 c 0
 423.006835938 210.998046875 424.673828125 220.331054688 426.006835938 228.998046875 c 0
 426.006835938 237.665039062 424.506835938 247.665039062 421.506835938 258.998046875 c 0
 418.506835938 270.331054688 413.173828125 280.998046875 405.506835938 290.998046875 c 0
 397.83984375 300.998046875 386.33984375 311.331054688 371.006835938 321.998046875 c 0
 355.673828125 332.665039062 337.006835938 342.665039062 315.006835938 351.998046875 c 1
 267.673828125 339.331054688 226.673828125 318.6640625 192.006835938 289.997070312 c 0
 158.006835938 261.330078125 137.33984375 230.663085938 130.006835938 197.99609375 c 0
 128.067382812 189.99609375 127.09765625 182.260742188 127.09765625 174.790039062 c 0
 127.09765625 161.715820312 130.067382812 149.451171875 136.006835938 137.99609375 c 0
 146.006835938 119.99609375 160.33984375 106.329101562 179.006835938 96.99609375 c 0
EndSplineSet
Validated: 524289
EndChar

StartChar: nine
Encoding: 57 57 32
Width: 590
GlyphClass: 2
Flags: HMW
HStem: -22.9971 78.5 223.001 113.003<214.998 296.994> 630.004 108.995<339.662 420.666 350.995 420.666>
LayerCount: 2
Fore
SplineSet
87 -22 m 0
 83.6669921875 -22 80.6630859375 -22.330078125 77.99609375 -22.9970703125 c 0
 63.99609375 -22.9970703125 52.6630859375 -19.9970703125 43.99609375 -13.9970703125 c 0
 33.056640625 -7.6640625 27.5869140625 1.9013671875 27.5869140625 14.69921875 c 0
 27.5869140625 16.7197265625 27.7236328125 18.8212890625 27.99609375 21.0029296875 c 2
 27.99609375 24.0029296875 l 2
 29.99609375 34.669921875 36.99609375 45.169921875 48.99609375 55.5029296875 c 0
 60.99609375 65.8359375 73.6630859375 73.0029296875 86.99609375 77.0029296875 c 0
 94.99609375 79.0029296875 107.829101562 81.669921875 125.49609375 85.0029296875 c 0
 143.163085938 88.3359375 158.830078125 91.6689453125 172.497070312 95.001953125 c 0
 186.1640625 98.3349609375 201.331054688 102.66796875 217.998046875 108.000976562 c 0
 253.998046875 120.000976562 287.331054688 139.000976562 317.998046875 165.000976562 c 0
 337.998046875 183.000976562 357.331054688 203.66796875 375.998046875 227.000976562 c 0
 383.331054688 236.333984375 389.6640625 245.333984375 394.997070312 254.000976562 c 1
 379.6640625 246.000976562 363.331054688 239.66796875 345.998046875 235.000976562 c 0
 313.998046875 227.000976562 275.665039062 223.000976562 230.998046875 223.000976562 c 0
 198.998046875 223.000976562 170.331054688 230.333984375 144.998046875 245.000976562 c 0
 120.998046875 259.000976562 102.665039062 277.500976562 89.998046875 300.500976562 c 0
 77.3310546875 323.500976562 68.998046875 350.16796875 64.998046875 380.500976562 c 0
 63.5859375 391.206054688 62.880859375 401.974609375 62.880859375 412.8046875 c 0
 62.880859375 432.66015625 65.2529296875 452.725585938 69.998046875 473 c 0
 78.6650390625 511 92.83203125 546.5 112.499023438 579.5 c 0
 132.166015625 612.5 155.166015625 640.666992188 181.499023438 664 c 0
 207.83203125 687.333007812 237.999023438 705.666015625 271.999023438 718.999023438 c 0
 306.666015625 732.33203125 341.666015625 738.999023438 376.999023438 738.999023438 c 0
 464.33203125 738.999023438 520.665039062 707.33203125 545.998046875 643.999023438 c 0
 557.185546875 615.231445312 562.778320312 580.717773438 562.778320312 540.45703125 c 0
 562.778320312 496.745117188 556.185546875 446.259765625 542.998046875 388.999023438 c 0
 529.665039062 331.666015625 511.83203125 280.833007812 489.499023438 236.5 c 0
 467.166015625 192.166992188 442.166015625 155 414.499023438 125 c 0
 386.83203125 95 354.999023438 69.3330078125 318.999023438 48 c 0
 282.33203125 26.6669921875 244.83203125 10.5 206.499023438 -0.5 c 0
 168.166015625 -11.5 128.333007812 -18.6669921875 87 -22 c 0
220.99609375 555.002929688 m 0
 203.663085938 532.3359375 192.327148438 509.004882812 186.994140625 485.004882812 c 0
 182.294921875 464.549804688 179.9453125 446.200195312 179.9453125 429.956054688 c 0
 179.9453125 367.850585938 214.294921875 336.532226562 282.994140625 336.00390625 c 0
 310.994140625 336.00390625 339.327148438 342.00390625 367.994140625 354.00390625 c 0
 396.661132812 366.00390625 420.661132812 381.336914062 439.994140625 400.00390625 c 0
 440.661132812 402.670898438 441.328125 405.670898438 441.995117188 409.00390625 c 0
 445.995117188 426.336914062 450.662109375 450.00390625 455.995117188 480.00390625 c 0
 457.1953125 488.403320312 457.794921875 496.743164062 457.794921875 505.0234375 c 0
 457.794921875 524.34375 454.528320312 543.336914062 447.995117188 562.00390625 c 0
 443.328125 576.00390625 436.828125 588.00390625 428.495117188 598.00390625 c 0
 420.162109375 608.00390625 409.495117188 615.836914062 396.495117188 621.50390625 c 0
 383.495117188 627.170898438 368.995117188 630.00390625 352.995117188 630.00390625 c 2
 350.995117188 630.00390625 l 2
 328.328125 630.00390625 305.328125 623.170898438 281.995117188 609.50390625 c 0
 258.662109375 595.836914062 238.329101562 577.669921875 220.99609375 555.002929688 c 0
EndSplineSet
Validated: 524289
EndChar

StartChar: colon
Encoding: 58 58 33
Width: 590
GlyphClass: 2
Flags: HMW
HStem: 27 180.001<235.33 288.667> 295 179.001<305.002 346.335 305.002 346.335>
VStem: 186.998 216.002
LayerCount: 2
Fore
SplineSet
400 404 m 0
 395.333007812 384.666992188 388.000976562 364.66796875 378.000976562 344.000976562 c 0
 370.66796875 327.333984375 359.334960938 314.666992188 344.001953125 306 c 0
 330.668945312 298.666992188 318.668945312 295 308.001953125 295 c 2
 305.001953125 295 l 2
 287.001953125 295.666992188 273.001953125 299.666992188 263.001953125 307 c 0
 251.891601562 315.333007812 246.3359375 327.138671875 246.3359375 342.416015625 c 0
 246.3359375 345.471679688 246.55859375 348.666015625 247.002929688 352 c 0
 248.3359375 364 250.502929688 376.166992188 253.502929688 388.5 c 0
 256.502929688 400.833007812 259.502929688 412.333007812 262.502929688 423 c 0
 265.502929688 433.666992188 270.8359375 442.833984375 278.502929688 450.500976562 c 0
 286.169921875 458.16796875 294.502929688 463.66796875 303.502929688 467.000976562 c 0
 312.502929688 470.333984375 320.169921875 472.333984375 326.502929688 473.000976562 c 0
 332.8359375 473.66796875 337.668945312 474.000976562 341.001953125 474.000976562 c 0
 351.668945312 474.000976562 360.168945312 473.333984375 366.501953125 472.000976562 c 0
 372.834960938 470.66796875 379.16796875 468.000976562 385.500976562 464.000976562 c 0
 391.833984375 460.000976562 396.666992188 454.000976562 400 446.000976562 c 0
 403.333007812 438.000976562 404.333007812 428.66796875 403 418.000976562 c 0
 401.666992188 413.333984375 400.666992188 408.666992188 400 404 c 0
338.000976562 125.000976562 m 0
 334.66796875 109.000976562 328.663085938 92.333984375 319.99609375 75.0009765625 c 0
 311.99609375 58.333984375 299.663085938 46.0009765625 282.99609375 38.0009765625 c 0
 268.99609375 31.333984375 255.663085938 27.6669921875 242.99609375 27 c 0
 227.663085938 27 213.830078125 32 201.497070312 42 c 0
 191.356445312 50.2216796875 186.287109375 61.1484375 186.287109375 74.7783203125 c 0
 186.287109375 77.7255859375 186.5234375 80.7998046875 186.998046875 84 c 0
 190.331054688 102.666992188 192.331054688 113.333984375 192.998046875 116.000976562 c 0
 193.665039062 118.66796875 195.33203125 124.66796875 197.999023438 134.000976562 c 0
 200.666015625 143.333984375 202.666015625 150.666992188 203.999023438 156 c 0
 206.666015625 166.666992188 211.833007812 175.833984375 219.5 183.500976562 c 0
 227.166992188 191.16796875 235.666992188 196.66796875 245 200.000976562 c 0
 259 204.66796875 271.666992188 207.000976562 283 207.000976562 c 0
 294.333007812 207.000976562 304 205.500976562 312 202.500976562 c 0
 320 199.500976562 327.333007812 193.66796875 334 185.000976562 c 0
 339.555664062 177.778320312 342.333984375 168.934570312 342.333984375 158.471679688 c 0
 342.333984375 156.379882812 342.22265625 154.22265625 342.000976562 152.000976562 c 0
 341.333984375 143.333984375 340.000976562 134.333984375 338.000976562 125.000976562 c 0
EndSplineSet
Validated: 524289
EndChar

StartChar: semicolon
Encoding: 59 59 34
Width: 590
GlyphClass: 2
Flags: HMW
HStem: 253.001 180.001<358.335 402.669>
VStem: 302.002 155.998
LayerCount: 2
Fore
SplineSet
455 363 m 0
 450.333007812 343.666992188 443.000976562 323.334960938 433.000976562 302.001953125 c 0
 425.66796875 285.334960938 414.334960938 272.66796875 399.001953125 264.000976562 c 0
 385.668945312 256.66796875 373.668945312 253.000976562 363.001953125 253.000976562 c 0
 353.668945312 253.000976562 344.168945312 255.000976562 334.501953125 259.000976562 c 0
 324.834960938 263.000976562 317.001953125 269.000976562 311.001953125 277.000976562 c 0
 304.796875 284.8984375 301.694335938 293.989257812 301.694335938 304.274414062 c 0
 301.694335938 306.143554688 301.796875 308.052734375 302.001953125 310.000976562 c 2
 302.001953125 311.000976562 l 2
 303.334960938 323.000976562 305.66796875 335.000976562 309.000976562 347.000976562 c 0
 312.333984375 359.000976562 315.333984375 370.333984375 318.000976562 381.000976562 c 0
 320.66796875 391.66796875 325.834960938 401.000976562 333.501953125 409.000976562 c 0
 341.168945312 417.000976562 349.3359375 422.333984375 358.002929688 425.000976562 c 0
 372.669921875 429.66796875 386.002929688 432.334960938 398.002929688 433.001953125 c 0
 407.3359375 433.001953125 415.168945312 432.168945312 421.501953125 430.501953125 c 0
 427.834960938 428.834960938 434.16796875 426.16796875 440.500976562 422.500976562 c 0
 446.833984375 418.833984375 451.666992188 413.000976562 455 405.000976562 c 0
 458.333007812 396.333984375 459.333007812 386.666992188 458 376 c 0
 456.666992188 372 455.666992188 367.666992188 455 363 c 0
371.000976562 79.0009765625 m 0
 371.000976562 77.0009765625 370.336914062 75 369.00390625 73 c 0
 362.336914062 51 322.00390625 -36.6669921875 248.00390625 -190 c 0
 240.00390625 -206.666992188 229.336914062 -219.333984375 216.00390625 -228.000976562 c 0
 205.00390625 -234.72265625 194.28515625 -238.083007812 183.845703125 -238.083007812 c 0
 182.895507812 -238.083007812 181.94921875 -238.055664062 181.00390625 -238 c 0
 165.00390625 -238 152.00390625 -233 142.00390625 -223 c 0
 135.126953125 -216.123046875 131.688476562 -207.435546875 131.688476562 -196.938476562 c 0
 131.688476562 -193.189453125 132.126953125 -189.209960938 133.00390625 -185 c 0
 135.670898438 -171.666992188 151.00390625 -132 179.00390625 -66 c 0
 207.00390625 0 228.336914062 49.3330078125 243.00390625 82 c 0
 248.336914062 93.3330078125 254.169921875 102.833007812 260.502929688 110.5 c 0
 266.8359375 118.166992188 273.668945312 123.333984375 281.001953125 126.000976562 c 0
 290.334960938 129.333984375 299.001953125 131.333984375 307.001953125 132.000976562 c 0
 309.668945312 132.000976562 312.668945312 131.66796875 316.001953125 131.000976562 c 0
 329.334960938 131.000976562 342.001953125 127.66796875 354.001953125 121.000976562 c 0
 361.334960938 117.000976562 366.66796875 111.000976562 370.000976562 103.000976562 c 0
 372.66796875 95.66796875 373.000976562 87.66796875 371.000976562 79.0009765625 c 0
EndSplineSet
Validated: 524289
EndChar

StartChar: less
Encoding: 60 60 35
Width: 590
GlyphClass: 2
Flags: HMW
HStem: -24 21G<352 357 357 366>
LayerCount: 2
Fore
SplineSet
357 -24 m 2
 347 -24 336.333984375 -21.9990234375 325.000976562 -17.9990234375 c 0
 309.66796875 -12.666015625 292.334960938 -0.666015625 273.001953125 18.0009765625 c 0
 253.668945312 36.66796875 233.668945312 58.8349609375 213.001953125 84.501953125 c 0
 192.334960938 110.168945312 172.001953125 135.8359375 152.001953125 161.502929688 c 0
 132.001953125 187.169921875 110.834960938 213.669921875 88.501953125 241.002929688 c 0
 66.1689453125 268.3359375 46.6689453125 290.002929688 30.001953125 306.002929688 c 0
 22.001953125 314.002929688 18.001953125 325.002929688 18.001953125 339.002929688 c 0
 18.001953125 345.002929688 18.8349609375 351.502929688 20.501953125 358.502929688 c 0
 22.1689453125 365.502929688 24.6689453125 372.669921875 28.001953125 380.002929688 c 0
 34.6689453125 394.002929688 44.001953125 404.002929688 56.001953125 410.002929688 c 0
 97.3349609375 438.002929688 146.501953125 473.169921875 203.501953125 515.502929688 c 0
 260.501953125 557.8359375 312.834960938 596.168945312 360.501953125 630.501953125 c 0
 408.168945312 664.834960938 450.001953125 692.001953125 486.001953125 712.001953125 c 0
 500.668945312 720.668945312 514.001953125 725.001953125 526.001953125 725.001953125 c 0
 535.334960938 725.001953125 543.001953125 722.668945312 549.001953125 718.001953125 c 0
 561.001953125 709.334960938 568.334960938 697.66796875 571.001953125 683.000976562 c 0
 572.334960938 676.333984375 572.16796875 669.000976562 570.500976562 661.000976562 c 0
 568.833984375 653.000976562 564.333984375 644.66796875 557.000976562 636.000976562 c 0
 546.333984375 622.66796875 528.000976562 607.66796875 502.000976562 591.000976562 c 0
 461.333984375 565.000976562 402.333984375 524.833984375 325.000976562 470.500976562 c 0
 247.66796875 416.16796875 195.000976562 379.334960938 167.000976562 360.001953125 c 1
 183.66796875 342.001953125 202.834960938 319.668945312 224.501953125 293.001953125 c 0
 246.168945312 266.334960938 265.501953125 241.66796875 282.501953125 219.000976562 c 0
 299.501953125 196.333984375 318.168945312 173.166992188 338.501953125 149.5 c 0
 358.834960938 125.833007812 377.66796875 106.833007812 395.000976562 92.5 c 0
 412.333984375 78.1669921875 423.333984375 65 428.000976562 53 c 0
 431.333984375 45 431.666992188 36.3330078125 429 27 c 0
 427.666992188 20.3330078125 425 14 421 8 c 0
 408.333007812 -10 390 -20.6669921875 366 -24 c 2
 357 -24 l 2
EndSplineSet
Validated: 524289
EndChar

StartChar: equal
Encoding: 61 61 36
Width: 590
GlyphClass: 2
Flags: HMW
HStem: 235 107<118.335 151.335> 435 106
LayerCount: 2
Fore
SplineSet
469 541 m 0
 487 541 498.66796875 536.33203125 504.000976562 526.999023438 c 0
 507.555664062 520.77734375 509.333984375 513.518554688 509.333984375 505.22265625 c 0
 509.333984375 501.07421875 508.888671875 496.666015625 508 491.999023438 c 2
 508 490.999023438 l 2
 506.666992188 483.666015625 504.666992188 476.999023438 502 470.999023438 c 0
 499.333007812 464.999023438 495.333007812 458.83203125 490 452.499023438 c 0
 484.666992188 446.166015625 477.666992188 441.333007812 469 438 c 0
 463 436 457 435 451 435 c 2
 443 435 l 2
 421 435.666992188 398 436 374 436 c 2
 271 433 l 2
 227.666992188 431.666992188 195.666992188 431 175 431 c 0
 157 431 143.666992188 436 135 446 c 0
 128.740234375 453.22265625 125.610351562 461.8359375 125.610351562 471.840820312 c 0
 125.610351562 475.688476562 126.073242188 479.741210938 126.999023438 484 c 2
 126.999023438 487 l 2
 130.33203125 501 137.83203125 513.5 149.499023438 524.5 c 0
 161.166015625 535.5 175.666015625 541 192.999023438 541 c 2
 196.999023438 541 l 2
 233.3984375 539.799804688 273.397460938 539.200195312 316.997070312 539.200195312 c 0
 346.064453125 539.200195312 376.732421875 539.466796875 409 540 c 0
 442.333007812 540.666992188 462.333007812 541 469 541 c 0
405.000976562 238.999023438 m 2
 398.001953125 239 l 2
 384.001953125 239.666992188 370.668945312 240 358.001953125 240 c 0
 332.001953125 240 292.001953125 239.166992188 238.001953125 237.5 c 0
 184.001953125 235.833007812 147.334960938 235 128.001953125 235 c 0
 108.668945312 235 95.3359375 240.333007812 88.0029296875 251 c 0
 82.9609375 258.333984375 80.4404296875 266.770507812 80.4404296875 276.309570312 c 0
 80.4404296875 280.645507812 80.9609375 285.208984375 82.0029296875 290 c 2
 82.0029296875 292 l 2
 85.3359375 306 93.1689453125 317.833007812 105.501953125 327.5 c 0
 117.834960938 337.166992188 133.001953125 342 151.001953125 342 c 0
 151.668945312 342 157.001953125 341.666992188 167.001953125 341 c 0
 180.119140625 340.77734375 194.682617188 340.666015625 210.69140625 340.666015625 c 0
 242.686523438 340.666015625 280.456054688 341.110351562 324.000976562 341.999023438 c 2
 423.000976562 344.999023438 l 2
 441.000976562 344.999023438 452.833984375 340.33203125 458.500976562 330.999023438 c 0
 462.354492188 324.65234375 464.28125 317.227539062 464.28125 308.72265625 c 0
 464.28125 304.720703125 463.854492188 300.479492188 463.000976562 295.999023438 c 2
 463.000976562 294.999023438 l 2
 461.66796875 287.666015625 459.500976562 281.166015625 456.500976562 275.499023438 c 0
 453.500976562 269.83203125 449.66796875 263.999023438 445.000976562 257.999023438 c 0
 439.66796875 251.33203125 432.66796875 245.999023438 424.000976562 241.999023438 c 0
 418.000976562 239.999023438 411.66796875 238.999023438 405.000976562 238.999023438 c 2
EndSplineSet
Validated: 524289
EndChar

StartChar: greater
Encoding: 62 62 37
Width: 590
GlyphClass: 2
Flags: HMW
HStem: -18 21G<58.666 69.334>
LayerCount: 2
Fore
SplineSet
63 -18 m 0
 54.3330078125 -18 46.9970703125 -15.6689453125 40.9970703125 -11.001953125 c 0
 34.9970703125 -6.3349609375 30.1640625 -1.001953125 26.4970703125 4.998046875 c 0
 22.830078125 10.998046875 20.330078125 17.3310546875 18.9970703125 23.998046875 c 0
 17.6640625 30.6650390625 17.8310546875 37.998046875 19.498046875 45.998046875 c 0
 21.1650390625 53.998046875 25.33203125 62.3310546875 31.9990234375 70.998046875 c 0
 42.666015625 84.3310546875 61.3330078125 99.3310546875 88 115.998046875 c 0
 128.666992188 141.998046875 187.666992188 182.165039062 265 236.498046875 c 0
 342.333007812 290.831054688 394.666015625 327.6640625 421.999023438 346.997070312 c 1
 404.666015625 364.997070312 385.499023438 387.330078125 364.499023438 413.997070312 c 0
 343.499023438 440.6640625 324.33203125 465.331054688 306.999023438 487.998046875 c 0
 289.666015625 510.665039062 270.833007812 533.83203125 250.5 557.499023438 c 0
 230.166992188 581.166015625 211.5 600.166015625 194.5 614.499023438 c 0
 177.5 628.83203125 166.666992188 641.999023438 162 653.999023438 c 0
 158.666992188 661.999023438 158.333984375 670.666015625 161.000976562 679.999023438 c 0
 162.333984375 686.666015625 165.000976562 692.999023438 169.000976562 698.999023438 c 0
 181.66796875 716.999023438 200.000976562 727.666015625 224.000976562 730.999023438 c 2
 233.000976562 730.999023438 l 2
 243.000976562 730.999023438 253.66796875 728.999023438 265.000976562 724.999023438 c 0
 280.333984375 719.666015625 297.833984375 707.833007812 317.500976562 689.5 c 0
 337.16796875 671.166992188 357.16796875 649 377.500976562 623 c 0
 397.833984375 597 418.000976562 571.166992188 438.000976562 545.5 c 0
 458.000976562 519.833007812 479.16796875 493.333007812 501.500976562 466 c 0
 523.833984375 438.666992188 543.333984375 417 560.000976562 401 c 0
 568.000976562 393 572.000976562 382 572.000976562 368 c 0
 572.000976562 362 571.16796875 355.5 569.500976562 348.5 c 0
 567.833984375 341.5 565.333984375 334.333007812 562.000976562 327 c 0
 555.333984375 313 546.000976562 303 534.000976562 297 c 0
 492.66796875 269.666992188 443.500976562 234.666992188 386.500976562 192 c 0
 329.500976562 149.333007812 277.16796875 110.833007812 229.500976562 76.5 c 0
 181.833984375 42.1669921875 140.000976562 15 104.000976562 -5 c 0
 89.333984375 -13.6669921875 75.6669921875 -18 63 -18 c 0
EndSplineSet
Validated: 524289
EndChar

StartChar: question
Encoding: 63 63 38
Width: 590
GlyphClass: 2
Flags: HMW
HStem: -25.999 178.002<131.001 207.333 142.001 207.333> 508.998 21G<145.333 147 147 155> 625.003 108.995<322.667 328.999>
VStem: 161.001 116
LayerCount: 2
Fore
SplineSet
210 201 m 0
 204.666992188 201 199.000976562 201.66796875 193.000976562 203.000976562 c 0
 169.953125 209.810546875 158.4296875 224.028320312 158.4296875 245.655273438 c 0
 158.4296875 251.552734375 159.287109375 258.001953125 161.000976562 265.001953125 c 0
 163.000976562 274.334960938 166.66796875 284.334960938 172.000976562 295.001953125 c 0
 181.333984375 314.334960938 192.166992188 332.334960938 204.5 349.001953125 c 0
 216.833007812 365.668945312 229.5 380.001953125 242.5 392.001953125 c 0
 255.5 404.001953125 268.666992188 415.168945312 282 425.501953125 c 0
 295.333007812 435.834960938 308 445.501953125 320 454.501953125 c 0
 332 463.501953125 342.666992188 472.334960938 352 481.001953125 c 0
 372 499.668945312 384.333007812 519.001953125 389 539.001953125 c 0
 391.688476562 550.24609375 393.033203125 560.280273438 393.033203125 569.104492188 c 0
 393.033203125 584.34765625 389.021484375 595.98046875 380.999023438 604.002929688 c 0
 367.666015625 618.002929688 344.999023438 625.002929688 312.999023438 625.002929688 c 0
 305.666015625 625.002929688 297.833007812 623.169921875 289.5 619.502929688 c 0
 281.166992188 615.8359375 273.5 611.668945312 266.5 607.001953125 c 0
 259.5 602.334960938 251.666992188 595.66796875 243 587.000976562 c 0
 234.333007812 578.333984375 227.333007812 571.166992188 222 565.5 c 0
 216.666992188 559.833007812 210 552.166015625 202 542.499023438 c 0
 194 532.83203125 186.166992188 525.165039062 178.5 519.498046875 c 0
 170.833007812 513.831054688 163 510.331054688 155 508.998046875 c 2
 147 508.998046875 l 2
 143.666992188 508.998046875 140 509.665039062 136 510.998046875 c 0
 132 512.331054688 126.333007812 514.6640625 119 517.997070312 c 0
 107 525.997070312 101 537.330078125 101 551.997070312 c 0
 101 555.330078125 101.333007812 559.330078125 102 563.997070312 c 0
 104.666992188 575.997070312 111 589.330078125 121 603.997070312 c 0
 131.666992188 618.6640625 143.666992188 632.831054688 157 646.498046875 c 0
 170.333007812 660.165039062 186.166015625 673.998046875 204.499023438 687.998046875 c 0
 222.83203125 701.998046875 243.33203125 713.165039062 265.999023438 721.498046875 c 0
 288.666015625 729.831054688 311.333007812 733.998046875 334 733.998046875 c 0
 403.333007812 733.998046875 452.5 716.165039062 481.5 680.498046875 c 0
 500.188476562 657.512695312 509.533203125 627.3984375 509.533203125 590.154296875 c 0
 509.533203125 569.60546875 506.688476562 546.88671875 501 521.998046875 c 0
 496.333007812 502.665039062 489.333007812 484.83203125 480 468.499023438 c 0
 470.666992188 452.166015625 459.833984375 438.333007812 447.500976562 427 c 0
 435.16796875 415.666992188 422.500976562 405.166992188 409.500976562 395.5 c 0
 396.500976562 385.833007812 383.333984375 376.5 370.000976562 367.5 c 0
 356.66796875 358.5 344.16796875 349.166992188 332.500976562 339.5 c 0
 320.833984375 329.833007812 310.000976562 318.333007812 300.000976562 305 c 0
 290.000976562 291.666992188 282.333984375 276.666992188 277.000976562 260 c 0
 269.66796875 240 259.000976562 224.333007812 245.000976562 213 c 0
 234.333984375 205 222.666992188 201 210 201 c 0
142.000976562 -25.9990234375 m 2
 120.000976562 -25.9990234375 103.666992188 -17.9990234375 93 -1.9990234375 c 0
 84.404296875 10.66796875 80.107421875 24.7158203125 80.107421875 40.1455078125 c 0
 80.107421875 47.4541015625 81.0712890625 55.0732421875 83 63.001953125 c 0
 89 87.6689453125 103 108.3359375 125 125.002929688 c 0
 148.333007812 143.002929688 172 152.002929688 196 152.002929688 c 0
 218.666992188 152.002929688 236 144.002929688 248 128.002929688 c 0
 256.151367188 116.681640625 260.2265625 103.515625 260.2265625 88.50390625 c 0
 260.2265625 81.4140625 259.317382812 73.9140625 257.5 66.001953125 c 0
 251.833007812 41.3349609375 239.333007812 20.66796875 220 4.0009765625 c 0
 200.666992188 -12.666015625 178.333984375 -22.666015625 153.000976562 -25.9990234375 c 2
 142.000976562 -25.9990234375 l 2
EndSplineSet
Validated: 524289
EndChar

StartChar: at
Encoding: 64 64 39
Width: 590
GlyphClass: 2
Flags: HMW
HStem: -141.997 110.002<169.668 226.336 187.002 226.336> 105 105.001<258.006 258.673> 369.5 100.5 601.002 113.999<374.003 415.667>
VStem: 12.501 109.002 479.506 98.4951
LayerCount: 2
Fore
SplineSet
329 148 m 1
 304.333007812 119.333007812 275.33984375 105 242.006835938 105 c 0
 202.006835938 105 173.83984375 118.833007812 157.506835938 146.5 c 0
 148.307617188 162.08203125 143.708984375 181.735351562 143.708984375 205.458984375 c 0
 143.708984375 223.857421875 146.474609375 244.704101562 152.0078125 268 c 0
 158.0078125 294.666992188 166.340820312 319.166992188 177.0078125 341.5 c 0
 187.674804688 363.833007812 199.674804688 383 213.0078125 399 c 0
 226.340820312 415 241.0078125 428.666992188 257.0078125 440 c 0
 285.0078125 460 315.0078125 470 347.0078125 470 c 0
 365.674804688 470 383.341796875 466 400.008789062 458 c 0
 414.67578125 451.333007812 425.67578125 442.333007812 433.008789062 431 c 0
 438.341796875 421.666992188 440.008789062 412.666992188 438.008789062 404 c 0
 437.341796875 399.333007812 435.008789062 394.333007812 431.008789062 389 c 0
 427.008789062 383.666992188 422.341796875 378.666992188 417.008789062 374 c 0
 411.67578125 369.333007812 406.008789062 366 400.008789062 364 c 0
 391.341796875 361.333007812 384.674804688 360 380.0078125 360 c 0
 372.0078125 360 363.340820312 361.333007812 354.0078125 364 c 0
 351.340820312 364.666992188 347.0078125 366 341.0078125 368 c 0
 334.340820312 369.333007812 327.840820312 369.833007812 321.5078125 369.5 c 0
 315.174804688 369.166992188 308.5078125 366.833984375 301.5078125 362.500976562 c 0
 294.5078125 358.16796875 287.674804688 352.66796875 281.0078125 346.000976562 c 0
 274.340820312 339.333984375 268.173828125 330.333984375 262.506835938 319.000976562 c 0
 256.83984375 307.66796875 252.672851562 294.66796875 250.005859375 280.000976562 c 0
 248.005859375 272.000976562 246.505859375 264.333984375 245.505859375 257.000976562 c 0
 244.505859375 249.66796875 244.338867188 242.000976562 245.005859375 234.000976562 c 0
 245.672851562 218.000976562 252.005859375 210.000976562 264.005859375 210.000976562 c 0
 271.338867188 210.000976562 277.338867188 211.333984375 282.005859375 214.000976562 c 0
 288.672851562 216.66796875 294.33984375 221.334960938 299.006835938 228.001953125 c 0
 309.673828125 242.668945312 319.673828125 268.001953125 329.006835938 304.001953125 c 0
 333.006835938 319.334960938 346.33984375 331.66796875 369.006835938 341.000976562 c 0
 381.673828125 345.66796875 393.006835938 348.334960938 403.006835938 349.001953125 c 0
 410.33984375 349.001953125 416.33984375 347.668945312 421.006835938 345.001953125 c 0
 430.180664062 340.684570312 434.767578125 333.52734375 434.767578125 323.53125 c 0
 434.767578125 321.178710938 434.513671875 318.668945312 434.005859375 316.001953125 c 0
 434.005859375 314.668945312 433.338867188 313.3359375 432.005859375 312.002929688 c 0
 424.005859375 288.669921875 418.338867188 269.002929688 415.005859375 253.002929688 c 0
 411.005859375 235.002929688 409.005859375 219.669921875 409.005859375 207.002929688 c 0
 409.005859375 202.3359375 409.672851562 199.002929688 411.005859375 197.002929688 c 0
 412.338867188 193.669921875 414.338867188 192.002929688 417.005859375 192.002929688 c 0
 418.338867188 193.3359375 420.005859375 195.3359375 422.005859375 198.002929688 c 0
 426.672851562 206.002929688 431.672851562 216.3359375 437.005859375 229.002929688 c 0
 445.005859375 253.002929688 451.338867188 275.002929688 456.005859375 295.002929688 c 0
 464.005859375 328.3359375 469.838867188 359.168945312 473.505859375 387.501953125 c 0
 477.172851562 415.834960938 479.172851562 439.834960938 479.505859375 459.501953125 c 0
 479.54296875 461.684570312 479.561523438 463.845703125 479.561523438 465.983398438 c 0
 479.561523438 483.10546875 478.375976562 498.778320312 476.004882812 513.001953125 c 0
 473.337890625 529.001953125 470.170898438 541.668945312 466.50390625 551.001953125 c 0
 462.836914062 560.334960938 457.836914062 568.334960938 451.50390625 575.001953125 c 0
 445.170898438 581.668945312 439.50390625 586.501953125 434.50390625 589.501953125 c 0
 429.50390625 592.501953125 423.50390625 595.001953125 416.50390625 597.001953125 c 0
 409.50390625 599.001953125 404.170898438 600.168945312 400.50390625 600.501953125 c 0
 396.836914062 600.834960938 391.669921875 601.001953125 385.002929688 601.001953125 c 0
 363.002929688 601.001953125 340.169921875 593.334960938 316.502929688 578.001953125 c 0
 292.8359375 562.668945312 270.002929688 540.668945312 248.002929688 512.001953125 c 0
 226.002929688 483.334960938 205.3359375 447.501953125 186.002929688 404.501953125 c 0
 166.669921875 361.501953125 151.336914062 314.668945312 140.00390625 264.001953125 c 0
 129.336914062 219.334960938 123.169921875 179.334960938 121.502929688 144.001953125 c 0
 121.064453125 134.703125 120.844726562 125.888671875 120.844726562 117.559570312 c 0
 120.844726562 94.240234375 122.564453125 74.7216796875 126.002929688 59.0029296875 c 0
 130.669921875 37.669921875 138.002929688 19.8369140625 148.002929688 5.50390625 c 0
 158.002929688 -8.8291015625 168.669921875 -18.662109375 180.002929688 -23.9951171875 c 0
 191.3359375 -29.328125 204.3359375 -31.9951171875 219.002929688 -31.9951171875 c 0
 233.669921875 -31.9951171875 247.502929688 -30.328125 260.502929688 -26.9951171875 c 0
 273.502929688 -23.662109375 284.502929688 -19.9951171875 293.502929688 -15.9951171875 c 0
 302.502929688 -11.9951171875 311.502929688 -6.328125 320.502929688 1.0048828125 c 0
 329.502929688 8.337890625 336.8359375 15.1708984375 342.502929688 21.50390625 c 0
 348.169921875 27.8369140625 355.002929688 35.669921875 363.002929688 45.0029296875 c 0
 367.002929688 50.3359375 370.169921875 54.5029296875 372.502929688 57.5029296875 c 0
 374.8359375 60.5029296875 378.002929688 64.169921875 382.002929688 68.5029296875 c 0
 386.002929688 72.8359375 389.502929688 76.0029296875 392.502929688 78.0029296875 c 0
 395.502929688 80.0029296875 399.002929688 82.0029296875 403.002929688 84.0029296875 c 0
 407.002929688 86.0029296875 411.3359375 87.0029296875 416.002929688 87.0029296875 c 0
 420.669921875 87.0029296875 425.002929688 86.0029296875 429.002929688 84.0029296875 c 0
 435.002929688 81.3359375 439.669921875 78.0029296875 443.002929688 74.0029296875 c 0
 446.3359375 70.0029296875 448.502929688 65.169921875 449.502929688 59.5029296875 c 0
 450.502929688 53.8359375 450.3359375 48.0029296875 449.002929688 42.0029296875 c 0
 446.3359375 30.669921875 440.3359375 17.0029296875 431.002929688 1.0029296875 c 0
 425.002929688 -8.9970703125 419.3359375 -17.6640625 414.002929688 -24.9970703125 c 0
 408.669921875 -32.330078125 401.669921875 -41.330078125 393.002929688 -51.9970703125 c 0
 384.3359375 -62.6640625 375.668945312 -71.9970703125 367.001953125 -79.9970703125 c 0
 358.334960938 -87.9970703125 347.334960938 -96.1640625 334.001953125 -104.497070312 c 0
 320.668945312 -112.830078125 307.001953125 -119.497070312 293.001953125 -124.497070312 c 0
 279.001953125 -129.497070312 263.334960938 -133.6640625 246.001953125 -136.997070312 c 0
 228.668945312 -140.330078125 211.001953125 -141.997070312 193.001953125 -141.997070312 c 2
 187.001953125 -141.997070312 l 2
 152.334960938 -141.997070312 122.16796875 -132.6640625 96.5009765625 -113.997070312 c 0
 70.833984375 -95.330078125 50.833984375 -69.9970703125 36.5009765625 -37.9970703125 c 0
 22.16796875 -5.9970703125 14.16796875 32.8359375 12.5009765625 78.5029296875 c 0
 12.2978515625 84.072265625 12.1962890625 89.7041015625 12.1962890625 95.3984375 c 0
 12.1962890625 136.387695312 17.46484375 180.588867188 28.0009765625 228.002929688 c 0
 42.0009765625 287.3359375 59.16796875 342.8359375 79.5009765625 394.502929688 c 0
 99.833984375 446.169921875 122.500976562 491.169921875 147.500976562 529.502929688 c 0
 172.500976562 567.8359375 199.16796875 601.168945312 227.500976562 629.501953125 c 0
 255.833984375 657.834960938 285.000976562 679.16796875 315.000976562 693.500976562 c 0
 345.000976562 707.833984375 375.000976562 715.000976562 405.000976562 715.000976562 c 0
 426.333984375 715.000976562 445.500976562 713.16796875 462.500976562 709.500976562 c 0
 479.500976562 705.833984375 495.500976562 699.500976562 510.500976562 690.500976562 c 0
 525.500976562 681.500976562 537.66796875 669.66796875 547.000976562 655.000976562 c 0
 556.333984375 640.333984375 563.833984375 622.000976562 569.500976562 600.000976562 c 0
 575.16796875 578.000976562 578.000976562 552.333984375 578.000976562 523.000976562 c 0
 578.000976562 461.66796875 567.000976562 385.000976562 545.000976562 293.000976562 c 0
 533.000976562 242.333984375 516.000976562 198.000976562 494.000976562 160.000976562 c 0
 481.333984375 138.66796875 466.500976562 121.500976562 449.500976562 108.500976562 c 0
 432.500976562 95.5009765625 414.333984375 89.0009765625 395.000976562 89.0009765625 c 0
 366.333984375 89.0009765625 346.666992188 99.333984375 336 120.000976562 c 0
 332 127.333984375 329.666992188 136.666992188 329 148 c 1
EndSplineSet
Validated: 524289
EndChar

StartChar: A
Encoding: 65 65 40
Width: 590
GlyphClass: 2
Flags: HMW
HStem: -6.00195 21G<57.671 65.338> 251 91.998<448 448>
VStem: 448.001 109.502 453.006 115.998
LayerCount: 2
Fore
SplineSet
128 49 m 0xe0
 115.333007812 25 101.338867188 8.998046875 86.005859375 0.998046875 c 0
 77.3388671875 -3.6689453125 69.171875 -6.001953125 61.5048828125 -6.001953125 c 0
 53.837890625 -6.001953125 47.0048828125 -4.3349609375 41.0048828125 -1.001953125 c 0
 31.0048828125 4.3310546875 24.671875 12.6640625 22.0048828125 23.9970703125 c 0
 20.0048828125 32.6640625 20.171875 42.1640625 22.5048828125 52.4970703125 c 0
 24.837890625 62.830078125 28.6708984375 73.6630859375 34.00390625 84.99609375 c 0
 42.6708984375 105.663085938 71.00390625 153.99609375 119.00390625 229.99609375 c 1
 113.448242188 237.21875 110.669921875 245.831054688 110.669921875 255.83203125 c 0
 110.669921875 257.831054688 110.78125 259.88671875 111.002929688 261.997070312 c 0
 111.002929688 262.6640625 111.3359375 263.331054688 112.002929688 263.998046875 c 0
 114.669921875 275.998046875 122.336914062 286.665039062 135.00390625 295.998046875 c 0
 145.670898438 304.665039062 158.00390625 311.33203125 172.00390625 315.999023438 c 1
 294.00390625 497.999023438 384.336914062 620.33203125 443.00390625 682.999023438 c 0
 457.00390625 696.999023438 469.336914062 707.33203125 480.00390625 713.999023438 c 0
 490.670898438 721.33203125 502.00390625 724.999023438 514.00390625 724.999023438 c 0
 517.336914062 724.999023438 520.00390625 725.33203125 522.00390625 725.999023438 c 0
 534.670898438 725.999023438 545.00390625 722.666015625 553.00390625 715.999023438 c 0
 563.803710938 708.798828125 569.204101562 697.818359375 569.204101562 683.05859375 c 0
 569.204101562 681.41796875 569.13671875 679.732421875 569.00390625 677.999023438 c 0xd0
 564.336914062 597.999023438 560.669921875 484.999023438 558.002929688 338.999023438 c 0
 557.241210938 292.51953125 556.860351562 253.061523438 556.860351562 220.625 c 0
 556.860351562 196.301757812 557.07421875 175.926757812 557.502929688 159.5 c 0
 558.502929688 121.166992188 560.3359375 97.6669921875 563.002929688 89 c 0
 565.0859375 81.5 566.127929688 74.259765625 566.127929688 67.2802734375 c 0
 566.127929688 63.09375 565.752929688 59 565.002929688 55 c 0
 564.3359375 53 563.668945312 50.6669921875 563.001953125 48 c 0
 559.001953125 36 552.834960938 25.8330078125 544.501953125 17.5 c 0
 536.168945312 9.1669921875 527.001953125 3 517.001953125 -1 c 0
 505.668945312 -4.3330078125 498.668945312 -6 496.001953125 -6 c 0
 488.001953125 -6 480.334960938 -3.6669921875 473.001953125 1 c 0
 460.334960938 9 452.66796875 24.6669921875 450.000976562 48 c 0
 447.91796875 61.333984375 446.875976562 92.767578125 446.875976562 142.301757812 c 0
 446.875976562 172.01953125 447.250976562 208.251953125 448.000976562 251 c 1
 369.333984375 247.666992188 297.666992188 241 233 231 c 1
 199.666992188 179 164.666992188 118.333007812 128 49 c 0xe0
297.005859375 331.998046875 m 1
 352.338867188 337.998046875 402.672851562 341.665039062 448.005859375 342.998046875 c 1
 453.005859375 567.998046875 l 1
 415.672851562 519.998046875 363.672851562 441.331054688 297.005859375 331.998046875 c 1
EndSplineSet
Validated: 524289
EndChar

StartChar: B
Encoding: 66 66 41
Width: 590
GlyphClass: 2
Flags: HMW
HStem: -23 21G<69.334 76.666> 285.002 97.998 605.004 103.999<347.002 352.001>
LayerCount: 2
Fore
SplineSet
13 42 m 0
 19 61.3330078125 27.333984375 94.00390625 38.0009765625 140.00390625 c 0
 58.0009765625 227.336914062 78.66796875 324.00390625 100.000976562 430.00390625 c 0
 108.66796875 473.336914062 114.66796875 502.50390625 118.000976562 517.50390625 c 0
 121.333984375 532.50390625 126.333984375 552.50390625 133.000976562 577.50390625 c 0
 139.66796875 602.50390625 144.334960938 619.670898438 147.001953125 629.00390625 c 0
 152.334960938 649.670898438 161.834960938 665.670898438 175.501953125 677.00390625 c 0
 189.168945312 688.336914062 203.668945312 694.00390625 219.001953125 694.00390625 c 2
 222.001953125 694.00390625 l 1
 240.001953125 699.336914062 261.668945312 703.336914062 287.001953125 706.00390625 c 0
 297.668945312 707.336914062 308.668945312 708.169921875 320.001953125 708.502929688 c 0
 331.334960938 708.8359375 340.334960938 709.002929688 347.001953125 709.002929688 c 2
 367.001953125 709.002929688 l 1
 379.001953125 709.002929688 l 2
 426.334960938 709.002929688 467.001953125 700.669921875 501.001953125 684.002929688 c 0
 534.334960938 667.3359375 557.001953125 642.3359375 569.001953125 609.002929688 c 0
 576.62109375 589.955078125 580.430664062 569.166015625 580.430664062 546.634765625 c 0
 580.430664062 529.737304688 578.288085938 511.860351562 574.001953125 493.002929688 c 0
 565.334960938 455.002929688 548.66796875 422.002929688 524.000976562 394.002929688 c 0
 506.000976562 372.669921875 485.333984375 355.669921875 462.000976562 343.002929688 c 1
 474.66796875 336.3359375 486.334960938 328.668945312 497.001953125 320.001953125 c 0
 514.334960938 305.334960938 528.334960938 288.66796875 539.001953125 270.000976562 c 0
 546.759765625 256.424804688 550.638671875 243.026367188 550.638671875 229.802734375 c 0
 550.638671875 224.84375 550.092773438 219.91015625 549.001953125 215.000976562 c 0
 549.001953125 214.333984375 548.668945312 214.000976562 548.001953125 214.000976562 c 0
 542.001953125 188.000976562 529.668945312 162.333984375 511.001953125 137.000976562 c 0
 492.334960938 111.66796875 468.66796875 88.5009765625 440.000976562 67.5009765625 c 0
 411.333984375 46.5009765625 375.666992188 28.66796875 333 14.0009765625 c 0
 289.666992188 -0.666015625 244 -9.9990234375 196 -13.9990234375 c 1
 191.013671875 -10.7724609375 185.704101562 -9.1591796875 180.072265625 -9.1591796875 c 0
 172.904296875 -9.1591796875 165.213867188 -11.7724609375 157 -16.9990234375 c 1
 124.333007812 -19.666015625 104 -21.3330078125 96 -22 c 0
 88 -22.6669921875 80.3330078125 -23 73 -23 c 0
 65.6669921875 -23 59 -22.3330078125 53 -21 c 2
 51 -21 l 2
 35.6669921875 -21 24 -15.3330078125 16 -4 c 0
 11.8330078125 2.25 9.75 9.671875 9.75 18.265625 c 0
 9.75 23.421875 10.5 29 12 35 c 0
 12 37.6669921875 12.3330078125 40 13 42 c 0
206.000976562 402.00390625 m 0
 204.66796875 395.336914062 203.33203125 389 201.999023438 383 c 1
 229.33203125 382.333007812 253.999023438 381.833007812 275.999023438 381.5 c 0
 278.197265625 381.466796875 280.368164062 381.450195312 282.509765625 381.450195312 c 0
 301.801757812 381.450195312 318.797851562 382.799804688 333.499023438 385.5 c 0
 349.83203125 388.5 363.83203125 392.333007812 375.499023438 397 c 0
 387.166015625 401.666992188 397.833007812 407.333984375 407.5 414.000976562 c 0
 417.166992188 420.66796875 424.833984375 427.334960938 430.500976562 434.001953125 c 0
 436.16796875 440.668945312 441.500976562 448.168945312 446.500976562 456.501953125 c 0
 451.500976562 464.834960938 455.333984375 472.334960938 458.000976562 479.001953125 c 0
 460.66796875 485.668945312 462.66796875 492.668945312 464.000976562 500.001953125 c 0
 465.754882812 507.721679688 466.6328125 515.1640625 466.6328125 522.330078125 c 0
 466.6328125 528.778320312 465.921875 535.002929688 464.500976562 541.002929688 c 0
 461.500976562 553.669921875 456.000976562 563.836914062 448.000976562 571.50390625 c 0
 440.000976562 579.170898438 430.66796875 585.670898438 420.000976562 591.00390625 c 0
 401.250976562 600.37890625 380.158203125 605.06640625 356.721679688 605.06640625 c 0
 355.158203125 605.06640625 353.584960938 605.045898438 352.000976562 605.00390625 c 0
 320.000976562 605.00390625 288.000976562 602.00390625 256.000976562 596.00390625 c 1
 252.66796875 584.00390625 248.000976562 566.00390625 242.000976562 542.00390625 c 0
 228.000976562 492.670898438 216.000976562 446.00390625 206.000976562 402.00390625 c 0
408.498046875 165.5 m 0
 420.165039062 178.5 427 189.670898438 429 199.00390625 c 0
 430.333007812 204.336914062 428.833007812 210.669921875 424.5 218.002929688 c 0
 420.166992188 225.3359375 412.166992188 233.168945312 400.5 241.501953125 c 0
 388.833007812 249.834960938 371.166015625 258.001953125 347.499023438 266.001953125 c 0
 323.83203125 274.001953125 296.33203125 280.334960938 264.999023438 285.001953125 c 1
 181.999023438 285.001953125 l 1
 163.33203125 193.001953125 149.665039062 124.668945312 140.998046875 80.001953125 c 1
 147.665039062 80.001953125 157.665039062 80.1689453125 170.998046875 80.501953125 c 0
 184.331054688 80.8349609375 195.331054688 81.3349609375 203.998046875 82.001953125 c 0
 233.998046875 83.3349609375 262.998046875 88.16796875 290.998046875 96.5009765625 c 0
 318.998046875 104.833984375 342.665039062 115.166992188 361.998046875 127.5 c 0
 381.331054688 139.833007812 396.831054688 152.5 408.498046875 165.5 c 0
EndSplineSet
Validated: 524289
EndChar

StartChar: C
Encoding: 67 67 42
Width: 590
GlyphClass: 2
Flags: HMW
HStem: -30.9971 114.001<142.667 204.667 157 204.667> 608.005 104.996<435.667 436.667>
LayerCount: 2
Fore
SplineSet
612 692 m 0
 612 666 608.333984375 638.336914062 601.000976562 609.00390625 c 0
 596.333984375 589.00390625 593.333984375 577.00390625 592.000976562 573.00390625 c 0
 588.000976562 556.336914062 578.500976562 539.50390625 563.500976562 522.50390625 c 0
 548.500976562 505.50390625 534.333984375 496.336914062 521.000976562 495.00390625 c 0
 518.333984375 495.00390625 515.333984375 494.670898438 512.000976562 494.00390625 c 0
 500.66796875 494.00390625 490.66796875 498.00390625 482.000976562 506.00390625 c 0
 471.745117188 514.208984375 466.616210938 524.583984375 466.616210938 537.12890625 c 0
 466.616210938 540.891601562 467.078125 544.850585938 468.000976562 549.00390625 c 0
 469.333984375 553.670898438 472.666992188 565.670898438 478 585.00390625 c 1
 470.666992188 590.336914062 466 593.836914062 464 595.50390625 c 0
 462 597.170898438 459 599.337890625 455 602.004882812 c 0
 447.666992188 606.004882812 440.333984375 608.004882812 433.000976562 608.004882812 c 0
 414.333984375 608.004882812 392.333984375 602.004882812 367.000976562 590.004882812 c 0
 341.66796875 578.004882812 316.000976562 560.504882812 290.000976562 537.504882812 c 0
 264.000976562 514.504882812 238.833984375 488.171875 214.500976562 458.504882812 c 0
 190.16796875 428.837890625 168.500976562 395.170898438 149.500976562 357.50390625 c 0
 130.500976562 319.836914062 116.66796875 282.336914062 108.000976562 245.00390625 c 0
 104.82421875 230.88671875 103.236328125 217.001953125 103.236328125 203.3515625 c 0
 103.236328125 191.217773438 104.491210938 179.268554688 107.000976562 167.50390625 c 0
 112.333984375 142.50390625 122.833984375 122.170898438 138.500976562 106.50390625 c 0
 154.16796875 90.8369140625 172.66796875 83.00390625 194.000976562 83.00390625 c 0
 215.333984375 83.00390625 236.333984375 85.1708984375 257.000976562 89.50390625 c 0
 277.66796875 93.8369140625 296.66796875 99.3369140625 314.000976562 106.00390625 c 0
 331.333984375 112.670898438 346.500976562 119.50390625 359.500976562 126.50390625 c 0
 372.500976562 133.50390625 384.66796875 140.670898438 396.000976562 148.00390625 c 0
 406.000976562 154.670898438 415.000976562 160.00390625 423.000976562 164.00390625 c 0
 431.000976562 168.00390625 439.500976562 169.836914062 448.500976562 169.50390625 c 0
 457.500976562 169.170898438 465.000976562 166.00390625 471.000976562 160.00390625 c 0
 479.563476562 151.44140625 483.844726562 141.641601562 483.844726562 130.60546875 c 0
 483.844726562 127.034179688 483.396484375 123.333984375 482.5 119.50390625 c 0
 478.833007812 103.836914062 467.333007812 86.669921875 448 68.0029296875 c 0
 379.353515625 1.99609375 286.526367188 -31.0068359375 169.51953125 -31.0068359375 c 0
 168.348632812 -31.0068359375 167.17578125 -31.00390625 166 -30.9970703125 c 2
 157 -30.9970703125 l 2
 128.333007812 -30.9970703125 102 -26.330078125 78 -16.9970703125 c 0
 54.6669921875 -7.6640625 36.333984375 5.0029296875 23.0009765625 21.0029296875 c 0
 9.66796875 37.0029296875 -0.9990234375 55.3359375 -8.9990234375 76.0029296875 c 0
 -16.9990234375 96.669921875 -21.33203125 118.669921875 -21.9990234375 142.002929688 c 0
 -22.0732421875 144.596679688 -22.1103515625 147.190429688 -22.1103515625 149.784179688 c 0
 -22.1103515625 170.5234375 -19.740234375 191.262695312 -15 212.001953125 c 0
 -3.6669921875 260.001953125 11.8330078125 306.501953125 31.5 351.501953125 c 0
 51.1669921875 396.501953125 73.1669921875 437.001953125 97.5 473.001953125 c 0
 121.833007812 509.001953125 148.666015625 542.334960938 177.999023438 573.001953125 c 0
 207.999023438 603.001953125 238.666015625 628.168945312 269.999023438 648.501953125 c 0
 301.33203125 668.834960938 332.33203125 684.66796875 362.999023438 696.000976562 c 0
 393.666015625 707.333984375 422.333007812 713.000976562 449 713.000976562 c 0
 470.333007812 713.000976562 490 711.333984375 508 708.000976562 c 1
 513.333007812 715.333984375 519.666015625 721.666992188 526.999023438 727 c 0
 537.666015625 735 548.333007812 739.333007812 559 740 c 0
 563 740.666992188 565.5 741 566.5 741 c 2
 568 741 l 2
 578 741 587 737.666992188 595 731 c 0
 606.333007812 721.666992188 612 708.666992188 612 692 c 0
EndSplineSet
Validated: 524289
EndChar

StartChar: D
Encoding: 68 68 43
Width: 590
GlyphClass: 2
Flags: HMW
HStem: -31 110.001<255.666 313.001 270.999 313.001> 694 20G<204.002 222.668>
LayerCount: 2
Fore
SplineSet
208.500976562 86 m 0
 235.500976562 81.3330078125 267.66796875 79.0009765625 305.000976562 79.0009765625 c 0
 321.000976562 79.0009765625 337.66796875 84.66796875 355.000976562 96.0009765625 c 0
 372.333984375 107.333984375 388.166992188 122.166992188 402.5 140.5 c 0
 416.833007812 158.833007812 429.833007812 179.333007812 441.5 202 c 0
 453.166992188 224.666992188 461.333984375 246.666992188 466.000976562 268 c 0
 472.959960938 297.98828125 476.438476562 326.2265625 476.438476562 352.71484375 c 0
 476.438476562 432.810546875 444.625976562 496.905273438 381.000976562 545 c 0
 351.000976562 567.666992188 305.000976562 591 243.000976562 615 c 1
 222.333984375 533.666992188 203.333984375 448.666992188 186.000976562 360 c 0
 180.000976562 331.333007812 171.500976562 289.5 160.500976562 234.5 c 0
 149.500976562 179.5 141.000976562 137.333007812 135.000976562 108 c 1
 157.000976562 98 181.500976562 90.6669921875 208.500976562 86 c 0
6 62 m 0
 12.6669921875 84.6669921875 21.66796875 120 33.0009765625 168 c 0
 53.0009765625 256 75.333984375 360.666992188 100.000976562 482 c 0
 107.333984375 518 112.333984375 541.833007812 115.000976562 553.5 c 0
 117.66796875 565.166992188 122.334960938 583 129.001953125 607 c 0
 134.108398438 625.380859375 137.454101562 637.896484375 139.041015625 644.545898438 c 0
 139.145507812 645.229492188 139.465820312 647.046875 140.002929688 649.999023438 c 0
 145.3359375 670.666015625 154.668945312 686.333007812 168.001953125 697 c 0
 181.334960938 708.333007812 196.001953125 714 212.001953125 714 c 0
 233.334960938 714 260.334960938 710.666992188 293.001953125 704 c 0
 313.668945312 700 334.668945312 694.5 356.001953125 687.5 c 0
 377.334960938 680.5 399.66796875 670.666992188 423.000976562 658 c 0
 446.333984375 645.333007812 468.000976562 630.833007812 488.000976562 614.5 c 0
 508.000976562 598.166992188 526.000976562 577.333984375 542.000976562 552.000976562 c 0
 556.66796875 527.333984375 568.000976562 500.166992188 576.000976562 470.5 c 0
 583.385742188 443.116210938 587.078125 411.1875 587.078125 374.715820312 c 0
 587.078125 371.67578125 587.052734375 368.603515625 587.000976562 365.5 c 0
 586.333984375 325.166992188 580.666992188 281.666992188 570 235 c 0
 564.666992188 211.666992188 556.166992188 187.666992188 544.5 163 c 0
 532.833007812 138.333007812 518.166015625 114.666015625 500.499023438 91.9990234375 c 0
 482.83203125 69.33203125 463.33203125 48.83203125 441.999023438 30.4990234375 c 0
 420.666015625 12.166015625 395.999023438 -2.6669921875 367.999023438 -14 c 0
 340.841796875 -25.3681640625 313.384765625 -31.052734375 285.629882812 -31.052734375 c 0
 284.086914062 -31.052734375 282.543945312 -31.03515625 280.999023438 -31 c 2
 270.999023438 -31 l 2
 240.33203125 -31 209.999023438 -29.5 179.999023438 -26.5 c 0
 149.999023438 -23.5 125.999023438 -20 107.999023438 -16 c 0
 90.666015625 -12 76.3330078125 -8.3330078125 65 -5 c 0
 53.6669921875 -1.6669921875 46.6669921875 0 44 0 c 0
 28.6669921875 0 17 5.6669921875 9 17 c 0
 4.5546875 23.6669921875 2.3330078125 31.51953125 2.3330078125 40.556640625 c 0
 2.3330078125 45.0751953125 2.8876953125 49.8896484375 3.9990234375 55 c 0
 4.666015625 57.6669921875 5.3330078125 60 6 62 c 0
139.541992188 646.7109375 m 1
 139.754882812 647.672851562 139.909179688 648.435546875 140.002929688 649 c 1
 139.825195312 648.11328125 139.671875 647.349609375 139.541992188 646.7109375 c 1
EndSplineSet
Validated: 524289
EndChar

StartChar: E
Encoding: 69 69 44
Width: 590
GlyphClass: 2
Flags: HMW
HStem: -20 115 -6 115<385.003 444.668 392.003 444.668> 301 108.999 319 106<467.336 506.001> 589.998 107.998<383.333 414.001 364.001 435.667>
VStem: 106.002 1<640 640>
LayerCount: 2
Fore
SplineSet
182 704 m 2x8c
 197.333007812 704 209.000976562 698.663085938 217.000976562 687.99609375 c 1
 272.333984375 694.663085938 341.666992188 697.99609375 425 697.99609375 c 0
 446.333007812 697.99609375 466.666015625 697.663085938 485.999023438 696.99609375 c 0
 524.666015625 695.663085938 554.333007812 693.663085938 575 690.99609375 c 0
 591.666992188 688.99609375 602.833984375 683.829101562 608.500976562 675.49609375 c 0
 612.354492188 669.830078125 614.28125 662.853515625 614.28125 654.56640625 c 0
 614.28125 650.666015625 613.854492188 646.4765625 613.000976562 641.99609375 c 0
 611.66796875 634.663085938 609.500976562 627.830078125 606.500976562 621.497070312 c 0
 603.500976562 615.1640625 599.66796875 609.331054688 595.000976562 603.998046875 c 0
 589.66796875 597.331054688 582.66796875 591.998046875 574.000976562 587.998046875 c 0
 568.000976562 585.998046875 561.66796875 584.998046875 555.000976562 584.998046875 c 2
 548.000976562 584.998046875 l 2
 506.000976562 588.331054688 461.333984375 589.998046875 414.000976562 589.998046875 c 2
 364.000976562 589.998046875 l 2
 304.66796875 588.665039062 252.66796875 585.33203125 208.000976562 579.999023438 c 1
 192.000976562 522.666015625 177.66796875 465.999023438 165.000976562 409.999023438 c 1
 213.000976562 410.666015625 278.333984375 413.333007812 361.000976562 418 c 0
 441.66796875 422.666992188 487.000976562 425 497.000976562 425 c 0
 515.000976562 425 526.833984375 420.333007812 532.500976562 411 c 0
 536.069335938 405.123046875 537.853515625 398.321289062 537.853515625 390.59375 c 0
 537.853515625 386.049804688 537.236328125 381.184570312 536.001953125 376 c 2
 536.001953125 375 l 2
 532.668945312 359 526.3359375 346.666992188 517.002929688 338 c 0
 505.002929688 325.333007812 490.3359375 319 473.002929688 319 c 0x9c
 461.669921875 319 413.002929688 316.333007812 327.002929688 311 c 0
 239.002929688 305 177.002929688 301.666992188 141.002929688 301 c 1
 137.669921875 285 134.169921875 269 130.502929688 253 c 0
 126.8359375 237 123.3359375 220.333007812 120.002929688 203 c 0
 110.002929688 158.333007812 104.002929688 127.333007812 102.002929688 110 c 0
 101.3359375 104 100.668945312 99 100.001953125 95 c 1xac
 112.001953125 93.6669921875 130.334960938 92.833984375 155.001953125 92.5009765625 c 0
 159.932617188 92.4345703125 165.116210938 92.4013671875 170.552734375 92.4013671875 c 0
 192.314453125 92.4013671875 218.130859375 92.9345703125 248.001953125 94.0009765625 c 0
 335.334960938 97.333984375 391.001953125 101.666992188 415.001953125 107 c 0
 425.001953125 108.333007812 433.668945312 109 441.001953125 109 c 0
 448.334960938 109 454.501953125 107.333007812 459.501953125 104 c 0
 464.501953125 100.666992188 468.501953125 97.1669921875 471.501953125 93.5 c 0
 474.501953125 89.8330078125 476.334960938 85.3330078125 477.001953125 80 c 0
 477.668945312 74.6669921875 478.001953125 70 478.001953125 66 c 0
 478.001953125 62 477.668945312 57.6669921875 477.001953125 53 c 0
 473.668945312 37.6669921875 465.3359375 23.6669921875 452.002929688 11 c 0
 440.002929688 -0.3330078125 426.002929688 -6.3330078125 410.002929688 -7 c 1
 407.3359375 1.6669921875 402.3359375 2 395.002929688 -6 c 1
 392.002929688 -6 l 2x4c
 378.002929688 -6 351.002929688 -7.3330078125 311.002929688 -10 c 0
 269.669921875 -12.6669921875 227.336914062 -15 184.00390625 -17 c 0
 140.670898438 -19 108.00390625 -20 86.00390625 -20 c 0
 64.6708984375 -20 47.6708984375 -19.3330078125 35.00390625 -18 c 0
 18.3369140625 -16.6669921875 3.669921875 -8 -8.9970703125 8 c 0
 -19.4609375 20.666015625 -24.6923828125 35.8349609375 -24.6923828125 53.505859375 c 0
 -24.6923828125 57.2265625 -24.4609375 61.0576171875 -23.9970703125 65 c 0
 -22.6640625 81 -17.3310546875 109 -7.998046875 149 c 0
 0.6689453125 185.666992188 9.501953125 222.5 18.501953125 259.5 c 0
 27.501953125 296.5 35.001953125 328 41.001953125 354 c 0
 47.001953125 380 54.3349609375 415.666992188 63.001953125 461 c 0
 71.001953125 499.666992188 76.501953125 525.5 79.501953125 538.5 c 0
 82.501953125 551.5 87.3349609375 570 94.001953125 594 c 0
 99.99609375 615.578125 103.833984375 630.150390625 105.516601562 637.716796875 c 1
 104.805664062 634.133789062 105.299804688 634.89453125 107.001953125 640 c 0
 112.334960938 660.666992188 121.66796875 676.5 135.000976562 687.5 c 0
 148.333984375 698.5 162.666992188 704 178 704 c 2
 182 704 l 2x8c
105.516601562 637.716796875 m 1
 105.641601562 638.344726562 105.803710938 639.10546875 106.001953125 640 c 1
 105.8671875 639.327148438 105.706054688 638.56640625 105.516601562 637.716796875 c 1
EndSplineSet
Validated: 524289
EndChar

StartChar: F
Encoding: 70 70 45
Width: 590
GlyphClass: 2
Flags: HMW
HStem: -21.002 21G<3.3345 11.001 11.001 14.001> 313.498 106.502 597 110<421.333 461.333> 694 20G<184 189 189 197>
LayerCount: 2
Fore
SplineSet
189 714 m 2xd0
 205 714 216.666992188 708.666992188 224 698 c 1
 305.333007812 704 383.666015625 707 458.999023438 707 c 0
 508.33203125 707 548.665039062 705.333007812 579.998046875 702 c 0
 596.665039062 700.666992188 607.83203125 695.666992188 613.499023438 687 c 0
 617.6875 680.59375 619.78125 672.548828125 619.78125 662.865234375 c 0
 619.78125 659.447265625 619.520507812 655.825195312 618.999023438 651.999023438 c 0
 616.999023438 643.33203125 616.666015625 643.33203125 617.999023438 651.999023438 c 1
 614.666015625 636.666015625 607.333007812 623.333007812 596 612 c 0
 584.666992188 600.666992188 570 595 552 595 c 2
 550 595 l 2
 516.666992188 596.333007812 480.666992188 597 442 597 c 0xe0
 370 597 294 594.333007812 214 589 c 1
 211.333007812 579 207 563.666992188 201 543 c 0
 190.333007812 503.666992188 181.333007812 467 174 433 c 0
 172.666992188 427 171.333984375 421.333007812 170.000976562 416 c 1
 196.000976562 418.666992188 224.000976562 420 254.000976562 420 c 0
 262.000976562 420 270.000976562 419.666992188 278.000976562 419 c 0
 322.000976562 418.333007812 361.66796875 416.666015625 397.000976562 413.999023438 c 0
 433.000976562 411.33203125 459.833984375 408.165039062 477.500976562 404.498046875 c 0
 495.16796875 400.831054688 506.66796875 395.1640625 512.000976562 387.497070312 c 0
 515.879882812 381.920898438 517.819335938 374.846679688 517.819335938 366.2734375 c 0
 517.819335938 363.05859375 517.546875 359.6328125 517.000976562 355.997070312 c 1
 517.000976562 356.6640625 516.66796875 356.6640625 516.000976562 355.997070312 c 0
 512.66796875 341.997070312 507.000976562 329.6640625 499.000976562 318.997070312 c 0
 493.66796875 312.330078125 486.334960938 307.330078125 477.001953125 303.997070312 c 0
 471.001953125 301.997070312 464.668945312 300.997070312 458.001953125 300.997070312 c 2
 451.001953125 300.997070312 l 2
 433.001953125 304.330078125 406.001953125 307.330078125 370.001953125 309.997070312 c 0
 335.626953125 312.368164062 300.06640625 313.553710938 263.321289062 313.553710938 c 0
 258.732421875 313.553710938 254.125976562 313.53515625 249.500976562 313.498046875 c 0
 207.833984375 313.165039062 173.333984375 311.665039062 146.000976562 308.998046875 c 1
 128.66796875 222.331054688 110.66796875 130.998046875 92.0009765625 34.998046875 c 0
 86.0009765625 16.998046875 74.333984375 2.998046875 57.0009765625 -7.001953125 c 0
 43.0009765625 -16.3349609375 28.66796875 -21.001953125 14.0009765625 -21.001953125 c 2
 11.0009765625 -21.001953125 l 2
 -4.33203125 -21.001953125 -15.9990234375 -15.3349609375 -23.9990234375 -4.001953125 c 0
 -28.166015625 2.248046875 -30.2490234375 9.669921875 -30.2490234375 18.263671875 c 0
 -30.2490234375 23.419921875 -29.4990234375 28.998046875 -27.9990234375 34.998046875 c 0
 -27.33203125 36.998046875 -26.9990234375 39.3310546875 -26.9990234375 41.998046875 c 0
 -20.9990234375 62.6650390625 -11.9990234375 97.33203125 0.0009765625 145.999023438 c 0
 21.333984375 237.999023438 42.6669921875 339.666015625 64 450.999023438 c 0
 72.6669921875 494.33203125 78.833984375 523.499023438 82.5009765625 538.499023438 c 0
 86.16796875 553.499023438 91.5009765625 573.499023438 98.5009765625 598.499023438 c 0
 105.500976562 623.499023438 110.000976562 640.666015625 112.000976562 649.999023438 c 0
 117.333984375 670.666015625 126.666992188 686.333007812 140 697 c 0
 153.333007812 708.333007812 168 714 184 714 c 2
 189 714 l 2xd0
EndSplineSet
Validated: 524289
EndChar

StartChar: G
Encoding: 71 71 46
Width: 590
GlyphClass: 2
Flags: HMW
HStem: -31 114<145.672 203.003> 619 105<440.338 441.335>
LayerCount: 2
Fore
SplineSet
-21 142 m 2
 -21 150 l 2
 -21 171 -19 191 -14 212 c 0
 -3 261 13 308 33 354 c 0
 53 400 75 442 100 479 c 0
 125 516 152 549 181 580 c 0
 212 611 243 637 274 658 c 0
 305 679 335 695 366 706 c 0
 397 718 427 724 455 724 c 0
 483 724 513 717 544 704 c 0
 575 690 594 678 602 667 c 0
 608 658 611 649 611 639 c 0
 611 634 610 629 609 624 c 0
 607 616 604 607 599 598 c 0
 593 586 583 577 569 572 c 0
 562 569 556 568 549 568 c 0
 542 568 537 569 533 571 c 0
 529 573 520 578 508 587 c 0
 496 596 484 604 471 610 c 0
 458 616 447 619 436 619 c 0
 417 619 396 613 371 601 c 0
 346 589 320 571 293 547 c 0
 266 523 241 496 217 465 c 0
 193 434 171 400 152 361 c 0
 133 322 118 284 109 245 c 0
 106 231 104 217 104 203 c 0
 104 191 105 180 108 168 c 0
 113 143 124 123 140 107 c 0
 156 91 175 83 196 83 c 0
 210 83 226 88 243 97 c 0
 260 106 278 117 294 132 c 0
 310 147 326 163 342 182 c 0
 367 211 388 240 405 270 c 1
 369 268 332 265 294 260 c 0
 256 255 229 248 213 241 c 0
 205 237 198 235 190 235 c 0
 182 235 175 237 168 242 c 0
 158 249 153 259 153 270 c 2
 153 276 l 2
 153 279 153 283 154 286 c 0
 157 300 165 313 178 324 c 0
 187 332 199 339 214 345 c 0
 237 355 281 362 346 367 c 0
 393 370 431 372 462 373 c 0
 473 373 484 373 493 372 c 0
 510 371 522 367 529 360 c 0
 535 354 538 346 538 335 c 0
 538 330 537 325 536 319 c 0
 531 299 521 285 504 276 c 1
 500 264 l 2
 499 261 497 255 495 247 c 0
 485 218 464 182 432 138 c 0
 417 117 399 97 379 76 c 0
 358 56 336 38 313 22 c 0
 290 6 266 -6 239 -16 c 0
 212 -26 186 -31 161 -31 c 0
 130 -31 103 -26 80 -17 c 0
 57 -8 39 5 25 21 c 0
 11 37 0 55 -8 76 c 0
 -16 97 -20 119 -21 142 c 2
EndSplineSet
Validated: 1
EndChar

StartChar: H
Encoding: 72 72 47
Width: 590
GlyphClass: 2
Flags: HMW
HStem: -21 21G<10.3345 18.001 18.001 21.001> 312 86.0049 694.005 20G<200.001 204.001 204.001 211.334>
LayerCount: 2
Fore
SplineSet
-22 34 m 0
 -21.3330078125 36.6669921875 -20.3310546875 39.3369140625 -18.998046875 42.00390625 c 0
 -13.6650390625 60.00390625 -2.998046875 104.336914062 13.001953125 175.00390625 c 0
 22.3349609375 215.670898438 34.501953125 265.170898438 49.501953125 323.50390625 c 2
 76.501953125 428.50390625 l 2
 79.501953125 440.170898438 82.3349609375 451.837890625 85.001953125 463.504882812 c 0
 87.6689453125 475.171875 91.8359375 494.671875 97.5029296875 522.004882812 c 0
 103.169921875 549.337890625 107.169921875 567.504882812 109.502929688 576.504882812 c 0
 111.8359375 585.504882812 114.168945312 594.671875 116.501953125 604.004882812 c 0
 118.834960938 613.337890625 120.334960938 619.170898438 121.001953125 621.50390625 c 0
 121.668945312 623.836914062 122.3359375 626.50390625 123.002929688 629.50390625 c 0
 123.669921875 632.50390625 124.502929688 635.50390625 125.502929688 638.50390625 c 0
 126.502929688 641.50390625 127.3359375 644.170898438 128.002929688 646.50390625 c 2
 129.002929688 650.00390625 l 2
 134.3359375 670.670898438 143.668945312 686.337890625 157.001953125 697.004882812 c 0
 170.334960938 708.337890625 184.66796875 714.004882812 200.000976562 714.004882812 c 2
 204.000976562 714.004882812 l 2
 218.66796875 714.004882812 230.334960938 709.337890625 239.001953125 700.004882812 c 0
 245.5234375 693.047851562 248.784179688 683.681640625 248.784179688 671.904296875 c 0
 248.784179688 665.624023438 247.856445312 658.657226562 246.001953125 651.004882812 c 0
 244.668945312 643.671875 240.501953125 629.004882812 233.501953125 607.004882812 c 0
 226.501953125 585.004882812 221.001953125 565.171875 217.001953125 547.504882812 c 0
 213.001953125 529.837890625 207.668945312 505.004882812 201.001953125 473.004882812 c 0
 194.334960938 441.004882812 189.001953125 416.004882812 185.001953125 398.004882812 c 1
 239.668945312 398.671875 306.3359375 404.671875 385.002929688 416.004882812 c 0
 408.3359375 419.337890625 426.668945312 421.670898438 440.001953125 423.00390625 c 0
 440.668945312 425.670898438 441.501953125 430.170898438 442.501953125 436.50390625 c 0
 443.501953125 442.836914062 446.501953125 457.669921875 451.501953125 481.002929688 c 0
 456.501953125 504.3359375 460.501953125 522.502929688 463.501953125 535.502929688 c 0
 466.501953125 548.502929688 471.668945312 569.002929688 479.001953125 597.002929688 c 0
 486.334960938 625.002929688 491.001953125 642.002929688 493.001953125 648.002929688 c 0
 498.334960938 669.3359375 508.001953125 685.668945312 522.001953125 697.001953125 c 0
 536.001953125 708.334960938 550.334960938 714.001953125 565.001953125 714.001953125 c 2
 569.001953125 714.001953125 l 2
 584.334960938 714.001953125 596.001953125 709.334960938 604.001953125 700.001953125 c 0
 610.223632812 692.890625 613.334960938 683.41015625 613.334960938 671.55859375 c 0
 613.334960938 665.631835938 612.556640625 659.11328125 611.000976562 652.001953125 c 0
 608.333984375 639.334960938 602.000976562 614.334960938 592.000976562 577.001953125 c 0
 580.000976562 530.334960938 569.833984375 488.501953125 561.500976562 451.501953125 c 0
 553.16796875 414.501953125 546.66796875 385.168945312 542.000976562 363.501953125 c 0
 537.333984375 341.834960938 533.333984375 321.66796875 530.000976562 303.000976562 c 0
 521.333984375 266.333984375 509.333984375 219.500976562 494.000976562 162.500976562 c 0
 478.66796875 105.500976562 468.66796875 65.66796875 464.000976562 43.0009765625 c 2
 462.000976562 35.0009765625 l 2
 456.66796875 17.0009765625 445.66796875 3.0009765625 429.000976562 -6.9990234375 c 0
 415.000976562 -16.33203125 400.66796875 -20.9990234375 386.000976562 -20.9990234375 c 2
 383.000976562 -20.9990234375 l 2
 367.66796875 -20.9990234375 356.000976562 -15.33203125 348.000976562 -3.9990234375 c 0
 343.255859375 2.9033203125 340.883789062 10.921875 340.883789062 20.056640625 c 0
 340.883789062 25.0390625 341.588867188 30.3544921875 343.000976562 36.0009765625 c 0
 343.66796875 38.0009765625 344.000976562 40.333984375 344.000976562 43.0009765625 c 0
 369.333984375 126.333984375 394.000976562 219.666992188 418.000976562 323 c 2
 422.000976562 341 l 1
 400.66796875 339 360.000976562 333.833007812 300.000976562 325.5 c 0
 240.000976562 317.166992188 194.000976562 312.666992188 162.000976562 312 c 1
 160.66796875 307.333007812 160.000976562 304.333007812 160.000976562 303 c 0
 150.000976562 269.666992188 139.833984375 231 129.500976562 187 c 0
 119.16796875 143 108.66796875 92.6669921875 98.0009765625 36 c 0
 91.333984375 17.3330078125 80.0009765625 3 64.0009765625 -7 c 0
 50.0009765625 -16.3330078125 35.66796875 -21 21.0009765625 -21 c 2
 18.0009765625 -21 l 2
 2.66796875 -21 -8.9990234375 -15.3330078125 -16.9990234375 -4 c 0
 -21.4443359375 2.6669921875 -23.666015625 10.51953125 -23.666015625 19.556640625 c 0
 -23.666015625 24.0751953125 -23.111328125 28.8896484375 -22 34 c 0
EndSplineSet
Validated: 524289
EndChar

StartChar: I
Encoding: 73 73 48
Width: 590
GlyphClass: 2
Flags: HMW
HStem: -11.002 103<418 429.5 418 418> -6.00098 97.999<314.667 439.004> 600.997 108.999<208.004 391.67 216.004 391.67>
LayerCount: 2
Fore
SplineSet
102 -12 m 1x60
 60.6669921875 -13.3330078125 32.33984375 -14.001953125 17.0068359375 -14.001953125 c 0
 -1.66015625 -14.001953125 -14.9931640625 -9.6689453125 -22.9931640625 -1.001953125 c 0
 -29.2529296875 5.2578125 -32.3828125 12.908203125 -32.3828125 21.9501953125 c 0
 -32.3828125 25.4267578125 -31.919921875 29.109375 -30.994140625 32.998046875 c 2
 -30.994140625 35.998046875 l 2
 -28.3271484375 49.3310546875 -20.994140625 60.8310546875 -8.994140625 70.498046875 c 0
 3.005859375 80.1650390625 18.3388671875 85.6650390625 37.005859375 86.998046875 c 1
 38.3388671875 92.3310546875 38.671875 92.3310546875 38.0048828125 86.998046875 c 1
 63.337890625 88.3310546875 108.004882812 89.6640625 172.004882812 90.9970703125 c 1
 192.671875 160.330078125 211.671875 232.663085938 229.004882812 307.99609375 c 0
 238.337890625 347.329101562 247.004882812 386.99609375 255.004882812 426.99609375 c 0
 260.337890625 455.663085938 266.670898438 486.663085938 274.00390625 519.99609375 c 0
 275.336914062 527.329101562 276.836914062 534.329101562 278.50390625 540.99609375 c 0
 280.170898438 547.663085938 283.00390625 557.830078125 287.00390625 571.497070312 c 0
 291.00390625 585.1640625 294.00390625 594.997070312 296.00390625 600.997070312 c 1
 216.00390625 600.997070312 l 2
 200.00390625 600.997070312 183.336914062 600.6640625 166.00390625 599.997070312 c 2
 164.00390625 599.997070312 l 2
 146.670898438 599.997070312 134.00390625 604.6640625 126.00390625 613.997070312 c 0
 120.00390625 620.997070312 117.00390625 629.68359375 117.00390625 640.05859375 c 0
 117.00390625 643.516601562 117.336914062 647.163085938 118.00390625 650.99609375 c 0
 118.00390625 651.663085938 118.336914062 652.663085938 119.00390625 653.99609375 c 0
 122.336914062 667.99609375 130.00390625 680.49609375 142.00390625 691.49609375 c 0
 154.00390625 702.49609375 169.670898438 707.99609375 189.00390625 707.99609375 c 0
 243.00390625 709.329101562 294.336914062 709.99609375 343.00390625 709.99609375 c 0
 440.336914062 709.99609375 519.336914062 706.99609375 580.00390625 700.99609375 c 0
 594.00390625 699.663085938 604.670898438 695.330078125 612.00390625 687.997070312 c 0
 618.880859375 681.120117188 622.319335938 672.071289062 622.319335938 660.850585938 c 0
 622.319335938 656.84375 621.880859375 652.559570312 621.00390625 647.998046875 c 0
 617.670898438 633.331054688 610.337890625 619.6640625 599.004882812 606.997070312 c 0
 593.004882812 599.6640625 585.337890625 593.997070312 576.004882812 589.997070312 c 0
 570.004882812 587.997070312 564.337890625 586.6640625 559.004882812 585.997070312 c 0
 555.671875 585.997070312 552.338867188 586.330078125 549.005859375 586.997070312 c 0
 533.005859375 589.6640625 490.672851562 593.331054688 422.005859375 597.998046875 c 1
 420.005859375 590.665039062 416.672851562 577.33203125 412.005859375 557.999023438 c 0
 407.338867188 539.33203125 403.671875 524.999023438 401.004882812 514.999023438 c 0
 398.337890625 504.999023438 395.670898438 494.666015625 393.00390625 483.999023438 c 0
 383.670898438 443.999023438 376.50390625 411.33203125 371.50390625 385.999023438 c 0
 366.50390625 360.666015625 360.836914062 334.666015625 354.50390625 307.999023438 c 0
 348.170898438 281.33203125 338.50390625 243.665039062 325.50390625 194.998046875 c 0
 312.50390625 146.331054688 303.670898438 112.331054688 299.00390625 92.998046875 c 1
 325.670898438 92.998046875 347.00390625 92.6650390625 363.00390625 91.998046875 c 2
 439.00390625 91.998046875 l 1
 440.336914062 97.3310546875 440.669921875 97.3310546875 440.002929688 91.998046875 c 1xa0
 441.3359375 97.3310546875 441.668945312 97.3310546875 441.001953125 91.998046875 c 1
 442.334960938 97.3310546875 442.66796875 97.3310546875 442.000976562 91.998046875 c 1x60
 443.333984375 97.3310546875 443.666992188 97.3310546875 443 91.998046875 c 1
 461 91.998046875 472.833007812 87.498046875 478.5 78.498046875 c 0
 482.353515625 72.3779296875 484.280273438 65.1025390625 484.280273438 56.6708984375 c 0
 484.280273438 52.7021484375 483.853515625 48.478515625 483 43.998046875 c 0
 481.666992188 37.3310546875 479.666992188 30.998046875 477 24.998046875 c 0
 474.333007812 18.998046875 470.666015625 12.998046875 465.999023438 6.998046875 c 0
 459.999023438 -0.3349609375 452.666015625 -5.3349609375 443.999023438 -8.001953125 c 0
 438.666015625 -10.001953125 433.833007812 -11.001953125 429.5 -11.001953125 c 2
 418 -11.001953125 l 2xa0
 402 -8.3349609375 374.333007812 -6.66796875 335 -6.0009765625 c 0
 294.333007812 -6.0009765625 257 -6.66796875 223 -8.0009765625 c 1
 206.887695312 -5.22265625 190.486328125 -3.833984375 173.795898438 -3.833984375 c 0
 150.430664062 -3.833984375 126.499023438 -6.5556640625 102 -12 c 1x60
EndSplineSet
Validated: 524289
EndChar

StartChar: J
Encoding: 74 74 49
Width: 590
GlyphClass: 2
Flags: HMW
HStem: -34.998 125.999<180.664 186.333> 600.001 109.999<303.998 333.999>
LayerCount: 2
Fore
SplineSet
362 217 m 0
 324.666992188 101 285.33203125 26.3349609375 243.999023438 -6.998046875 c 0
 221.999023438 -25.6650390625 198.666015625 -34.998046875 173.999023438 -34.998046875 c 0
 149.33203125 -34.998046875 126.33203125 -30.6650390625 104.999023438 -21.998046875 c 0
 83.666015625 -13.3310546875 65.9990234375 -2.3310546875 51.9990234375 11.001953125 c 0
 39.33203125 25.001953125 28.1650390625 40.1689453125 18.498046875 56.501953125 c 0
 8.8310546875 72.8349609375 1.3310546875 89.001953125 -4.001953125 105.001953125 c 0
 -9.3349609375 121.001953125 -13.001953125 135.501953125 -15.001953125 148.501953125 c 0
 -16.501953125 158.251953125 -17.251953125 166.782226562 -17.251953125 174.094726562 c 0
 -17.251953125 176.532226562 -17.1689453125 178.834960938 -17.001953125 181.001953125 c 0
 -17.001953125 188.334960938 -15.501953125 196.501953125 -12.501953125 205.501953125 c 0
 -9.501953125 214.501953125 -6.001953125 223.001953125 -2.001953125 231.001953125 c 0
 2.6650390625 241.001953125 9.498046875 249.501953125 18.498046875 256.501953125 c 0
 27.498046875 263.501953125 37.998046875 268.334960938 49.998046875 271.001953125 c 0
 53.998046875 271.668945312 57.998046875 271.668945312 61.998046875 271.001953125 c 0
 74.6650390625 271.001953125 83.998046875 267.001953125 89.998046875 259.001953125 c 0
 95.3310546875 251.890625 97.998046875 243.446289062 97.998046875 233.66796875 c 0
 97.998046875 228.779296875 97.3310546875 223.556640625 95.998046875 218.000976562 c 0
 94.7158203125 212.103515625 94.0751953125 205.6640625 94.0751953125 198.682617188 c 0
 94.0751953125 187.510742188 95.7158203125 174.950195312 98.998046875 161.000976562 c 0
 101.665039062 148.333984375 106.165039062 136.833984375 112.498046875 126.500976562 c 0
 118.831054688 116.16796875 128.6640625 107.66796875 141.997070312 101.000976562 c 0
 155.330078125 94.333984375 171.330078125 91.0009765625 189.997070312 91.0009765625 c 0
 190.6640625 91.0009765625 191.6640625 91.333984375 192.997070312 92.0009765625 c 0
 197.6640625 95.333984375 203.331054688 103.000976562 209.998046875 115.000976562 c 0
 225.331054688 143.000976562 240.331054688 186.333984375 254.998046875 245.000976562 c 2
 255.498046875 247.000976562 l 2
 255.831054688 248.333984375 257.331054688 255.166992188 259.998046875 267.5 c 0
 262.665039062 279.833007812 269.665039062 313 280.998046875 367 c 0
 297.665039062 447.666992188 315.33203125 525.333984375 333.999023438 600.000976562 c 1
 299.33203125 601.000976562 266.749023438 601.500976562 236.249023438 601.500976562 c 0
 205.749023438 601.500976562 177.33203125 601.000976562 150.999023438 600.000976562 c 2
 148.999023438 600.000976562 l 2
 131.666015625 600.000976562 118.999023438 604.66796875 110.999023438 614.000976562 c 0
 105.3515625 620.588867188 102.528320312 628.671875 102.528320312 638.25 c 0
 102.528320312 642.240234375 103.018554688 646.490234375 103.999023438 651 c 2
 103.999023438 654 l 2
 107.33203125 668 115.165039062 680.5 127.498046875 691.5 c 0
 139.831054688 702.5 155.331054688 708 173.998046875 708 c 0
 228.665039062 709.333007812 279.998046875 710 327.998046875 710 c 0
 425.331054688 710 504.331054688 707 564.998046875 701 c 0
 578.998046875 699.666992188 589.331054688 695.333984375 595.998046875 688.000976562 c 0
 603.256835938 680.7421875 606.885742188 671.063476562 606.885742188 658.965820312 c 0
 606.885742188 655.508789062 606.58984375 651.854492188 605.997070312 648.001953125 c 0
 602.6640625 633.334960938 595.331054688 619.66796875 583.998046875 607.000976562 c 0
 577.998046875 599.66796875 570.331054688 594.000976562 560.998046875 590.000976562 c 0
 554.998046875 588.000976562 549.331054688 586.66796875 543.998046875 586.000976562 c 0
 540.665039062 586.000976562 536.998046875 586.333984375 532.998046875 587.000976562 c 0
 514.331054688 590.333984375 484.998046875 593.333984375 444.998046875 596.000976562 c 1
 441.665039062 579.333984375 430.33203125 521.000976562 410.999023438 421.000976562 c 0
 405.666015625 393.66796875 400.833007812 370.66796875 396.5 352.000976562 c 0
 392.166992188 333.333984375 389.666992188 321.666992188 389 317 c 0
 379 275 370 241.666992188 362 217 c 0
EndSplineSet
Validated: 524289
EndChar

StartChar: K
Encoding: 75 75 50
Width: 590
GlyphClass: 2
Flags: HMW
HStem: -21 21G<21.3345 29.001 29.001 32> 693.998 21G
LayerCount: 2
Fore
SplineSet
32 -21 m 2
 29.0009765625 -21 l 2
 13.66796875 -21 1.66796875 -16.6669921875 -6.9990234375 -8 c 0
 -12.041015625 -2.5 -14.5615234375 4.2607421875 -14.5615234375 12.2822265625 c 0
 -14.5615234375 15.927734375 -14.041015625 19.833984375 -12.9990234375 24 c 0
 -12.33203125 26.6669921875 -11.33203125 29.333984375 -9.9990234375 32.0009765625 c 0
 -3.33203125 53.333984375 5.3349609375 88.6669921875 16.001953125 138 c 0
 38.001953125 233.333007812 60.3349609375 338.666015625 83.001953125 453.999023438 c 0
 91.6689453125 495.999023438 97.6689453125 524.999023438 101.001953125 540.999023438 c 0
 104.334960938 556.33203125 110.001953125 577.999023438 118.001953125 605.999023438 c 0
 126.001953125 634.666015625 131.001953125 652.666015625 133.001953125 659.999023438 c 0
 137.668945312 677.33203125 146.3359375 690.999023438 159.002929688 700.999023438 c 0
 171.446289062 709.709960938 184.76171875 714.064453125 198.947265625 714.064453125 c 0
 199.9609375 714.064453125 200.979492188 714.04296875 202.001953125 713.998046875 c 2
 205.001953125 713.998046875 l 2
 219.668945312 713.998046875 231.668945312 710.331054688 241.001953125 702.998046875 c 0
 248.14453125 696.807617188 251.715820312 688.236328125 251.715820312 677.284179688 c 0
 251.715820312 672.90234375 251.14453125 668.140625 250.001953125 662.998046875 c 0
 246.668945312 646.998046875 238.668945312 615.331054688 226.001953125 567.998046875 c 0
 213.334960938 521.331054688 203.66796875 482.998046875 197.000976562 452.998046875 c 1
 224.333984375 472.998046875 263.666992188 501.665039062 315 538.998046875 c 0
 427 627.665039062 493.333007812 679.33203125 514 693.999023438 c 0
 526.666992188 702.666015625 538 708.666015625 548 711.999023438 c 0
 554.666992188 713.999023438 560.333984375 714.999023438 565.000976562 714.999023438 c 0
 569.66796875 714.999023438 573.334960938 714.666015625 576.001953125 713.999023438 c 0
 583.334960938 711.999023438 589.66796875 708.33203125 595.000976562 702.999023438 c 0
 602.333984375 694.999023438 605.000976562 685.999023438 603.000976562 675.999023438 c 0
 599.000976562 657.999023438 587.66796875 638.666015625 569.000976562 617.999023438 c 0
 556.333984375 605.33203125 514.333984375 568.999023438 443.000976562 508.999023438 c 0
 370.333984375 452.999023438 306.666992188 404.33203125 252 362.999023438 c 1
 270 338.999023438 299.333007812 303.33203125 340 255.999023438 c 0
 381.333007812 211.33203125 417 170.999023438 447 134.999023438 c 0
 462.333007812 112.999023438 473.333007812 95.666015625 480 82.9990234375 c 0
 487.333007812 67.666015625 491 56.9990234375 491 50.9990234375 c 0
 491 42.33203125 490.333007812 33.9990234375 489 25.9990234375 c 0
 487.666992188 20.666015625 485.333984375 15.3330078125 482.000976562 10 c 0
 475.333984375 0.6669921875 466.333984375 -6.666015625 455.000976562 -11.9990234375 c 0
 440.456054688 -18.0595703125 430.869140625 -21.08984375 426.241210938 -21.08984375 c 0
 425.778320312 -21.08984375 425.365234375 -21.0595703125 425.000976562 -20.9990234375 c 2
 424.000976562 -20.9990234375 l 2
 407.333984375 -20.9990234375 393.666992188 -12.666015625 383 4.0009765625 c 0
 379 12.0009765625 360.666992188 35.0009765625 328 73.0009765625 c 0
 295.333007812 110.333984375 260.333007812 151.333984375 223 196.000976562 c 0
 195 225.333984375 172.666992188 250.333984375 156 271.000976562 c 1
 108 25.0009765625 l 2
 102.666992188 10.333984375 91.6669921875 -1.3330078125 75 -10 c 0
 61 -17.3330078125 46.6669921875 -21 32 -21 c 2
EndSplineSet
Validated: 524289
EndChar

StartChar: L
Encoding: 76 76 51
Width: 590
GlyphClass: 2
Flags: HMW
HStem: -9 105 686 20G<274.998 277.998 277.998 285.665>
LayerCount: 2
Fore
SplineSet
37 26 m 0
 37 31 38 36 39 41 c 0
 40 43 40 46 41 50 c 0
 42 54 54 90 77 159 c 0
 100 228 121 294 138 357 c 0
 143 376 149 400 156 428 c 0
 161.965820312 452.856445312 177.817382812 523.188476562 202.571289062 638.994140625 c 0
 202.684570312 639.791015625 202.827148438 640.791015625 203 642 c 0
 208 663 217 679 231 690 c 0
 245 701 260 706 275 706 c 2
 278 706 l 2
 293 706 305 701 314 692 c 0
 321 685 325 676 325 664 c 0
 325 658 324 652 322 645 c 0
 318 626 312 601 303 569 c 0
 292 526 281 485 271 447 c 0
 260 406 248 364 237 321 c 0
 230 294 218 256 203 208 c 0
 188 160 178 123 171 96 c 1
 174 104 174 104 173 96 c 1
 226 96 289 99 362 106 c 0
 433 113 481 119 505 125 c 0
 509 126 513 127 518 127 c 0
 523 127 527 126 531 125 c 0
 538 122 544 116 548 108 c 0
 551 101 552 94 552 87 c 0
 553 79 552 72 551 66 c 0
 548 51 541 40 531 30 c 0
 521 20 508 13 489 10 c 0
 444 1 374 -5 280 -9 c 0
 186 -13 119 -15 78 -15 c 0
 63 -15 51 -9 44 2 c 0
 40 9 37 17 37 26 c 0
EndSplineSet
Validated: 524289
EndChar

StartChar: M
Encoding: 77 77 52
Width: 590
GlyphClass: 2
Flags: HMW
HStem: -10.002 21G<7.6616 10.9951 10.9951 12.9951>
LayerCount: 2
Fore
SplineSet
84 63 m 2
 81.9951171875 52.998046875 l 2
 77.9951171875 34.998046875 69.662109375 19.998046875 56.9951171875 7.998046875 c 0
 42.9951171875 -4.001953125 28.328125 -10.001953125 12.9951171875 -10.001953125 c 2
 10.9951171875 -10.001953125 l 2
 4.328125 -10.001953125 -1.671875 -8.6689453125 -7.0048828125 -6.001953125 c 0
 -14.337890625 -2.001953125 -19.0048828125 5.3310546875 -21.0048828125 15.998046875 c 0
 -21.30078125 18.6640625 -21.44921875 21.52734375 -21.44921875 24.5888671875 c 0
 -21.44921875 35.3046875 -19.6337890625 48.44140625 -16.00390625 63.998046875 c 0
 -14.00390625 72.6650390625 -10.00390625 86.998046875 -4.00390625 106.998046875 c 0
 1.99609375 126.331054688 10.3291015625 151.998046875 20.99609375 183.998046875 c 0
 32.3291015625 217.998046875 44.99609375 258.331054688 58.99609375 304.998046875 c 0
 72.99609375 351.665039062 84.6630859375 388.998046875 93.99609375 416.998046875 c 0
 123.99609375 512.998046875 146.329101562 579.665039062 160.99609375 616.998046875 c 0
 170.329101562 640.331054688 178.662109375 656.6640625 185.995117188 665.997070312 c 0
 196.662109375 679.997070312 210.329101562 689.997070312 226.99609375 695.997070312 c 0
 240.99609375 701.330078125 254.663085938 703.997070312 267.99609375 703.997070312 c 2
 273.99609375 703.997070312 l 2
 289.329101562 703.997070312 301.329101562 701.6640625 309.99609375 696.997070312 c 0
 322.663085938 690.997070312 329.663085938 680.997070312 330.99609375 666.997070312 c 0
 331.23828125 661.6640625 331.359375 655.703125 331.359375 649.114257812 c 0
 331.359375 619.461914062 328.905273438 577.08984375 323.99609375 521.998046875 c 0
 317.99609375 454.665039062 309.99609375 377.998046875 299.99609375 291.998046875 c 0
 297.99609375 272.665039062 295.99609375 254.665039062 293.99609375 237.998046875 c 1
 309.329101562 285.998046875 323.99609375 331.331054688 337.99609375 373.998046875 c 0
 356.663085938 429.331054688 377.663085938 484.331054688 400.99609375 538.998046875 c 0
 424.329101562 594.331054688 443.329101562 636.998046875 457.99609375 666.998046875 c 0
 463.329101562 676.998046875 472.329101562 685.331054688 484.99609375 691.998046875 c 0
 496.329101562 697.998046875 507.662109375 701.665039062 518.995117188 702.998046875 c 0
 526.328125 703.665039062 532.328125 704.165039062 536.995117188 704.498046875 c 0
 541.662109375 704.831054688 545.329101562 704.6640625 547.99609375 703.997070312 c 2
 551.99609375 703.997070312 l 1
 566.49609375 703.997070312 l 2
 570.163085938 703.997070312 574.99609375 702.997070312 580.99609375 700.997070312 c 0
 587.663085938 699.6640625 592.99609375 697.6640625 596.99609375 694.997070312 c 0
 600.99609375 692.330078125 604.329101562 688.330078125 606.99609375 682.997070312 c 0
 609.663085938 676.997070312 610.99609375 669.997070312 610.99609375 661.997070312 c 0
 608.99609375 641.997070312 593.663085938 544.997070312 564.99609375 370.997070312 c 0
 536.99609375 197.6640625 522.99609375 99.6640625 522.99609375 76.9970703125 c 0
 522.99609375 63.6640625 521.329101562 51.3310546875 517.99609375 39.998046875 c 0
 515.99609375 30.6650390625 512.329101562 22.6650390625 506.99609375 15.998046875 c 0
 499.663085938 6.6650390625 489.663085938 -0.001953125 476.99609375 -4.001953125 c 0
 469.663085938 -6.001953125 462.330078125 -7.1689453125 454.997070312 -7.501953125 c 0
 447.6640625 -7.8349609375 440.331054688 -6.001953125 432.998046875 -2.001953125 c 0
 420.331054688 4.6650390625 412.998046875 18.33203125 410.998046875 38.9990234375 c 0
 410.799804688 41.3798828125 410.700195312 44.16796875 410.700195312 47.36328125 c 0
 410.700195312 97.857421875 435.466796875 250.069335938 484.999023438 503.999023438 c 1
 464.999023438 452.666015625 447.999023438 403.999023438 433.999023438 357.999023438 c 0
 409.999023438 281.999023438 385.33203125 209.999023438 359.999023438 141.999023438 c 0
 333.999023438 73.9990234375 315.666015625 32.33203125 304.999023438 16.9990234375 c 0
 291.666015625 0.9990234375 267.666015625 -7.0009765625 232.999023438 -7.0009765625 c 2
 227.999023438 -7.0009765625 l 2
 214.666015625 -7.0009765625 203.666015625 -5.0009765625 194.999023438 -1.0009765625 c 0
 184.33203125 3.666015625 178.33203125 10.3330078125 176.999023438 19 c 0
 176.947265625 21.4619140625 176.921875 24.16796875 176.921875 27.115234375 c 0
 176.921875 62.4775390625 180.614257812 132.772460938 187.999023438 238 c 0
 193.33203125 316 198.999023438 391.666992188 204.999023438 465 c 1
 200.999023438 451.666992188 193.666015625 427.666992188 182.999023438 393 c 2
 167.999023438 340 l 1
 140.999023438 252 l 2
 132.999023438 224.666992188 124.33203125 196.333984375 114.999023438 167.000976562 c 0
 107.666015625 144.333984375 100.333007812 120.666992188 93 96 c 0
 88.3330078125 81.3330078125 85.3330078125 70.3330078125 84 63 c 2
EndSplineSet
Validated: 524289
EndChar

StartChar: N
Encoding: 78 78 53
Width: 590
GlyphClass: 2
Flags: HMW
HStem: -11.999 21G<0.6646 17.3315> 685.001 20G<192.333 201.667 565 580.333>
VStem: -25.0029 100.002
LayerCount: 2
Fore
SplineSet
182 486 m 1
 176 456 170.666992188 431.000976562 166 411.000976562 c 0
 161.333007812 389.66796875 154.333007812 359.66796875 145 321.000976562 c 0
 135.666992188 283.000976562 124 237.000976562 110 183.000976562 c 0
 96 127.66796875 87 93.0009765625 83 79.0009765625 c 0
 79.6669921875 65.0009765625 77.6669921875 56.0009765625 77 52.0009765625 c 0
 76.3330078125 48.66796875 75.666015625 45.66796875 74.9990234375 43.0009765625 c 0
 70.9990234375 25.0009765625 62.9990234375 11.333984375 50.9990234375 2.0009765625 c 0
 38.33203125 -7.33203125 24.6650390625 -11.9990234375 9.998046875 -11.9990234375 c 0
 -8.6689453125 -11.9990234375 -20.3359375 -5.9990234375 -25.0029296875 6.0009765625 c 0
 -25.97265625 10.365234375 -26.4580078125 15.3017578125 -26.4580078125 20.8115234375 c 0
 -26.4580078125 30.453125 -24.97265625 41.849609375 -22.0029296875 55.0009765625 c 0
 -19.3359375 68.333984375 -6.6689453125 120.000976562 15.998046875 210.000976562 c 0
 50.6650390625 348.66796875 74.33203125 444.000976562 86.9990234375 496.000976562 c 0
 98.9990234375 548.000976562 108.999023438 595.333984375 116.999023438 638.000976562 c 0
 117.666015625 640.66796875 118.333007812 643.66796875 119 647.000976562 c 0
 121 657.000976562 125 665.66796875 131 673.000976562 c 0
 137.666992188 682.333984375 146 689.333984375 156 694.000976562 c 0
 170 701.333984375 184.666992188 705.000976562 200 705.000976562 c 0
 203.333007812 705.000976562 206.666015625 704.66796875 209.999023438 704.000976562 c 0
 223.999023438 704.000976562 235.33203125 701.66796875 243.999023438 697.000976562 c 0
 256.666015625 691.000976562 263.666015625 681.000976562 264.999023438 667.000976562 c 0
 268.999023438 624.333984375 289.666015625 545.333984375 326.999023438 430.000976562 c 0
 358.33203125 332.66796875 386.33203125 251.66796875 410.999023438 187.000976562 c 1
 425.666015625 244.333984375 442.999023438 319.333984375 462.999023438 412.000976562 c 0
 488.999023438 530.000976562 504.33203125 608.000976562 508.999023438 646.000976562 c 0
 509.666015625 650.000976562 510.333007812 653.66796875 511 657.000976562 c 0
 513.666992188 669.000976562 520 679.333984375 530 688.000976562 c 0
 542.666992188 699.333984375 557 705.000976562 573 705.000976562 c 0
 587.666992188 705.000976562 599 702.333984375 607 697.000976562 c 0
 611 694.333984375 614 690.333984375 616 685.000976562 c 0
 616.666992188 679.66796875 617 675.000976562 617 671.000976562 c 0
 617 666.333984375 616.333007812 659.333984375 615 650.000976562 c 0
 614.333007812 638.66796875 603 585.334960938 581 490.001953125 c 0
 577.666992188 476.001953125 574.666992188 462.001953125 572 448.001953125 c 0
 552.666992188 364.668945312 531.666992188 278.668945312 509 190.001953125 c 0
 494.333007812 132.668945312 482.333007812 90.001953125 473 62.001953125 c 0
 464.333007812 35.3349609375 457.333007812 18.3349609375 452 11.001953125 c 0
 439.333007812 -4.998046875 417 -13.3310546875 385 -13.998046875 c 2
 381 -13.998046875 l 2
 369 -13.998046875 359 -11.6650390625 351 -6.998046875 c 0
 341 -1.6650390625 335 5.001953125 333 13.001953125 c 0
 329.666992188 26.3349609375 320.333984375 55.66796875 305.000976562 101.000976562 c 0
 289.000976562 148.333984375 272.333984375 193.666992188 255.000976562 237 c 0
 238.333984375 286.333007812 221.666992188 341 205 401 c 0
 195.666992188 431.666992188 188 460 182 486 c 1
EndSplineSet
Validated: 524289
EndChar

StartChar: O
Encoding: 79 79 54
Width: 590
GlyphClass: 2
Flags: HMW
HStem: -24 108<175.998 218.667> 612.001 105.999<379 386.333>
VStem: 21.999 111.999<161.501 244.667>
LayerCount: 2
Fore
SplineSet
573 480 m 0
 572.333007812 477.333007812 572.331054688 477.333984375 572.998046875 480.000976562 c 1
 561.665039062 406.000976562 545.33203125 333.333984375 523.999023438 262.000976562 c 0
 511.999023438 222.66796875 500.999023438 192.334960938 490.999023438 171.001953125 c 0
 475.666015625 139.668945312 459.166015625 112.668945312 441.499023438 90.001953125 c 0
 423.83203125 67.3349609375 405.665039062 48.66796875 386.998046875 34.0009765625 c 0
 368.331054688 19.333984375 347.331054688 7.6669921875 323.998046875 -1 c 0
 299.998046875 -9.6669921875 276.498046875 -15.6669921875 253.498046875 -19 c 0
 230.498046875 -22.3330078125 204.665039062 -24 175.998046875 -24 c 0
 131.998046875 -23.3330078125 95.998046875 -10.666015625 67.998046875 14.0009765625 c 0
 41.3310546875 39.333984375 24.3310546875 72.6669921875 16.998046875 114 c 0
 14.0107421875 130.295898438 12.5166015625 147.14453125 12.5166015625 164.545898438 c 0
 12.5166015625 189.860351562 15.677734375 216.344726562 21.9990234375 244 c 0
 21.9990234375 245.333007812 22.33203125 247.333007812 22.9990234375 250 c 0
 24.33203125 257.333007812 25.6650390625 262.666015625 26.998046875 265.999023438 c 0
 33.6650390625 294.666015625 39.33203125 317.833007812 43.9990234375 335.5 c 0
 48.666015625 353.166992188 55.3330078125 376.666992188 64 406 c 0
 81.3330078125 463.333007812 104.333007812 516.666015625 133 565.999023438 c 0
 160.333007812 610.666015625 198 647.333007812 246 676 c 0
 297.333007812 704 351 718 407 718 c 0
 435.666992188 718 462 712.666992188 486 702 c 0
 509.333007812 691.333007812 528.333007812 676 543 656 c 0
 557.666992188 636 567.666992188 611 573 581 c 0
 575.666015625 566 577 550.083007812 577 533.25 c 0
 577 516.416015625 575.666015625 498.666015625 573 480 c 0
165.498046875 94.0009765625 m 0
 175.165039062 87.333984375 187 84 201 84 c 0
 236.333007812 84 269.666015625 92.3330078125 300.999023438 109 c 0
 316.999023438 117 332.33203125 128.166992188 346.999023438 142.5 c 0
 361.666015625 156.833007812 374.333007812 173.333007812 385 192 c 0
 389 199.333007812 395.833007812 217.833007812 405.5 247.5 c 0
 415.166992188 277.166992188 425.333984375 312.666992188 436.000976562 354 c 0
 439.333984375 366 442.333984375 378 445.000976562 390 c 0
 451.66796875 418.666992188 457.000976562 447.333984375 461.000976562 476.000976562 c 0
 462.293945312 485.697265625 462.940429688 494.962890625 462.940429688 503.797851562 c 0
 462.940429688 531.407226562 456.626953125 554.80859375 444 574.000976562 c 0
 427.333007812 599.333984375 402.666015625 612.000976562 369.999023438 612.000976562 c 0
 337.33203125 612.000976562 307.665039062 600.66796875 280.998046875 578.000976562 c 0
 252.998046875 554.000976562 228.331054688 520.66796875 206.998046875 478.000976562 c 0
 183.665039062 430.000976562 164.998046875 374.66796875 150.998046875 312.000976562 c 0
 141.665039062 272.66796875 135.998046875 239.000976562 133.998046875 211.000976562 c 0
 133.33203125 202.66796875 132.998046875 194.375976562 132.998046875 186.125976562 c 0
 132.998046875 177.875976562 133.33203125 169.66796875 133.998046875 161.500976562 c 0
 135.331054688 145.16796875 138.498046875 131.500976562 143.498046875 120.500976562 c 0
 148.498046875 109.500976562 155.831054688 100.66796875 165.498046875 94.0009765625 c 0
EndSplineSet
Validated: 524289
EndChar

StartChar: P
Encoding: 80 80 55
Width: 590
GlyphClass: 2
Flags: HMW
HStem: -18.998 21G<41.3286 57.329> 218 106.003<258.995 268.329 258.995 284.333> 605.003 105.999<350.996 409.997>
VStem: 4.9951 120 133.995 0.999023
LayerCount: 2
Fore
SplineSet
176.99609375 334.002929688 m 1
 197.7734375 327.28125 222.470703125 323.919921875 251.08984375 323.919921875 c 0
 253.692382812 323.919921875 256.328125 323.947265625 258.995117188 324.002929688 c 0
 277.662109375 324.002929688 295.162109375 325.3359375 311.495117188 328.002929688 c 0
 327.828125 330.669921875 341.995117188 334.002929688 353.995117188 338.002929688 c 0
 365.995117188 342.002929688 376.995117188 347.3359375 386.995117188 354.002929688 c 0
 396.995117188 360.669921875 405.662109375 367.336914062 412.995117188 374.00390625 c 0
 420.328125 380.670898438 426.995117188 388.50390625 432.995117188 397.50390625 c 0
 438.995117188 406.50390625 443.995117188 414.670898438 447.995117188 422.00390625 c 0
 451.995117188 429.336914062 455.662109375 438.169921875 458.995117188 448.502929688 c 0
 462.328125 458.8359375 464.995117188 467.168945312 466.995117188 473.501953125 c 0
 468.995117188 479.834960938 470.995117188 488.001953125 472.995117188 498.001953125 c 0
 475.176757812 506.729492188 476.267578125 514.959960938 476.267578125 522.6953125 c 0
 476.267578125 529.141601562 475.509765625 535.244140625 473.995117188 541.001953125 c 0
 470.662109375 553.668945312 465.329101562 563.8359375 457.99609375 571.502929688 c 0
 450.663085938 579.169921875 441.163085938 585.669921875 429.49609375 591.002929688 c 0
 417.829101562 596.3359375 406.329101562 600.002929688 394.99609375 602.002929688 c 0
 383.663085938 604.002929688 372.663085938 605.002929688 361.99609375 605.002929688 c 0
 339.99609375 605.002929688 300.329101562 603.002929688 242.99609375 599.002929688 c 1
 222.329101562 519.669921875 208.662109375 466.002929688 201.995117188 438.002929688 c 0
 192.662109375 400.669921875 184.329101562 366.002929688 176.99609375 334.002929688 c 1
136 109 m 0
 129.333007812 61 125.662109375 35.3359375 124.995117188 32.0029296875 c 0
 120.995117188 15.3359375 110.328125 2.6689453125 92.9951171875 -5.998046875 c 0
 78.9951171875 -14.6650390625 64.662109375 -18.998046875 49.9951171875 -18.998046875 c 0
 32.662109375 -18.998046875 19.662109375 -13.6650390625 10.9951171875 -2.998046875 c 0
 5.953125 3.4189453125 3.4326171875 11.2529296875 3.4326171875 20.505859375 c 0
 3.4326171875 24.7109375 3.953125 29.2099609375 4.9951171875 34.0009765625 c 0
 5.662109375 36.66796875 6.662109375 41.0009765625 7.9951171875 47.0009765625 c 0
 10.662109375 56.333984375 14.662109375 72.333984375 19.9951171875 95.0009765625 c 0
 28.662109375 132.333984375 39.9951171875 183.666992188 53.9951171875 249 c 0
 77.328125 359.666992188 90.9951171875 425 94.9951171875 445 c 0
 106.30078125 497.540039062 119.596679688 554.059570312 134.8828125 614.560546875 c 1
 133.642578125 609.7109375 133.346679688 610.524414062 133.995117188 617.001953125 c 1
 132.662109375 611.668945312 132.329101562 612.001953125 132.99609375 618.001953125 c 0
 129.663085938 626.668945312 128.99609375 635.3359375 130.99609375 644.002929688 c 0
 131.663085938 646.669921875 132.329101562 649.002929688 132.99609375 651.002929688 c 0
 136.99609375 661.002929688 143.330078125 670.002929688 151.997070312 678.002929688 c 0
 160.6640625 686.002929688 169.6640625 691.002929688 178.997070312 693.002929688 c 0
 202.997070312 698.3359375 237.997070312 703.002929688 283.997070312 707.002929688 c 0
 324.548828125 709.780273438 354.916992188 711.168945312 375.102539062 711.168945312 c 0
 379.141601562 711.168945312 382.7734375 711.11328125 385.997070312 711.001953125 c 0
 433.997070312 711.001953125 475.330078125 703.001953125 509.997070312 687.001953125 c 0
 540.6640625 670.334960938 562.497070312 645.16796875 575.497070312 611.500976562 c 0
 582.844726562 592.471679688 586.518554688 571.47265625 586.518554688 548.50390625 c 0
 586.518554688 530.834960938 584.344726562 512.000976562 579.997070312 492.000976562 c 0
 571.330078125 454.000976562 557.330078125 418.333984375 537.997070312 385.000976562 c 0
 518.6640625 351.66796875 495.831054688 322.66796875 469.498046875 298.000976562 c 0
 443.165039062 273.333984375 412.33203125 253.666992188 376.999023438 239 c 0
 340.999023438 225 303.666015625 218 264.999023438 218 c 0
 219.666015625 218 182.999023438 220.666992188 154.999023438 226 c 1
 147.666015625 188 141.333007812 149 136 109 c 0
EndSplineSet
Validated: 524289
EndChar

StartChar: Q
Encoding: 81 81 56
Width: 590
GlyphClass: 2
Flags: HMW
HStem: -24.002 21G<185.336 210.336> 612.496 105.504
VStem: 198.001 104.002
LayerCount: 2
Fore
SplineSet
398 -204 m 0
 388.666992188 -209.333007812 379.337890625 -212.002929688 370.004882812 -212.002929688 c 0
 365.337890625 -212.002929688 360.670898438 -211.3359375 356.00390625 -210.002929688 c 0
 342.670898438 -206.002929688 333.00390625 -197.669921875 327.00390625 -185.002929688 c 0
 320.336914062 -171.669921875 309.669921875 -149.169921875 295.002929688 -117.502929688 c 0
 280.3359375 -85.8359375 266.3359375 -53.6689453125 253.002929688 -21.001953125 c 1
 237.002929688 -23.001953125 219.669921875 -24.001953125 201.002929688 -24.001953125 c 0
 169.669921875 -24.001953125 141.669921875 -19.001953125 117.002929688 -9.001953125 c 0
 92.3359375 0.998046875 73.0029296875 14.3310546875 59.0029296875 30.998046875 c 0
 45.0029296875 48.3310546875 34.0029296875 68.3310546875 26.0029296875 90.998046875 c 0
 18.2666015625 115.313476562 14.3974609375 142.276367188 14.3974609375 171.885742188 c 0
 14.3974609375 195.85546875 16.9326171875 221.559570312 22.0029296875 248.998046875 c 0
 25.3359375 265.665039062 29.0029296875 282.33203125 33.0029296875 298.999023438 c 0
 57.0029296875 403.666015625 90.0029296875 491.333007812 132.002929688 562 c 0
 159.3359375 606.666992188 197.002929688 644 245.002929688 674 c 0
 296.3359375 703.333007812 349.668945312 718 405.001953125 718 c 0
 463.668945312 718 509.001953125 699.333007812 541.001953125 662 c 0
 555.668945312 643.333007812 565.668945312 618.333007812 571.001953125 587 c 0
 573.845703125 570.290039062 575.268554688 552.252929688 575.268554688 532.888671875 c 0
 575.268554688 515.942382812 574.178710938 497.979492188 572.000976562 479 c 0
 567.333984375 443 559.333984375 401.333007812 548.000976562 354 c 0
 528.66796875 270 510.000976562 207 492.000976562 165 c 0
 463.333984375 97 422.666992188 47 370 15 c 1
 383.333007812 -14.3330078125 400 -48 420 -86 c 0
 431.368164062 -108.104492188 437.052734375 -120.038085938 437.052734375 -121.80078125 c 0
 437.052734375 -121.8984375 437.03515625 -121.96484375 437 -122 c 0
 439.083007812 -127 440.125 -132.130859375 440.125 -137.390625 c 0
 440.125 -140.546875 439.75 -143.75 439 -147 c 0
 438.333007812 -149 437.666015625 -151.333007812 436.999023438 -154 c 0
 432.999023438 -164 427.33203125 -173.666992188 419.999023438 -183 c 0
 412.666015625 -192.333007812 405.333007812 -199.333007812 398 -204 c 0
197.00390625 113.997070312 m 0
 195.818359375 121.704101562 195.224609375 129.08203125 195.224609375 136.130859375 c 0
 195.224609375 144.93359375 196.150390625 153.22265625 198.000976562 160.997070312 c 0
 202.66796875 182.330078125 214.334960938 198.997070312 233.001953125 210.997070312 c 0
 244.334960938 218.330078125 255.334960938 222.330078125 266.001953125 222.997070312 c 0
 274.668945312 222.997070312 282.3359375 219.997070312 289.002929688 213.997070312 c 0
 295.669921875 207.997070312 300.002929688 198.6640625 302.002929688 185.997070312 c 0
 306.002929688 157.330078125 313.669921875 125.663085938 325.002929688 90.99609375 c 1
 349.669921875 108.329101562 369.336914062 133.99609375 384.00390625 167.99609375 c 0
 388.00390625 177.329101562 394.670898438 196.99609375 404.00390625 226.99609375 c 0
 413.336914062 256.99609375 423.336914062 294.663085938 434.00390625 339.99609375 c 2
 438.00390625 355.99609375 l 2
 447.336914062 395.329101562 454.00390625 432.99609375 458.00390625 468.99609375 c 0
 459.057617188 479.08203125 459.584960938 488.692382812 459.584960938 497.827148438 c 0
 459.584960938 529.14453125 453.390625 554.8671875 441.00390625 574.99609375 c 0
 425.870117188 600 402.129882812 612.502929688 369.784179688 612.502929688 c 0
 369.358398438 612.502929688 368.931640625 612.5 368.50390625 612.49609375 c 0
 335.50390625 612.163085938 305.336914062 600.330078125 278.00390625 576.997070312 c 0
 249.336914062 552.330078125 224.336914062 517.997070312 203.00390625 473.997070312 c 0
 179.00390625 421.997070312 160.670898438 367.997070312 148.00390625 311.997070312 c 0
 143.336914062 291.997070312 139.336914062 271.6640625 136.00390625 250.997070312 c 0
 132.731445312 230.997070312 131.094726562 212.137695312 131.094726562 194.41796875 c 0
 131.094726562 179.65234375 132.231445312 165.678710938 134.50390625 152.497070312 c 0
 139.50390625 123.497070312 149.670898438 100.6640625 165.00390625 83.9970703125 c 0
 177.670898438 70.6640625 192.670898438 62.9970703125 210.00390625 60.9970703125 c 1
 203.336914062 82.330078125 199.00390625 99.9970703125 197.00390625 113.997070312 c 0
EndSplineSet
Validated: 524289
EndChar

StartChar: R
Encoding: 82 82 57
Width: 590
GlyphClass: 2
Flags: HMW
HStem: -18.9961 21G<37.3325 44.999 44.999 47.999> 694.003 20G<204.998 220.665>
LayerCount: 2
Fore
SplineSet
136 129 m 0
 128.666992188 73.6669921875 124.33203125 42.3369140625 122.999023438 35.00390625 c 0
 118.999023438 17.6708984375 108.666015625 4.00390625 91.9990234375 -5.99609375 c 0
 77.9990234375 -14.6630859375 63.33203125 -18.99609375 47.9990234375 -18.99609375 c 2
 44.9990234375 -18.99609375 l 2
 29.666015625 -18.99609375 17.666015625 -13.6630859375 8.9990234375 -2.99609375 c 0
 3.666015625 3.2255859375 0.9990234375 10.78125 0.9990234375 19.669921875 c 0
 0.9990234375 24.1142578125 1.666015625 28.8916015625 2.9990234375 34.0029296875 c 0
 3.666015625 36.669921875 4.666015625 39.3369140625 5.9990234375 42.00390625 c 0
 15.9990234375 75.3369140625 23.666015625 103.336914062 28.9990234375 126.00390625 c 0
 30.33203125 132.00390625 33.33203125 145.170898438 37.9990234375 165.50390625 c 0
 42.666015625 185.836914062 48.9990234375 214.00390625 56.9990234375 250.00390625 c 0
 64.9990234375 286.00390625 69.9990234375 308.336914062 71.9990234375 317.00390625 c 0
 73.9990234375 325.670898438 78.666015625 343.670898438 85.9990234375 371.00390625 c 0
 97.9990234375 417.00390625 107.33203125 457.670898438 113.999023438 493.00390625 c 0
 118.666015625 515.00390625 123.999023438 544.670898438 129.999023438 582.00390625 c 0
 135.999023438 619.336914062 139.999023438 642.00390625 141.999023438 650.00390625 c 1
 141.33203125 645.336914062 141.665039062 647.00390625 142.998046875 655.00390625 c 0
 142.998046875 656.336914062 143.331054688 657.669921875 143.998046875 659.002929688 c 0
 146.665039062 671.002929688 154.498046875 683.169921875 167.498046875 695.502929688 c 0
 180.498046875 707.8359375 195.998046875 714.002929688 213.998046875 714.002929688 c 0
 227.331054688 714.002929688 237.331054688 711.3359375 243.998046875 706.002929688 c 1
 297.331054688 703.3359375 345.998046875 696.168945312 389.998046875 684.501953125 c 0
 433.998046875 672.834960938 469.665039062 658.66796875 496.998046875 642.000976562 c 0
 523.665039062 625.333984375 544.33203125 605.666992188 558.999023438 583 c 0
 573.666015625 560.333007812 582.666015625 537.666015625 585.999023438 514.999023438 c 0
 587.387695312 505.555664062 588.08203125 496.053710938 588.08203125 486.495117188 c 0
 588.08203125 473.109375 586.720703125 459.611328125 583.998046875 445.999023438 c 0
 571.998046875 393.999023438 543.665039062 354.999023438 498.998046875 328.999023438 c 0
 484.998046875 320.33203125 470.331054688 313.665039062 454.998046875 308.998046875 c 0
 438.998046875 303.665039062 420.331054688 298.83203125 398.998046875 294.499023438 c 0
 377.665039062 290.166015625 359.665039062 286.999023438 344.998046875 284.999023438 c 0
 330.331054688 282.999023438 318.331054688 281.666015625 308.998046875 280.999023438 c 1
 356.998046875 251.666015625 397.665039062 217.999023438 430.998046875 179.999023438 c 0
 469.665039062 134.666015625 492.998046875 95.3330078125 500.998046875 62 c 0
 501.665039062 54.6669921875 501.33203125 47.5 499.999023438 40.5 c 0
 498.666015625 33.5 495.999023438 27 491.999023438 21 c 0
 484.666015625 9 475.333007812 -0.6669921875 464 -8 c 0
 454 -14.6669921875 444 -18 434 -18 c 0
 415.333007812 -18 401.333007812 -8 392 12 c 0
 385.333007812 26 374.5 43 359.5 63 c 0
 344.5 83 326 105.333007812 304 130 c 0
 282 154.666992188 256 179 226 203 c 0
 202 222.333007812 178 238.333007812 154 251 c 1
 148.666992188 217.666992188 142.666992188 177 136 129 c 0
208.998046875 449.002929688 m 0
 203.665039062 432.3359375 194.997070312 406.002929688 182.997070312 370.002929688 c 1
 187.6640625 370.002929688 194.1640625 369.8359375 202.497070312 369.502929688 c 0
 210.830078125 369.169921875 220.997070312 369.669921875 232.997070312 371.002929688 c 0
 260.997070312 372.3359375 284.330078125 373.668945312 302.997070312 375.001953125 c 0
 350.997070312 379.001953125 386.330078125 384.334960938 408.997070312 391.001953125 c 0
 421.6640625 395.001953125 432.831054688 399.668945312 442.498046875 405.001953125 c 0
 452.165039062 410.334960938 459.498046875 416.16796875 464.498046875 422.500976562 c 0
 469.498046875 428.833984375 472.998046875 436.333984375 474.998046875 445.000976562 c 0
 475.8984375 449.14453125 476.349609375 453.313476562 476.349609375 457.505859375 c 0
 476.349609375 468.827148438 473.065429688 480.325195312 466.498046875 492.000976562 c 0
 457.498046875 508.000976562 444.331054688 522.333984375 426.998046875 535.000976562 c 0
 409.665039062 547.66796875 388.998046875 559.334960938 364.998046875 570.001953125 c 0
 340.998046875 580.668945312 318.998046875 589.001953125 298.998046875 595.001953125 c 0
 278.998046875 601.001953125 260.665039062 605.668945312 243.998046875 609.001953125 c 1
 235.331054688 567.001953125 227.998046875 530.001953125 221.998046875 498.001953125 c 0
 219.331054688 484.668945312 214.998046875 468.3359375 208.998046875 449.002929688 c 0
EndSplineSet
Validated: 524289
EndChar

StartChar: S
Encoding: 83 83 58
Width: 590
GlyphClass: 2
Flags: HMW
HStem: -28.999 108.99<138.333 199.337> 621 102.999<401.335 457.336>
VStem: 402.006 118.995
LayerCount: 2
Fore
SplineSet
-17 73 m 0
 -18.8505859375 81.1435546875 -19.775390625 88.9765625 -19.775390625 96.501953125 c 0
 -19.775390625 102.529296875 -19.1826171875 108.358398438 -17.99609375 113.9921875 c 0
 -17.3291015625 117.9921875 -15.99609375 121.659179688 -13.99609375 124.9921875 c 0
 -6.6630859375 140.325195312 4.669921875 151.658203125 20.0029296875 158.991210938 c 0
 28.669921875 162.991210938 35.5029296875 165.491210938 40.5029296875 166.491210938 c 0
 45.5029296875 167.491210938 49.5029296875 167.991210938 52.5029296875 167.991210938 c 2
 61.0029296875 167.991210938 l 2
 68.3359375 167.32421875 74.3359375 163.991210938 79.0029296875 157.991210938 c 0
 83.669921875 151.991210938 88.3369140625 144.32421875 93.00390625 134.991210938 c 0
 99.6708984375 118.32421875 111.50390625 104.991210938 128.50390625 94.9912109375 c 0
 145.50390625 84.9912109375 166.670898438 79.9912109375 192.00390625 79.9912109375 c 0
 206.670898438 79.9912109375 222.837890625 81.9912109375 240.504882812 85.9912109375 c 0
 258.171875 89.9912109375 275.838867188 96.158203125 293.505859375 104.491210938 c 0
 311.172851562 112.82421875 327.505859375 122.32421875 342.505859375 132.991210938 c 0
 357.505859375 143.658203125 370.338867188 155.991210938 381.005859375 169.991210938 c 0
 391.672851562 183.991210938 398.672851562 198.658203125 402.005859375 213.991210938 c 0
 404.005859375 222.658203125 405.338867188 230.658203125 406.005859375 237.991210938 c 0
 406.672851562 245.32421875 406.172851562 252.991210938 404.505859375 260.991210938 c 0
 402.838867188 268.991210938 399.838867188 276.32421875 395.505859375 282.991210938 c 0
 391.172851562 289.658203125 384.672851562 296.325195312 376.005859375 302.9921875 c 0
 367.338867188 309.659179688 356.171875 315.826171875 342.504882812 321.493164062 c 0
 328.837890625 327.16015625 311.670898438 332.327148438 291.00390625 336.994140625 c 0
 270.336914062 341.661132812 247.169921875 345.328125 221.502929688 347.995117188 c 0
 195.8359375 350.662109375 173.668945312 357.329101562 155.001953125 367.99609375 c 0
 137.668945312 377.99609375 124.668945312 390.329101562 116.001953125 404.99609375 c 0
 107.334960938 419.663085938 101.501953125 435.330078125 98.501953125 451.997070312 c 0
 97.2158203125 459.139648438 96.5732421875 466.283203125 96.5732421875 473.42578125 c 0
 96.5732421875 482.950195312 97.7158203125 492.473632812 100.001953125 501.998046875 c 0
 105.334960938 525.331054688 114.334960938 547.831054688 127.001953125 569.498046875 c 0
 139.668945312 591.165039062 156.168945312 611.33203125 176.501953125 629.999023438 c 0
 196.834960938 648.666015625 220.001953125 664.999023438 246.001953125 678.999023438 c 0
 273.334960938 692.999023438 304.001953125 703.999023438 338.001953125 711.999023438 c 0
 372.668945312 719.999023438 409.3359375 723.999023438 448.002929688 723.999023438 c 0
 466.669921875 723.999023438 491.336914062 722.33203125 522.00390625 718.999023438 c 0
 550.670898438 715.666015625 570.670898438 711.666015625 582.00390625 706.999023438 c 0
 595.336914062 701.666015625 603.669921875 692.666015625 607.002929688 679.999023438 c 0
 608.3359375 674.999023438 609.002929688 669.916015625 609.002929688 664.749023438 c 0
 609.002929688 659.58203125 608.336914062 654.33203125 607.002929688 648.999023438 c 0
 603.669921875 634.33203125 597.336914062 622.999023438 588.00390625 614.999023438 c 0
 580.670898438 608.33203125 572.337890625 604.33203125 563.004882812 602.999023438 c 0
 559.004882812 602.33203125 555.504882812 601.999023438 552.504882812 601.999023438 c 0
 549.504882812 601.999023438 546.004882812 602.33203125 542.004882812 602.999023438 c 0
 535.337890625 603.666015625 528.670898438 605.333007812 522.00390625 608 c 0
 512.00390625 610.666992188 504.00390625 612.666992188 498.00390625 614 c 0
 491.336914062 615.333007812 480.669921875 616.833007812 466.002929688 618.5 c 0
 451.3359375 620.166992188 434.668945312 621 416.001953125 621 c 0
 386.668945312 621 358.001953125 616.833007812 330.001953125 608.5 c 0
 302.001953125 600.166992188 278.334960938 588.333984375 259.001953125 573.000976562 c 0
 239.668945312 557.66796875 228.001953125 540.66796875 224.001953125 522.000976562 c 0
 222.948242188 517.18359375 222.420898438 512.536132812 222.420898438 508.059570312 c 0
 222.420898438 492.708984375 228.615234375 479.356445312 241.001953125 468.000976562 c 0
 258.334960938 452.66796875 286.001953125 444.000976562 324.001953125 442.000976562 c 0
 362.001953125 440.000976562 395.001953125 434.333984375 423.001953125 425.000976562 c 0
 450.334960938 415.66796875 471.16796875 404.000976562 485.500976562 390.000976562 c 0
 499.833984375 376.000976562 510.500976562 359.500976562 517.500976562 340.500976562 c 0
 524.182617188 322.364257812 527.5234375 304.530273438 527.5234375 287.000976562 c 0
 527.5234375 275.354492188 526.370117188 253.953125 521.000976562 228.001953125 c 0
 513.66796875 197.334960938 501.66796875 168.16796875 485.000976562 140.500976562 c 0
 468.333984375 112.833984375 448.666992188 88.833984375 426 68.5009765625 c 0
 403.333007812 48.16796875 378.333007812 30.66796875 351 16.0009765625 c 0
 321.666992188 1.333984375 291 -9.9990234375 259 -17.9990234375 c 0
 227 -25.33203125 195 -28.9990234375 163 -28.9990234375 c 0
 113.666992188 -28.9990234375 72.6669921875 -19.33203125 40 0.0009765625 c 0
 9.3330078125 19.333984375 -9.6669921875 43.6669921875 -17 73 c 0
EndSplineSet
Validated: 524289
EndChar

